<svg width="43" height="42" viewBox="0 0 43 42" fill="none" xmlns="http://www.w3.org/2000/svg">
<circle cx="21.5" cy="21" r="21" fill="#D9D9D9"/>
<path d="M26.1667 16.0543C25.2292 16.0543 24.3958 15.8459 23.5625 15.5334L19.5 13.5543C18.0417 12.8251 15.6458 13.2418 14.6042 14.3876L13.4583 15.6376L12 14.1793L13.1458 12.9293C14.8125 11.0543 18.1458 10.4293 20.4375 11.5751L24.6042 13.5543C26.0625 14.2834 28.4583 13.8668 29.5 12.7209L30.5417 11.4709L32.1042 12.8251L30.9583 14.0751C29.8125 15.3251 28.0417 16.0543 26.1667 16.0543ZM24.9167 31.3668L24.0833 28.6584H19.9167L19.0833 31.3668H16.4792L20.5417 19.8043H23.5625L27.625 31.3668H24.9167ZM23.5625 26.5751L22 21.5751L20.5417 26.5751H23.5625Z" fill="#71717A"/>
</svg>
