<svg width="123" height="158" viewBox="0 0 123 158" fill="none" xmlns="http://www.w3.org/2000/svg">
<path d="M23.9588 131.555C23.0927 130.627 22.2266 129.668 21.3914 128.647C18.1409 124.697 15.4932 120.288 13.5345 115.563C18.6384 118.656 26.619 117.326 32.094 116.429C33.7335 116.181 35.342 115.841 36.9814 115.686C38.5589 113.521 40.0746 111.294 41.5285 109.067C40.2473 108.404 39.1761 107.397 38.4352 106.159C37.5072 103.901 39.5797 103.066 41.0335 101.55C45.859 96.8486 37.4144 89.8269 37.167 84.8468C36.9814 81.1968 39.2704 77.0209 36.9504 74.1751C35.0326 71.8242 31.0733 72.1335 29.1245 69.8136C28.9136 69.5934 28.7364 69.3432 28.5987 69.0712C28.1135 67.9787 27.512 66.9416 26.8046 65.978C25.1961 64.2767 22.474 64.3695 19.9685 64.1839C22.4281 61.0007 25.2287 58.0964 28.3203 55.5228C32.4074 52.234 36.9637 49.5753 41.8378 47.635C43.1679 51.4088 49.54 54.4401 53.4684 53.9762C56.407 53.605 59.5002 51.8418 62.0986 53.2647C62.5373 53.4958 62.9262 53.8112 63.2431 54.1927C64.2636 48.24 64.8837 42.2256 65.099 36.19C65.0559 35.5308 65.0559 34.8695 65.099 34.2103C53.1482 33.534 41.2591 36.3532 30.8844 42.3235C20.5096 48.2938 12.0985 57.1566 6.67852 67.8292C1.25857 78.5018 -0.935462 90.5219 0.364479 102.421C1.66442 114.32 6.40205 125.583 13.9985 134.834C15.0502 136.112 16.1329 137.319 17.2464 138.453C19.5045 136.226 21.7626 133.906 23.9588 131.555Z" fill="#338E63"/>
<path d="M100.61 58.3995L100.238 59.3894C96.2735 70.6739 91.1091 81.5004 84.8339 91.6829C85.1048 92.1117 85.4385 92.4975 85.8238 92.8274C86.9856 93.7523 88.417 94.2737 89.9016 94.3128C91.3861 94.3518 92.8429 93.9064 94.0518 93.0439C95.1345 92.2397 96.0934 91.0333 97.4544 91.0333C98.2625 91.1173 99.0272 91.4404 99.6506 91.9613C103.991 95.0426 107.69 98.9407 110.539 103.437C111.064 104.376 111.686 105.257 112.395 106.067C110.972 113.077 108.117 119.718 104.008 125.573C99.8984 131.428 94.6239 136.371 88.5149 140.092C88.2365 139.752 88.02 139.381 87.7725 139.01C86.6929 137.14 86.2991 134.952 86.659 132.823C86.9064 131.4 87.4632 129.73 86.659 128.616C85.8547 127.503 83.8441 127.657 82.2975 127.472C80.8498 127.307 79.5069 126.636 78.5053 125.578C77.5037 124.52 76.9078 123.142 76.8224 121.687C76.8224 117.852 76.5131 113.954 76.2656 110.119C76.3513 108.792 75.9188 107.483 75.0593 106.469C68.9988 114.486 62.2729 121.977 54.9532 128.864C53.2209 130.534 51.4268 132.112 49.6637 133.689C50.8739 135.431 52.4198 136.914 54.2108 138.051C56.138 139.195 58.2976 139.892 60.5301 140.09C62.7625 140.288 65.011 139.982 67.1096 139.195C68.1765 138.707 69.3149 138.394 70.4813 138.267C71.0704 138.215 71.661 138.348 72.171 138.648C72.681 138.947 73.0851 139.398 73.3271 139.938C73.5126 140.618 73.327 141.422 73.822 141.948C74.1608 142.3 74.607 142.528 75.0902 142.598C75.9563 142.845 77.8123 143.557 79.9157 144.299C73.2608 146.835 66.1556 147.976 59.0413 147.652C51.9269 147.327 44.9552 145.544 38.5589 142.412C37.2598 143.371 35.9297 144.33 34.6305 145.227H34.4449C33.0839 146.155 31.3517 147.3 29.5885 148.32C42.0203 155.809 56.6965 158.669 71.0305 156.396C85.3646 154.124 98.4365 146.865 107.942 135.898C117.449 124.932 122.779 110.962 122.993 96.4504C123.208 81.9389 118.293 67.8174 109.116 56.5745C107.289 54.3811 105.315 52.3142 103.208 50.388C102.491 53.1046 101.624 55.7793 100.61 58.3995Z" fill="#338E63"/>
<path d="M63.4904 64.0602C62.8099 64.2767 59.098 98.488 24.8866 134.122C21.7089 137.603 18.2537 140.821 14.5552 143.742C12.1425 145.072 9.35853 145.227 8.36869 139.814C8.36869 142.66 7.78097 145.444 9.79158 147.887C15.6997 155.218 27.6087 146.928 33.1766 143.062C41.1255 137.381 48.3912 130.8 54.8293 123.451C68.4705 107.613 72.5536 95.8588 83.7821 70.6179L75.7087 60.8123C75.7087 60.8123 70.4811 61.9877 63.4904 64.0602Z" fill="#338E63"/>
<path d="M97.1452 10.2066C96.3202 9.03568 95.1452 8.1564 93.7891 7.6951C92.433 7.23381 90.9656 7.21425 89.5977 7.63923C89.5977 7.63923 91.9486 2.78282 95.1037 3.83453C98.2588 4.88623 97.1452 10.2066 97.1452 10.2066ZM96.4338 0.12263C93.3405 -0.898142 88.7007 4.70064 87.6799 7.76296L86.5663 11.1037L59.2838 24.4665C58.8525 24.6446 58.4671 24.918 58.1564 25.2662C57.8457 25.6144 57.6178 26.0284 57.4898 26.4771C57.3121 26.8765 57.2309 27.3121 57.2529 27.7486C57.2749 28.1852 57.3993 28.6104 57.6162 28.9899C57.8331 29.3695 58.1362 29.6926 58.5012 29.9331C58.8662 30.1737 59.2826 30.3249 59.7169 30.3746L79.39 29.9725L75.8637 50.8829L68.0068 53.2337C67.56 53.3795 67.1522 53.6252 66.8146 53.9522C66.4769 54.2791 66.2182 54.6787 66.0581 55.1206L65.0682 58.2139C65.0105 58.3732 64.9961 58.545 65.0263 58.7117C65.0566 58.8784 65.1305 59.0341 65.2405 59.163C65.3505 59.2919 65.4927 59.3893 65.6526 59.4454C65.8126 59.5014 65.9845 59.5141 66.1509 59.4821L77.1938 57.3787L84.5557 65.6067C84.6653 65.7362 84.8072 65.8343 84.967 65.891C85.1268 65.9478 85.2989 65.9611 85.4655 65.9296C85.6322 65.8982 85.7875 65.8231 85.9157 65.712C86.0439 65.601 86.1403 65.4579 86.1951 65.2974L87.185 62.2042C87.3382 61.7543 87.3788 61.2738 87.3033 60.8047C87.2278 60.3356 87.0385 59.8921 86.7519 59.513L82.2667 53.3265L91.1443 34.5814L109.116 48.7794C109.49 49.006 109.913 49.1401 110.35 49.1705C110.786 49.201 111.224 49.127 111.626 48.9546C112.028 48.7823 112.383 48.5165 112.662 48.1794C112.941 47.8423 113.136 47.4436 113.23 47.0163C113.383 46.5825 113.442 46.1215 113.405 45.6632C113.367 45.2049 113.234 44.7595 113.014 44.3561L97.7329 14.9702L98.8465 11.6295C99.8673 8.5672 99.4961 1.26713 96.4338 0.12263Z" fill="#338E63"/>
</svg>
