<svg width="300" height="300" viewBox="0 0 300 300" fill="none" xmlns="http://www.w3.org/2000/svg">
<path d="M150.354 286.757C228.422 286.757 291.708 250.219 291.708 205.147C291.708 160.074 228.422 123.536 150.354 123.536C72.2863 123.536 9 160.074 9 205.147C9 250.219 72.2863 286.757 150.354 286.757Z" fill="#F0F0F0" fill-opacity="0.8"/>
<path d="M120.748 266.993C147.669 266.993 169.493 254.393 169.493 238.85C169.493 223.308 147.669 210.708 120.748 210.708C93.8273 210.708 72.0036 223.308 72.0036 238.85C72.0036 254.393 93.8273 266.993 120.748 266.993Z" fill="#E0E0E0" fill-opacity="0.8"/>
<path d="M259.366 203.642L253.65 200.342C253.65 200.342 252.25 188.101 253.181 178.621C254.49 165.299 263.093 149.27 273.357 153.035C283.62 156.799 268.651 170.366 265.319 181.665C261.987 192.964 259.366 203.642 259.366 203.642Z" fill="#338E63" fill-opacity="0.8"/>
<path opacity="0.15" d="M259.366 203.642L253.65 200.342C253.65 200.342 252.25 188.101 253.181 178.621C254.49 165.299 263.093 149.27 273.357 153.035C283.62 156.799 268.651 170.366 265.319 181.665C261.987 192.964 259.366 203.642 259.366 203.642Z" fill="black" fill-opacity="0.8"/>
<path d="M256.36 202.253C256.363 202.253 256.367 202.253 256.372 202.253C256.562 202.246 256.712 202.087 256.706 201.895C255.702 172.295 270.437 157.406 270.586 157.259C270.722 157.125 270.724 156.906 270.589 156.77C270.454 156.634 270.235 156.632 270.1 156.767C269.948 156.916 255 172.019 256.013 201.92C256.02 202.106 256.174 202.253 256.36 202.253Z" fill="white"/>
<path d="M262.959 205.7L258.892 203.351C258.892 203.351 258.2 194.951 262.318 184.747C265.903 175.864 274.799 168.494 279.274 170.042C283.748 171.591 283.637 174.764 281.455 178.092C279.274 181.42 266.003 189.353 262.959 205.7Z" fill="#338E63" fill-opacity="0.8"/>
<path d="M260.814 204.807H260.816C261.007 204.806 261.161 204.651 261.16 204.46C261.08 185.744 278.653 173.095 278.83 172.97C278.986 172.859 279.023 172.644 278.912 172.487C278.803 172.332 278.588 172.293 278.43 172.405C278.25 172.532 260.386 185.392 260.468 204.463C260.469 204.653 260.623 204.807 260.814 204.807Z" fill="white"/>
<path d="M47.796 196.288L53.0736 192.726C53.0736 192.726 55.3968 178.898 53.2386 166.753C50.2038 149.676 38.427 143.993 34.2246 145.778C30.0222 147.562 29.124 152.656 36.9648 162.405C41.5908 168.157 47.634 180.389 47.796 196.288Z" fill="#338E63" fill-opacity="0.8"/>
<g opacity="0.15">
<path d="M47.796 196.288L53.0736 192.726C53.0736 192.726 55.3968 178.898 53.2386 166.753C50.2038 149.676 38.427 143.993 34.2246 145.778C30.0222 147.562 29.124 152.656 36.9648 162.405C41.5908 168.157 47.634 180.389 47.796 196.288Z" fill="black" fill-opacity="0.8"/>
</g>
<path d="M49.6086 189.448C49.5906 189.448 49.5732 189.447 49.5558 189.445C49.3464 189.419 49.1958 189.23 49.221 189.02C51.1272 172.941 44.3394 155.497 36.957 148.556C36.8034 148.412 36.7956 148.169 36.9408 148.015C37.086 147.863 37.3278 147.854 37.4814 147.999C44.9982 155.066 51.9156 172.794 49.9806 189.11C49.9572 189.302 49.7958 189.444 49.6086 189.448Z" fill="white"/>
<path d="M33.972 205.613C33.1344 206.116 30.6858 204.299 30.0084 203.863C28.8486 203.117 27.9 202.047 27.2598 200.828C26.5152 199.41 26.3046 197.879 26.4984 196.291C26.5992 195.467 26.8134 194.662 27.027 193.86C27.237 193.073 27.447 192.286 27.657 191.498C27.864 190.721 28.0734 189.917 27.9558 189.122C27.7194 187.52 26.2716 186.422 24.9564 185.476C23.502 184.43 21.9822 183.043 21.9528 181.108C21.93 179.616 22.6764 178.215 23.5782 177.026C24.4806 175.837 25.5576 174.782 26.3694 173.529C26.9538 172.627 27.4032 171.573 27.2844 170.505C27.2106 169.841 26.9232 169.22 26.5938 168.64C25.8864 167.394 24.9636 166.258 24.4662 164.914C23.9688 163.571 24.0036 161.887 25.041 160.898C25.8924 160.087 27.1782 159.952 28.3524 160.006C29.439 160.057 30.5088 160.526 31.4682 161.036C34.5714 162.683 36.3942 166.286 39.6774 167.537C40.944 168.019 42.3228 168.104 43.6392 168.425C44.9556 168.746 46.3044 169.389 46.9344 170.589C48.1764 172.955 46.014 175.942 46.9038 178.461C47.691 180.691 49.8882 181.507 51.1518 183.506C51.7044 184.38 51.8478 185.4 51.7812 186.433C51.6684 188.18 51.438 189.464 50.6388 191.42C49.9782 193.037 48.0162 196.142 48.0162 196.142C48.0162 196.142 34.0998 205.535 33.972 205.613Z" fill="#338E63" fill-opacity="0.8"/>
<path d="M42.0828 200.638C42.0774 200.638 42.0726 200.638 42.0726 200.638C41.856 200.633 41.6892 200.458 41.6934 200.247C42.0318 185.057 34.557 168.438 29.262 163.67C29.1054 163.529 29.0922 163.288 29.2338 163.13C29.3754 162.974 29.6166 162.962 29.7738 163.102C35.175 167.966 42.801 184.86 42.4584 200.264C42.453 200.47 42.2868 200.633 42.0828 200.638Z" fill="white"/>
<path d="M39.2844 182.132C39.2472 182.133 39.2088 182.129 39.1716 182.117C34.266 180.704 28.1832 180.556 28.1226 180.554C27.9114 180.55 27.744 180.374 27.7482 180.163C27.753 179.953 27.9096 179.783 28.1394 179.789C28.2012 179.791 34.3806 179.941 39.3834 181.382C39.5862 181.441 39.7038 181.652 39.645 181.855C39.5964 182.021 39.4476 182.129 39.2844 182.132Z" fill="white"/>
<path d="M144.142 0.225529C145.191 0.457729 146.179 0.829129 147.107 1.33853C148.036 1.84853 148.822 2.47313 149.466 3.21233C150.11 3.95093 150.574 4.79093 150.856 5.73173C151.139 6.67133 151.16 7.68893 150.918 8.78153C150.721 9.67373 150.409 10.4189 149.985 11.0147C149.56 11.6111 149.072 12.1235 148.521 12.5507C147.97 12.9785 147.389 13.3535 146.78 13.6745C146.17 13.9961 145.593 14.3015 145.051 14.5895C144.506 14.8787 144.014 15.1979 143.575 15.5447C143.135 15.8921 142.828 16.3043 142.652 16.7801C142.553 17.0159 142.406 17.2049 142.211 17.3483C142.015 17.4929 141.794 17.5367 141.549 17.4833L139.006 16.9199C138.76 16.8659 138.562 16.7291 138.413 16.5077C138.263 16.2875 138.226 16.0577 138.302 15.8171C138.54 14.9567 138.892 14.2331 139.362 13.6469C139.831 13.0607 140.352 12.5561 140.926 12.1325C141.499 11.7095 142.095 11.3447 142.713 11.0369C143.33 10.7285 143.906 10.4291 144.439 10.1375C144.971 9.84653 145.426 9.53693 145.802 9.21113C146.179 8.88533 146.419 8.48753 146.522 8.01893C146.71 7.17173 146.508 6.39533 145.915 5.69033C145.322 4.98593 144.434 4.50293 143.252 4.24073C141.356 3.82073 139.751 4.46033 138.439 6.15893C138.274 6.37973 138.115 6.53753 137.966 6.63293C137.816 6.72893 137.596 6.74453 137.305 6.67973L134.595 6.07973C134.395 6.03533 134.236 5.92973 134.121 5.76413C134.006 5.59853 133.973 5.40353 134.022 5.18033C134.216 4.40453 134.634 3.66053 135.271 2.94713C135.908 2.23433 136.685 1.63433 137.6 1.14593C138.516 0.658729 139.54 0.317328 140.671 0.123528C141.803 -0.0696724 142.96 -0.0366712 144.142 0.225529ZM141.272 19.5287C141.517 19.5827 141.71 19.7189 141.848 19.9373C141.987 20.1551 142.03 20.3867 141.975 20.6321L141.323 23.5763C141.268 23.8223 141.133 24.0143 140.914 24.1529C140.696 24.2927 140.465 24.3347 140.22 24.2801L137.342 23.6429C137.096 23.5877 136.904 23.4527 136.765 23.2337C136.626 23.0159 136.583 22.7849 136.638 22.5389L137.29 19.5941C137.345 19.3493 137.48 19.1567 137.699 19.0175C137.917 18.8795 138.148 18.8363 138.394 18.8909L141.272 19.5287Z" fill="#338E63" fill-opacity="0.8"/>
<path d="M147.346 28.3715C148.077 28.2521 148.806 28.2359 149.532 28.3259C150.257 28.4147 150.921 28.6133 151.523 28.9223C152.125 29.2325 152.638 29.6519 153.06 30.1823C153.483 30.7133 153.755 31.3601 153.88 32.1215C153.982 32.7443 153.973 33.3023 153.853 33.7925C153.734 34.2833 153.552 34.7369 153.308 35.1527C153.065 35.5679 152.789 35.9567 152.48 36.3185C152.172 36.6809 151.88 37.0235 151.606 37.3481C151.331 37.6727 151.097 38.0033 150.904 38.3381C150.711 38.6729 150.619 39.0155 150.629 39.3653C150.625 39.5423 150.579 39.7013 150.492 39.8435C150.403 39.9857 150.272 40.0709 150.102 40.0991L148.327 40.3889C148.156 40.4171 147.994 40.3793 147.841 40.2761C147.688 40.1735 147.605 40.0355 147.593 39.8615C147.526 39.2489 147.566 38.6957 147.718 38.1989C147.868 37.7033 148.073 37.2455 148.332 36.8279C148.591 36.4103 148.88 36.0233 149.197 35.6675C149.515 35.3123 149.807 34.9727 150.074 34.6487C150.34 34.3265 150.553 34.0115 150.711 33.7067C150.868 33.4007 150.921 33.0851 150.868 32.7575C150.771 32.1671 150.442 31.7207 149.881 31.4201C149.32 31.1201 148.628 31.0373 147.803 31.1723C146.48 31.3883 145.615 32.2097 145.209 33.6347C145.159 33.8183 145.098 33.9599 145.026 34.0595C144.955 34.1597 144.817 34.2257 144.615 34.2587L142.725 34.5683C142.584 34.5911 142.456 34.5641 142.339 34.4873C142.222 34.4099 142.152 34.2941 142.126 34.1381C142.052 33.5915 142.129 33.0071 142.356 32.3867C142.581 31.7663 142.926 31.1825 143.388 30.6359C143.85 30.0887 144.419 29.6087 145.094 29.1947C145.771 28.7807 146.521 28.5065 147.346 28.3715ZM150.447 41.4809C150.618 41.4533 150.776 41.4917 150.921 41.5949C151.066 41.6999 151.152 41.8373 151.18 42.0077L151.516 44.0633C151.544 44.2343 151.506 44.3927 151.402 44.5373C151.298 44.6825 151.16 44.7683 150.989 44.7965L148.981 45.1247C148.81 45.1529 148.651 45.1151 148.507 45.0113C148.362 44.9069 148.275 44.7695 148.247 44.5985L147.911 42.5429C147.883 42.3725 147.921 42.2141 148.025 42.0689C148.129 41.9243 148.267 41.8373 148.438 41.8091L150.447 41.4809Z" fill="#338E63" fill-opacity="0.8"/>
<g opacity="0.2">
<path d="M147.346 28.3715C148.077 28.2521 148.806 28.2359 149.532 28.3259C150.257 28.4147 150.921 28.6133 151.523 28.9223C152.125 29.2325 152.638 29.6519 153.06 30.1823C153.483 30.7133 153.755 31.3601 153.88 32.1215C153.982 32.7443 153.973 33.3023 153.853 33.7925C153.734 34.2833 153.552 34.7369 153.308 35.1527C153.065 35.5679 152.789 35.9567 152.48 36.3185C152.172 36.6809 151.88 37.0235 151.606 37.3481C151.331 37.6727 151.097 38.0033 150.904 38.3381C150.711 38.6729 150.619 39.0155 150.629 39.3653C150.625 39.5423 150.579 39.7013 150.492 39.8435C150.403 39.9857 150.272 40.0709 150.102 40.0991L148.327 40.3889C148.156 40.4171 147.994 40.3793 147.841 40.2761C147.688 40.1735 147.605 40.0355 147.593 39.8615C147.526 39.2489 147.566 38.6957 147.718 38.1989C147.868 37.7033 148.073 37.2455 148.332 36.8279C148.591 36.4103 148.88 36.0233 149.197 35.6675C149.515 35.3123 149.807 34.9727 150.074 34.6487C150.34 34.3265 150.553 34.0115 150.711 33.7067C150.868 33.4007 150.921 33.0851 150.868 32.7575C150.771 32.1671 150.442 31.7207 149.881 31.4201C149.32 31.1201 148.628 31.0373 147.803 31.1723C146.48 31.3883 145.615 32.2097 145.209 33.6347C145.159 33.8183 145.098 33.9599 145.026 34.0595C144.955 34.1597 144.817 34.2257 144.615 34.2587L142.725 34.5683C142.584 34.5911 142.456 34.5641 142.339 34.4873C142.222 34.4099 142.152 34.2941 142.126 34.1381C142.052 33.5915 142.129 33.0071 142.356 32.3867C142.581 31.7663 142.926 31.1825 143.388 30.6359C143.85 30.0887 144.419 29.6087 145.094 29.1947C145.771 28.7807 146.521 28.5065 147.346 28.3715ZM150.447 41.4809C150.618 41.4533 150.776 41.4917 150.921 41.5949C151.066 41.6999 151.152 41.8373 151.18 42.0077L151.516 44.0633C151.544 44.2343 151.506 44.3927 151.402 44.5373C151.298 44.6825 151.16 44.7683 150.989 44.7965L148.981 45.1247C148.81 45.1529 148.651 45.1151 148.507 45.0113C148.362 44.9069 148.275 44.7695 148.247 44.5985L147.911 42.5429C147.883 42.3725 147.921 42.2141 148.025 42.0689C148.129 41.9243 148.267 41.8373 148.438 41.8091L150.447 41.4809Z" fill="black" fill-opacity="0.8"/>
</g>
<path d="M164.311 31.6019C164.478 31.7213 164.579 31.8851 164.615 32.0933C164.65 32.3021 164.608 32.4899 164.489 32.6573L163.06 34.6679C162.941 34.8359 162.777 34.9373 162.569 34.9721C162.36 35.0081 162.172 34.9655 162.005 34.8467L160.04 33.4499C159.872 33.3305 159.772 33.1673 159.736 32.9591C159.7 32.7497 159.743 32.5625 159.862 32.3951L161.292 30.3839C161.41 30.2165 161.574 30.1151 161.783 30.0797C161.991 30.0443 162.178 30.0863 162.346 30.2057L164.311 31.6019ZM172.623 17.9747C173.338 18.4829 173.965 19.0775 174.502 19.7573C175.039 20.4377 175.433 21.1583 175.682 21.9197C175.931 22.6823 176.013 23.4617 175.927 24.2603C175.84 25.0595 175.532 25.8317 175.001 26.5781C174.568 27.1877 174.097 27.6491 173.588 27.9629C173.078 28.2773 172.547 28.5077 171.996 28.6541C171.444 28.8011 170.887 28.8983 170.327 28.9469C169.764 28.9943 169.233 29.0405 168.731 29.0849C168.23 29.1293 167.758 29.2127 167.317 29.3345C166.874 29.4557 166.512 29.6687 166.228 29.9711C166.078 30.1169 165.907 30.2123 165.714 30.2585C165.521 30.3047 165.341 30.2681 165.173 30.1487L163.436 28.9139C163.269 28.7951 163.163 28.6289 163.121 28.4147C163.078 28.2011 163.123 28.0157 163.258 27.8585C163.711 27.2861 164.207 26.8535 164.747 26.5613C165.287 26.2697 165.841 26.0549 166.408 25.9187C166.974 25.7825 167.54 25.6973 168.104 25.6625C168.667 25.6271 169.196 25.5845 169.691 25.5347C170.185 25.4849 170.625 25.3973 171.013 25.2713C171.4 25.1453 171.708 24.9227 171.935 24.6029C172.347 24.0239 172.441 23.3753 172.219 22.6553C171.997 21.9359 171.482 21.2891 170.676 20.7155C169.381 19.7951 167.968 19.7657 166.438 20.6273C166.243 20.7407 166.073 20.8103 165.931 20.8343C165.787 20.8583 165.617 20.8001 165.419 20.6597L163.568 19.3439C163.431 19.2467 163.345 19.1171 163.311 18.9557C163.277 18.7931 163.315 18.6371 163.422 18.4847C163.816 17.9621 164.366 17.5337 165.074 17.1995C165.782 16.8653 166.558 16.6607 167.404 16.5851C168.248 16.5095 169.127 16.5779 170.041 16.7927C170.954 17.0063 171.815 17.4005 172.623 17.9747Z" fill="#338E63" fill-opacity="0.8"/>
<g opacity="0.6">
<path d="M164.311 31.6019C164.478 31.7213 164.579 31.8851 164.615 32.0933C164.65 32.3021 164.608 32.4899 164.489 32.6573L163.06 34.6679C162.941 34.8359 162.777 34.9373 162.569 34.9721C162.36 35.0081 162.172 34.9655 162.005 34.8467L160.04 33.4499C159.872 33.3305 159.772 33.1673 159.736 32.9591C159.7 32.7497 159.743 32.5625 159.862 32.3951L161.292 30.3839C161.41 30.2165 161.574 30.1151 161.783 30.0797C161.991 30.0443 162.178 30.0863 162.346 30.2057L164.311 31.6019ZM172.623 17.9747C173.338 18.4829 173.965 19.0775 174.502 19.7573C175.039 20.4377 175.433 21.1583 175.682 21.9197C175.931 22.6823 176.013 23.4617 175.927 24.2603C175.84 25.0595 175.532 25.8317 175.001 26.5781C174.568 27.1877 174.097 27.6491 173.588 27.9629C173.078 28.2773 172.547 28.5077 171.996 28.6541C171.444 28.8011 170.887 28.8983 170.327 28.9469C169.764 28.9943 169.233 29.0405 168.731 29.0849C168.23 29.1293 167.758 29.2127 167.317 29.3345C166.874 29.4557 166.512 29.6687 166.228 29.9711C166.078 30.1169 165.907 30.2123 165.714 30.2585C165.521 30.3047 165.341 30.2681 165.173 30.1487L163.436 28.9139C163.269 28.7951 163.163 28.6289 163.121 28.4147C163.078 28.2011 163.123 28.0157 163.258 27.8585C163.711 27.2861 164.207 26.8535 164.747 26.5613C165.287 26.2697 165.841 26.0549 166.408 25.9187C166.974 25.7825 167.54 25.6973 168.104 25.6625C168.667 25.6271 169.196 25.5845 169.691 25.5347C170.185 25.4849 170.625 25.3973 171.013 25.2713C171.4 25.1453 171.708 24.9227 171.935 24.6029C172.347 24.0239 172.441 23.3753 172.219 22.6553C171.997 21.9359 171.482 21.2891 170.676 20.7155C169.381 19.7951 167.968 19.7657 166.438 20.6273C166.243 20.7407 166.073 20.8103 165.931 20.8343C165.787 20.8583 165.617 20.8001 165.419 20.6597L163.568 19.3439C163.431 19.2467 163.345 19.1171 163.311 18.9557C163.277 18.7931 163.315 18.6371 163.422 18.4847C163.816 17.9621 164.366 17.5337 165.074 17.1995C165.782 16.8653 166.558 16.6607 167.404 16.5851C168.248 16.5095 169.127 16.5779 170.041 16.7927C170.954 17.0063 171.815 17.4005 172.623 17.9747Z" fill="white"/>
</g>
<path d="M199.602 216.799H102.323L97 60.8419H194.279L199.602 216.799Z" fill="#338E63" fill-opacity="0.8"/>
<path d="M204.459 211.957H107.18L101.857 56H199.136L204.459 211.957Z" fill="#338E63" fill-opacity="0.8"/>
<path opacity="0.3" d="M204.459 211.957H107.18L101.857 56H199.136L204.459 211.957Z" fill="white"/>
<path d="M171.872 120.173C182.288 109.611 181.845 92.3397 170.882 81.597C159.92 70.8543 142.589 70.708 132.174 81.2702C121.758 91.8325 122.201 109.104 133.163 119.846C144.126 130.589 161.456 130.735 171.872 120.173Z" fill="#338E63" fill-opacity="0.8"/>
<path d="M174.604 100.731C174.746 104.447 173.933 108.138 172.24 111.453C170.416 115.024 167.63 118.018 164.195 120.1C160.76 122.182 156.811 123.269 152.791 123.24C148.675 123.216 144.637 122.115 141.082 120.046C137.527 117.977 134.579 115.014 132.534 111.453C130.63 108.188 129.566 104.505 129.438 100.731C129.311 97.8046 129.783 94.8833 130.824 92.1444C131.865 89.4055 133.454 86.9063 135.494 84.7985C137.535 82.6907 139.983 81.0184 142.692 79.8831C145.4 78.7479 148.312 78.1734 151.25 78.1947C157.303 78.2374 163.106 80.6027 167.455 84.7994C171.804 88.9962 174.364 94.7016 174.604 100.731Z" fill="white"/>
<path opacity="0.6" d="M172.24 111.453C170.416 115.024 167.63 118.018 164.195 120.1C160.76 122.182 156.811 123.269 152.791 123.24C148.675 123.216 144.637 122.115 141.082 120.046C137.527 117.977 134.579 115.014 132.534 111.453C138.325 107.52 145.175 105.429 152.182 105.457C159.311 105.467 166.282 107.551 172.24 111.453Z" fill="#338E63" fill-opacity="0.8"/>
<path opacity="0.6" d="M159.056 100.178C162.886 96.2942 162.723 89.9434 158.692 85.9932C154.661 82.043 148.289 81.9893 144.459 85.8731C140.629 89.757 140.792 96.1077 144.823 100.058C148.854 104.008 155.226 104.062 159.056 100.178Z" fill="#338E63" fill-opacity="0.8"/>
<path d="M184.921 155.48H122.861L122.443 143.188H184.496L184.921 155.48Z" fill="white"/>
<path d="M185.667 177.449H123.615L123.19 165.157H185.25L185.667 177.449Z" fill="white"/>
<path d="M161.718 166.85L146.763 168.899C146.62 168.916 146.482 168.962 146.358 169.035C146.234 169.108 146.127 169.205 146.043 169.321C145.958 169.437 145.899 169.57 145.869 169.71C145.838 169.85 145.837 169.995 145.865 170.135L147.825 180.126C147.888 180.42 148.06 180.679 148.306 180.851C148.553 181.023 148.855 181.096 149.154 181.055L164.109 179.006C164.252 178.989 164.389 178.943 164.514 178.87C164.638 178.798 164.746 178.701 164.831 178.585C164.916 178.469 164.976 178.336 165.007 178.196C165.038 178.056 165.04 177.911 165.013 177.77L163.047 167.779C162.984 167.486 162.812 167.227 162.565 167.055C162.319 166.882 162.016 166.809 161.718 166.85ZM157.422 176.971L154.682 177.333L154.408 174.11C154.126 173.989 153.878 173.801 153.684 173.563C153.491 173.325 153.359 173.044 153.298 172.744C153.248 172.512 153.247 172.272 153.295 172.039C153.344 171.807 153.44 171.587 153.579 171.394C153.718 171.201 153.896 171.039 154.101 170.919C154.306 170.798 154.535 170.722 154.771 170.695C155.265 170.624 155.768 170.743 156.176 171.029C156.585 171.314 156.869 171.745 156.97 172.232C157.031 172.519 157.015 172.817 156.922 173.095C156.829 173.374 156.664 173.623 156.443 173.816L157.422 176.971Z" fill="#338E63" fill-opacity="0.8"/>
<path d="M160.245 166.311C159.98 166.348 159.711 166.283 159.492 166.129C159.273 165.976 159.121 165.746 159.067 165.485L158.875 164.508C158.601 163.175 157.852 161.987 156.766 161.163C155.68 160.339 154.331 159.936 152.969 160.028C152.282 160.066 151.611 160.251 151.001 160.571C150.392 160.891 149.859 161.338 149.438 161.882C149.018 162.426 148.719 163.053 148.564 163.722C148.408 164.391 148.399 165.085 148.537 165.758L148.756 166.885C148.781 167.009 148.779 167.138 148.751 167.262C148.724 167.386 148.671 167.503 148.595 167.606C148.52 167.708 148.424 167.794 148.314 167.858C148.204 167.922 148.082 167.963 147.955 167.977C147.69 168.014 147.421 167.949 147.202 167.796C146.983 167.642 146.831 167.412 146.777 167.151L146.592 166.195C146.403 165.308 146.397 164.393 146.573 163.503C146.749 162.614 147.104 161.77 147.616 161.021C148.128 160.272 148.787 159.634 149.553 159.145C150.318 158.656 151.175 158.327 152.072 158.177C154.016 157.852 156.011 158.284 157.644 159.385C159.276 160.486 160.421 162.172 160.841 164.091L161.06 165.218C161.086 165.344 161.084 165.474 161.056 165.599C161.028 165.725 160.974 165.843 160.897 165.946C160.82 166.049 160.722 166.135 160.61 166.198C160.498 166.26 160.373 166.299 160.245 166.311Z" fill="#338E63" fill-opacity="0.8"/>
<path d="M175.426 194.665H135.035L134.761 186.662H175.152L175.426 194.665Z" fill="#338E63" fill-opacity="0.8"/>
<path d="M155.915 149.334C155.927 149.626 155.88 149.917 155.776 150.19C155.671 150.463 155.513 150.712 155.309 150.922C155.105 151.132 154.861 151.299 154.591 151.412C154.32 151.525 154.03 151.583 153.737 151.58C153.133 151.577 152.554 151.342 152.12 150.923C151.686 150.505 151.431 149.935 151.408 149.334C151.395 149.042 151.441 148.75 151.545 148.476C151.649 148.203 151.808 147.953 152.012 147.743C152.216 147.533 152.46 147.366 152.731 147.253C153.002 147.14 153.293 147.084 153.586 147.087C154.189 147.092 154.768 147.328 155.201 147.746C155.635 148.164 155.891 148.733 155.915 149.334Z" fill="black" fill-opacity="0.8"/>
<path d="M146.228 149.334C146.241 149.626 146.193 149.917 146.089 150.19C145.985 150.463 145.826 150.712 145.622 150.922C145.418 151.132 145.174 151.299 144.904 151.412C144.634 151.525 144.343 151.583 144.05 151.58C143.445 151.577 142.865 151.342 142.43 150.924C141.995 150.505 141.739 149.936 141.714 149.334C141.702 149.042 141.749 148.75 141.854 148.477C141.958 148.204 142.117 147.955 142.32 147.745C142.524 147.535 142.768 147.368 143.039 147.255C143.309 147.142 143.599 147.085 143.892 147.087C144.497 147.09 145.077 147.325 145.512 147.744C145.947 148.162 146.204 148.732 146.228 149.334Z" fill="black" fill-opacity="0.8"/>
<path d="M136.514 149.334C136.527 149.626 136.481 149.918 136.377 150.191C136.273 150.465 136.114 150.714 135.91 150.924C135.706 151.135 135.461 151.301 135.191 151.414C134.92 151.527 134.629 151.584 134.336 151.58C133.732 151.576 133.154 151.34 132.72 150.921C132.287 150.503 132.031 149.935 132.007 149.334C131.995 149.042 132.042 148.75 132.146 148.477C132.251 148.204 132.409 147.955 132.613 147.745C132.817 147.535 133.061 147.368 133.331 147.255C133.602 147.142 133.892 147.085 134.185 147.087C134.789 147.09 135.368 147.325 135.802 147.744C136.236 148.163 136.491 148.732 136.514 149.334Z" fill="black" fill-opacity="0.8"/>
<path d="M165.643 149.334C165.656 149.627 165.609 149.92 165.504 150.194C165.4 150.469 165.24 150.719 165.034 150.929C164.829 151.14 164.582 151.306 164.31 151.418C164.038 151.53 163.745 151.585 163.451 151.58C162.848 151.576 162.269 151.34 161.836 150.921C161.402 150.503 161.146 149.935 161.122 149.334C161.11 149.042 161.157 148.75 161.261 148.477C161.366 148.204 161.524 147.955 161.728 147.745C161.932 147.535 162.176 147.368 162.446 147.255C162.717 147.142 163.007 147.085 163.3 147.087C163.906 147.086 164.489 147.32 164.926 147.739C165.363 148.158 165.62 148.73 165.643 149.334Z" fill="black" fill-opacity="0.8"/>
<path d="M175.357 149.334C175.369 149.626 175.322 149.917 175.218 150.19C175.113 150.463 174.955 150.712 174.751 150.922C174.547 151.132 174.303 151.299 174.033 151.412C173.762 151.525 173.472 151.583 173.179 151.58C172.574 151.577 171.994 151.342 171.559 150.924C171.124 150.505 170.867 149.936 170.843 149.334C170.831 149.042 170.878 148.75 170.982 148.477C171.087 148.204 171.245 147.955 171.449 147.745C171.653 147.535 171.897 147.368 172.167 147.255C172.438 147.142 172.728 147.085 173.021 147.087C173.626 147.09 174.206 147.325 174.641 147.744C175.076 148.162 175.333 148.732 175.357 149.334Z" fill="black" fill-opacity="0.8"/>
</svg>
