<svg width="42" height="42" viewBox="0 0 42 42" fill="none" xmlns="http://www.w3.org/2000/svg">
<circle cx="21" cy="21" r="21" fill="#D9D9D9"/>
<path d="M21.5 32C22.8807 32 24 30.8807 24 29.5C24 28.1193 22.8807 27 21.5 27C20.1193 27 19 28.1193 19 29.5C19 30.8807 20.1193 32 21.5 32Z" stroke="#71717A" stroke-width="2" stroke-miterlimit="10" stroke-linecap="round" stroke-linejoin="round"/>
<path d="M27.1 24.5C25.7 23 23.7 22 21.5 22C19.3 22 17.3 23 15.9 24.5" stroke="#71717A" stroke-width="2" stroke-miterlimit="10" stroke-linecap="round" stroke-linejoin="round"/>
<path d="M30.6 20.9C28.3 18.5 25.1 17 21.5 17C17.9 17 14.7 18.5 12.4 20.9" stroke="#71717A" stroke-width="2" stroke-miterlimit="10" stroke-linecap="round" stroke-linejoin="round"/>
<path d="M34.1 17.4C30.9 14.1 26.5 12 21.5 12C16.5 12 12.1 14.1 8.90002 17.4" stroke="#71717A" stroke-width="2" stroke-miterlimit="10" stroke-linecap="round" stroke-linejoin="round"/>
</svg>
