<svg width="43" height="42" viewBox="0 0 43 42" fill="none" xmlns="http://www.w3.org/2000/svg">
<circle cx="21.5" cy="21" r="21" fill="#D9D9D9"/>
<g clip-path="url(#clip0_70_1786)">
<path d="M21 32.2187C27.4721 32.2187 32.7187 26.9721 32.7187 20.5C32.7187 14.0279 27.4721 8.78125 21 8.78125C14.5279 8.78125 9.28125 14.0279 9.28125 20.5C9.28125 26.9721 14.5279 32.2187 21 32.2187Z" stroke="#71717A" stroke-width="2" stroke-linecap="round" stroke-linejoin="round"/>
<path d="M24.125 18.9375C24.125 19.5591 23.878 20.1552 23.4385 20.5948C22.999 21.0343 22.4028 21.2812 21.7812 21.2812H19.4375V16.5938H21.7812C22.4028 16.5938 22.999 16.8407 23.4385 17.2802C23.878 17.7198 24.125 18.3159 24.125 18.9375Z" stroke="#71717A" stroke-width="2" stroke-linecap="round" stroke-linejoin="round"/>
<path d="M19.4375 25.9687V21.2812" stroke="#71717A" stroke-width="2" stroke-linecap="round" stroke-linejoin="round"/>
</g>
<defs>
<clipPath id="clip0_70_1786">
<rect width="25" height="25" fill="white" transform="translate(8.5 8)"/>
</clipPath>
</defs>
</svg>
