<svg width="42" height="42" viewBox="0 0 42 42" fill="none" xmlns="http://www.w3.org/2000/svg">
<circle cx="21" cy="21" r="21" fill="#D9D9D9"/>
<g clip-path="url(#clip0_916_723)">
<path d="M19.6667 16.8534L20.92 21.0001H24.68L21.6534 23.1601L22.8934 27.1734L19.6667 24.7201L16.44 27.1734L17.68 23.1601L14.6534 21.0001H18.4134L19.6667 16.8534ZM16.44 18.3334H6.33337L14.56 24.2134L11.44 34.3334L19.6667 28.0801L27.9067 34.3334L24.7734 24.2134L33 18.3334H22.8934L19.6667 7.66675L16.44 18.3334ZM33.48 34.3334L31 26.3201L36.5734 22.3334H31.9867L27.88 25.2667L29.8267 31.5601L33.48 34.3334ZM27.6667 15.6667L25.24 7.66675L23.8534 12.2667L24.88 15.6667H27.6667Z" fill="#7E7E86"/>
</g>
<defs>
<clipPath id="clip0_916_723">
<rect width="32" height="32" fill="white" transform="translate(5 5)"/>
</clipPath>
</defs>
</svg>
