<svg width="43" height="42" viewBox="0 0 43 42" fill="none" xmlns="http://www.w3.org/2000/svg">
<circle cx="21.5" cy="21" r="21" fill="#D9D9D9"/>
<g clip-path="url(#clip0_70_1794)">
<path d="M17.5938 10.5625H16.0312V18.375H17.5938V10.5625Z" fill="#71717A"/>
<path d="M19.9375 17.5938C19.9375 18.4226 19.6083 19.2174 19.0222 19.8035C18.4362 20.3895 17.6413 20.7188 16.8125 20.7188C15.9837 20.7188 15.1888 20.3895 14.6028 19.8035C14.0167 19.2174 13.6875 18.4226 13.6875 17.5938V10.5625H12.125V17.5938C12.1261 18.7007 12.5189 19.7715 13.2339 20.6166C13.9488 21.4617 14.9398 22.0264 16.0312 22.2109V32.4375H17.5938V22.2109C18.6852 22.0264 19.6762 21.4617 20.3911 20.6166C21.1061 19.7715 21.4989 18.7007 21.5 17.5938V10.5625H19.9375V17.5938Z" fill="#71717A"/>
<path d="M26.1875 10.5625H25.4062V32.4375H26.9688V24.625H29.3125C29.7269 24.625 30.1243 24.4604 30.4174 24.1673C30.7104 23.8743 30.875 23.4769 30.875 23.0625V15.25C30.8992 14.6279 30.7944 14.0076 30.5674 13.428C30.3404 12.8483 29.996 12.3219 29.5558 11.8817C29.1156 11.4415 28.5892 11.0971 28.0095 10.8701C27.4299 10.643 26.8095 10.5383 26.1875 10.5625ZM29.3125 23.0625H26.9688V12.1953C29.2188 12.6328 29.3125 14.9609 29.3125 15.25V23.0625Z" fill="#71717A"/>
</g>
<defs>
<clipPath id="clip0_70_1794">
<rect width="25" height="25" fill="white" transform="translate(9 9)"/>
</clipPath>
</defs>
</svg>
