<svg width="317" height="25" viewBox="0 0 317 25" fill="none" xmlns="http://www.w3.org/2000/svg">
<path d="M0 2.43994H316.67" stroke="white" stroke-width="3"/>
<path d="M0 22.61H316.67" stroke="white" stroke-width="3"/>
<path d="M21.216 17V6.02684H28.0826V8.11376H23.69V10.3185H27.4262V12.3886H23.69V14.9131H28.2509V17H21.216ZM29.3255 17L32.3717 11.3619L29.5106 6.02684H32.2708L33.2301 8.09693C33.4825 8.60183 33.7181 9.17405 34.0211 9.86408H34.0884C34.3409 9.17405 34.5765 8.60183 34.7953 8.09693L35.6704 6.02684H38.3127L35.4685 11.4798L38.4979 17H35.7377L34.6438 14.7616C34.3745 14.1894 34.1221 13.634 33.8191 12.9608H33.7518C33.4994 13.634 33.2469 14.1894 33.0113 14.7616L31.9847 17H29.3255ZM39.9853 17V6.02684H43.7553C46.162 6.02684 48.1142 6.902 48.1142 9.56114C48.1142 12.1361 46.1451 13.2806 43.8226 13.2806H42.4594V17H39.9853ZM42.4594 11.3115H43.6711C45.0343 11.3115 45.6907 10.7056 45.6907 9.56114C45.6907 8.4167 44.9502 7.99595 43.6038 7.99595H42.4594V11.3115ZM50.011 17V6.02684H56.8777V8.11376H52.485V10.3185H56.2213V12.3886H52.485V14.9131H57.046V17H50.011ZM59.2314 17V6.02684H63.1864C65.509 6.02684 67.4108 6.83468 67.4108 9.44333C67.4108 11.059 66.6366 12.0856 65.4585 12.6074L67.9493 17H65.1724L63.0686 13.0449H61.7054V17H59.2314ZM61.7054 11.0758H62.9845C64.2804 11.0758 64.9872 10.5204 64.9872 9.44333C64.9872 8.36621 64.2804 7.99595 62.9845 7.99595H61.7054V11.0758ZM69.5529 17V6.02684H72.0269V17H69.5529ZM74.615 17V6.02684H81.4817V8.11376H77.0891V10.3185H80.8253V12.3886H77.0891V14.9131H81.65V17H74.615ZM83.8354 17V6.02684H86.3767L89.2378 11.4798L90.3149 13.9033H90.3823C90.2813 12.742 90.0793 11.1936 90.0793 9.89774V6.02684H92.4355V17H89.8942L87.0331 11.5302L85.956 9.14039H85.8886C85.9896 10.3521 86.1916 11.8164 86.1916 13.1123V17H83.8354ZM99.6058 17.202C96.8288 17.202 94.5063 15.2665 94.5063 11.5807C94.5063 7.94546 96.913 5.82488 99.6899 5.82488C101.104 5.82488 102.248 6.49808 102.989 7.25543L101.676 8.83745C101.12 8.33255 100.531 7.96229 99.7404 7.96229C98.2425 7.96229 97.0476 9.29186 97.0476 11.4966C97.0476 13.7518 98.0911 15.0645 99.7067 15.0645C100.599 15.0645 101.306 14.6101 101.844 14.0379L103.157 15.5863C102.248 16.6466 101.036 17.202 99.6058 17.202ZM104.824 17V6.02684H111.69V8.11376H107.298V10.3185H111.034V12.3886H107.298V14.9131H111.859V17H104.824ZM119.551 17V8.11376H116.538V6.02684H125.054V8.11376H122.041V17H119.551ZM126.765 17V6.02684H129.239V10.2512H133.026V6.02684H135.517V17H133.026V12.4222H129.239V17H126.765ZM138.106 17V6.02684H144.972V8.11376H140.58V10.3185H144.316V12.3886H140.58V14.9131H145.141V17H138.106ZM151.671 17L149.635 6.02684H152.176L152.934 11.16C153.068 12.3044 153.237 13.4657 153.371 14.627H153.438C153.657 13.4657 153.876 12.3044 154.095 11.16L155.273 6.02684H157.377L158.555 11.16C158.774 12.2708 158.992 13.4489 159.211 14.627H159.278C159.43 13.4489 159.581 12.2876 159.733 11.16L160.49 6.02684H162.863L160.911 17H157.797L156.72 12.0183C156.535 11.1768 156.401 10.2848 156.283 9.47699H156.215C156.081 10.2848 155.946 11.1768 155.761 12.0183L154.734 17H151.671ZM168.846 17.202C165.884 17.202 163.864 15.0477 163.864 11.4629C163.864 7.87814 165.884 5.82488 168.846 5.82488C171.808 5.82488 173.828 7.89497 173.828 11.4629C173.828 15.0477 171.808 17.202 168.846 17.202ZM168.846 15.0645C170.344 15.0645 171.286 13.6677 171.286 11.4629C171.286 9.27503 170.344 7.96229 168.846 7.96229C167.348 7.96229 166.406 9.27503 166.406 11.4629C166.406 13.6677 167.348 15.0645 168.846 15.0645ZM175.891 17V6.02684H179.846C182.168 6.02684 184.07 6.83468 184.07 9.44333C184.07 11.059 183.296 12.0856 182.118 12.6074L184.609 17H181.832L179.728 13.0449H178.365V17H175.891ZM178.365 11.0758H179.644C180.94 11.0758 181.647 10.5204 181.647 9.44333C181.647 8.36621 180.94 7.99595 179.644 7.99595H178.365V11.0758ZM186.212 17V6.02684H188.686V14.9131H193.029V17H186.212ZM194.923 17V6.02684H198.02C201.369 6.02684 203.523 7.69301 203.523 11.4629C203.523 15.2328 201.369 17 198.155 17H194.923ZM197.397 14.9972H197.868C199.737 14.9972 200.982 14.0884 200.982 11.4629C200.982 8.83745 199.737 8.02961 197.868 8.02961H197.397V14.9972ZM209.952 17L207.915 6.02684H210.457L211.214 11.16C211.349 12.3044 211.517 13.4657 211.652 14.627H211.719C211.938 13.4657 212.157 12.3044 212.375 11.16L213.553 6.02684H215.657L216.835 11.16C217.054 12.2708 217.273 13.4489 217.492 14.627H217.559C217.71 13.4489 217.862 12.2876 218.013 11.16L218.771 6.02684H221.144L219.191 17H216.078L215.001 12.0183C214.816 11.1768 214.681 10.2848 214.563 9.47699H214.496C214.361 10.2848 214.227 11.1768 214.041 12.0183L213.015 17H209.952ZM222.666 17V6.02684H225.14V17H222.666ZM229.866 17V8.11376H226.853V6.02684H235.369V8.11376H232.357V17H229.866ZM237.08 17V6.02684H239.554V10.2512H243.341V6.02684H245.832V17H243.341V12.4222H239.554V17H237.08ZM256.116 17.202C253.271 17.202 251.723 15.6031 251.723 11.9173V6.02684H254.214V12.1698C254.214 14.324 254.887 15.0645 256.116 15.0645C257.344 15.0645 258.051 14.324 258.051 12.1698V6.02684H260.441V11.9173C260.441 15.6031 258.943 17.202 256.116 17.202ZM266.168 17.202C264.737 17.202 263.222 16.6634 262.112 15.6199L263.525 13.9201C264.316 14.5933 265.326 15.0645 266.235 15.0645C267.262 15.0645 267.767 14.6606 267.767 14.0043C267.767 13.3142 267.144 13.0954 266.184 12.6915L264.754 12.0856C263.626 11.6312 262.549 10.6887 262.549 9.0899C262.549 7.27226 264.165 5.82488 266.454 5.82488C267.716 5.82488 269.046 6.32978 269.988 7.27226L268.726 8.83745C268.002 8.28206 267.329 7.96229 266.454 7.96229C265.595 7.96229 265.057 8.33255 265.057 8.95526C265.057 9.62846 265.781 9.86408 266.723 10.2512L268.137 10.8234C269.466 11.3619 270.308 12.2539 270.308 13.8023C270.308 15.6199 268.793 17.202 266.168 17.202Z" fill="white"/>
</svg>
