<svg width="155" height="155" viewBox="0 0 155 155" fill="none" xmlns="http://www.w3.org/2000/svg">
<circle cx="79.1848" cy="73.2881" r="52.2283" fill="#338E63"/>
<path fill-rule="evenodd" clip-rule="evenodd" d="M92.5242 61.8964L79.606 56.5409C79.2824 56.4067 78.9186 56.4067 78.5951 56.5409L65.6769 61.8964C65.1849 62.1005 64.8641 62.5801 64.8641 63.112V69.6225C64.8641 78.5869 70.2904 86.6507 78.6024 90.0383C78.9217 90.1684 79.2794 90.1684 79.5987 90.0383C87.9106 86.6507 93.337 78.587 93.337 69.6225V63.112C93.337 62.5801 93.0163 62.1005 92.5242 61.8964ZM75.1009 71.8897C76.8882 73.6744 79.7832 73.6744 81.5705 71.8897L84.9959 68.4694C85.601 67.8652 86.5821 67.8651 87.1873 68.4694C87.7925 69.0737 87.7924 70.0533 87.1872 70.6575L79.4314 78.4019C78.8261 79.0063 77.845 79.006 77.24 78.4019L72.9095 74.0778C72.3043 73.4735 72.3043 72.4939 72.9095 71.8897C73.5147 71.2855 74.4958 71.2854 75.1009 71.8897Z" fill="white"/>
<circle cx="146.576" cy="29.4837" r="7.58152" fill="#338E63"/>
<circle cx="38.75" cy="147.419" r="7.58152" fill="#338E63"/>
<circle cx="131.834" cy="129.307" r="3.79076" fill="#338E63"/>
<circle cx="10.5299" cy="79.606" r="3.79076" fill="#338E63"/>
<circle cx="7.58152" cy="7.58152" r="7.58152" fill="#338E63"/>
</svg>
