<svg width="115" height="29" viewBox="0 0 115 29" fill="none" xmlns="http://www.w3.org/2000/svg">
<path d="M4.1125 10.775H0.175V7.5H11.775V10.775H7.85V24H4.1125V10.775Z" fill="#338E63"/>
<path d="M17.8113 20.9273C17.6735 20.7797 17.5357 20.6272 17.4029 20.4648C16.8858 19.8365 16.4646 19.1351 16.153 18.3834C16.9649 18.8754 18.2345 18.6638 19.1054 18.5211C19.3662 18.4818 19.6221 18.4277 19.8829 18.4031C20.1338 18.0586 20.3749 17.7043 20.6062 17.35C20.4024 17.2446 20.232 17.0844 20.1142 16.8875C19.9665 16.5283 20.2962 16.3954 20.5275 16.1543C21.2951 15.4064 19.9518 14.2894 19.9124 13.4972C19.8829 12.9165 20.247 12.2522 19.878 11.7995C19.5729 11.4256 18.943 11.4748 18.633 11.1057C18.5995 11.0707 18.5713 11.0309 18.5494 10.9876C18.4722 10.8138 18.3765 10.6489 18.264 10.4956C18.0081 10.2249 17.5751 10.2397 17.1765 10.2102C17.5678 9.70381 18.0133 9.2418 18.5051 8.83239C19.1553 8.30922 19.8801 7.88628 20.6554 7.57763C20.867 8.17795 21.8807 8.66017 22.5056 8.58636C22.9731 8.52731 23.4651 8.24684 23.8784 8.47319C23.9482 8.50995 24.0101 8.56011 24.0605 8.62081C24.2229 7.67388 24.3215 6.71712 24.3558 5.75699C24.3489 5.65213 24.3489 5.54693 24.3558 5.44207C22.4547 5.33448 20.5634 5.78295 18.913 6.73269C17.2626 7.68243 15.9246 9.0923 15.0624 10.7901C14.2002 12.4878 13.8512 14.4 14.058 16.2928C14.2648 18.1857 15.0184 19.9774 16.2268 21.4489C16.3941 21.6523 16.5664 21.8442 16.7435 22.0247C17.1027 21.6704 17.4619 21.3013 17.8113 20.9273Z" fill="#338E63"/>
<path d="M30.0047 9.29003L29.9456 9.44749C29.3149 11.2426 28.4934 12.9648 27.4951 14.5846C27.5382 14.6529 27.5913 14.7142 27.6526 14.7667C27.8374 14.9138 28.0651 14.9968 28.3013 15.003C28.5374 15.0092 28.7692 14.9384 28.9615 14.8012C29.1337 14.6732 29.2862 14.4813 29.5028 14.4813C29.6313 14.4947 29.7529 14.5461 29.8521 14.6289C30.5426 15.1191 31.131 15.7392 31.5842 16.4545C31.6678 16.6038 31.7667 16.744 31.8794 16.8727C31.6531 17.9879 31.1989 19.0443 30.5452 19.9757C29.8915 20.9072 29.0525 21.6935 28.0807 22.2855C28.0364 22.2313 28.002 22.1723 27.9626 22.1132C27.7909 21.8158 27.7282 21.4678 27.7854 21.1291C27.8248 20.9028 27.9134 20.637 27.7854 20.4599C27.6575 20.2828 27.3377 20.3074 27.0916 20.2778C26.8614 20.2516 26.6477 20.1449 26.4884 19.9765C26.3291 19.8082 26.2343 19.5891 26.2207 19.3577C26.2207 18.7475 26.1715 18.1275 26.1321 17.5173C26.1457 17.3063 26.0769 17.0981 25.9402 16.9367C24.9761 18.212 23.9062 19.4038 22.7418 20.4993C22.4662 20.765 22.1808 21.0159 21.9004 21.2669C22.0929 21.544 22.3388 21.7799 22.6237 21.9607C22.9303 22.1427 23.2738 22.2535 23.6289 22.2851C23.9841 22.3166 24.3418 22.2679 24.6756 22.1428C24.8453 22.0651 25.0264 22.0153 25.2119 21.9951C25.3057 21.9869 25.3996 22.0081 25.4807 22.0557C25.5619 22.1033 25.6262 22.175 25.6647 22.2609C25.6942 22.3691 25.6647 22.497 25.7434 22.5807C25.7973 22.6366 25.8683 22.673 25.9451 22.684C26.0829 22.7234 26.3781 22.8366 26.7127 22.9547C25.6541 23.3581 24.5238 23.5396 23.3921 23.488C22.2604 23.4364 21.1513 23.1527 20.1338 22.6545C19.9272 22.807 19.7156 22.9596 19.5089 23.1023H19.4794C19.2629 23.2499 18.9873 23.432 18.7069 23.5943C20.6845 24.7856 23.0191 25.2406 25.2993 24.8791C27.5795 24.5176 29.659 23.3628 31.1712 21.6183C32.6834 19.8738 33.5312 17.6515 33.5654 15.343C33.5995 13.0346 32.8178 10.7882 31.3578 8.99971C31.0672 8.65078 30.7532 8.32199 30.418 8.01558C30.304 8.44773 30.166 8.8732 30.0047 9.29003Z" fill="#338E63"/>
<path d="M24.0999 10.1905C23.9916 10.2249 23.4012 15.6672 17.9589 21.3358C17.4534 21.8895 16.9038 22.4013 16.3154 22.8661C15.9316 23.0777 15.4888 23.1023 15.3313 22.2412C15.3313 22.6939 15.2378 23.1367 15.5576 23.5255C16.4975 24.6916 18.3919 23.3729 19.2777 22.7578C20.5421 21.8541 21.698 20.8072 22.7221 19.6381C24.8921 17.1188 25.5416 15.2489 27.3278 11.2337L26.0435 9.67383C26.0435 9.67383 25.212 9.86081 24.0999 10.1905Z" fill="#338E63"/>
<path d="M29.4535 1.62364C29.3223 1.43737 29.1354 1.2975 28.9197 1.22411C28.7039 1.15073 28.4705 1.14762 28.2529 1.21522C28.2529 1.21522 28.6269 0.442683 29.1288 0.609985C29.6307 0.777287 29.4535 1.62364 29.4535 1.62364ZM29.3404 0.0195076C28.8483 -0.142874 28.1102 0.747763 27.9478 1.23491L27.7707 1.76634L23.4307 3.89206C23.3621 3.92039 23.3007 3.96388 23.2513 4.01927C23.2019 4.07466 23.1656 4.14051 23.1453 4.2119C23.117 4.27543 23.1041 4.34472 23.1076 4.41417C23.1111 4.48361 23.1309 4.55126 23.1654 4.61163C23.1999 4.672 23.2481 4.7234 23.3062 4.76167C23.3642 4.79994 23.4305 4.824 23.4996 4.8319L26.6291 4.76793L26.0681 8.09429L24.8183 8.46826C24.7472 8.49145 24.6824 8.53054 24.6286 8.58255C24.5749 8.63456 24.5338 8.69812 24.5083 8.76842L24.3508 9.26048C24.3417 9.28583 24.3394 9.31315 24.3442 9.33967C24.349 9.3662 24.3607 9.39097 24.3782 9.41147C24.3957 9.43197 24.4184 9.44747 24.4438 9.45639C24.4692 9.4653 24.4966 9.46732 24.5231 9.46223L26.2797 9.12763L27.4508 10.4365C27.4683 10.4571 27.4908 10.4727 27.5163 10.4817C27.5417 10.4908 27.5691 10.4929 27.5956 10.4879C27.6221 10.4829 27.6468 10.4709 27.6672 10.4533C27.6876 10.4356 27.7029 10.4128 27.7116 10.3873L27.8691 9.89525C27.8935 9.82369 27.8999 9.74726 27.8879 9.67263C27.8759 9.598 27.8458 9.52745 27.8002 9.46715L27.0867 8.48302L28.4989 5.50111L31.3578 7.75969C31.4174 7.79573 31.4847 7.81705 31.5541 7.8219C31.6235 7.82675 31.6931 7.81497 31.7571 7.78755C31.8211 7.76013 31.8776 7.71786 31.922 7.66424C31.9664 7.61061 31.9973 7.54718 32.0123 7.47921C32.0365 7.4102 32.046 7.33686 32.0401 7.26396C32.0341 7.19105 32.0129 7.12021 31.9778 7.05603L29.547 2.38142L29.7242 1.84999C29.8866 1.36284 29.8275 0.201572 29.3404 0.0195076Z" fill="#338E63"/>
<path d="M45.015 7.5H48.7525V17.6375C48.7525 18.9958 48.4858 20.175 47.9525 21.175C47.4192 22.1667 46.6567 22.9375 45.665 23.4875C44.6733 24.0292 43.49 24.3 42.115 24.3C40.7317 24.3 39.54 24.0292 38.54 23.4875C37.54 22.9375 36.7733 22.1667 36.24 21.175C35.715 20.175 35.4525 18.9958 35.4525 17.6375V7.5H39.1775V17.4375C39.1775 18.1875 39.2942 18.8208 39.5275 19.3375C39.7692 19.8542 40.1108 20.2458 40.5525 20.5125C40.9942 20.7708 41.515 20.9 42.115 20.9C42.7067 20.9 43.2192 20.7708 43.6525 20.5125C44.0858 20.2458 44.4192 19.8542 44.6525 19.3375C44.8942 18.8208 45.015 18.1875 45.015 17.4375V7.5ZM51.3205 7.5H58.0455C59.0038 7.5 59.858 7.7 60.608 8.1C61.358 8.5 61.9496 9.07917 62.383 9.8375C62.8246 10.5875 63.0455 11.4833 63.0455 12.525C63.0455 13.5667 62.858 14.4208 62.483 15.0875C62.1163 15.7458 61.6746 16.2417 61.158 16.575C60.6413 16.9 60.1621 17.0958 59.7205 17.1625L63.733 24H59.533L55.958 17.45H55.058V24H51.3205V7.5ZM55.058 14.8625H56.708C57.3746 14.8625 57.958 14.7 58.458 14.375C58.958 14.05 59.208 13.475 59.208 12.65C59.208 11.825 58.9621 11.2542 58.4705 10.9375C57.9788 10.6125 57.3996 10.45 56.733 10.45H55.058V14.8625ZM66.3279 7.5H70.0654V24H66.3279V7.5ZM78.9656 7.2C79.9906 7.2 80.8864 7.3125 81.6531 7.5375C82.4198 7.7625 83.0364 8 83.5031 8.25C83.9698 8.5 84.2531 8.66667 84.3531 8.75L82.5531 11.7625C82.4198 11.6625 82.1906 11.5167 81.8656 11.325C81.5489 11.1333 81.1698 10.9625 80.7281 10.8125C80.2948 10.6625 79.8406 10.5875 79.3656 10.5875C78.7239 10.5875 78.2031 10.7042 77.8031 10.9375C77.4114 11.1625 77.2156 11.5 77.2156 11.95C77.2156 12.2583 77.3198 12.5375 77.5281 12.7875C77.7448 13.0292 78.0698 13.2625 78.5031 13.4875C78.9448 13.7042 79.5031 13.9417 80.1781 14.2C80.7948 14.425 81.3739 14.6917 81.9156 15C82.4573 15.3083 82.9323 15.675 83.3406 16.1C83.7573 16.5167 84.0864 17 84.3281 17.55C84.5698 18.1 84.6906 18.725 84.6906 19.425C84.6906 20.2583 84.5198 20.9833 84.1781 21.6C83.8364 22.2083 83.3698 22.7125 82.7781 23.1125C82.1948 23.5125 81.5281 23.8083 80.7781 24C80.0364 24.2 79.2656 24.3 78.4656 24.3C77.3323 24.3 76.3156 24.1708 75.4156 23.9125C74.5239 23.6542 73.8031 23.375 73.2531 23.075C72.7031 22.775 72.3739 22.575 72.2656 22.475L74.1281 19.3375C74.2281 19.4125 74.4198 19.5333 74.7031 19.7C74.9948 19.8667 75.3489 20.0417 75.7656 20.225C76.1823 20.4 76.6239 20.55 77.0906 20.675C77.5656 20.8 78.0323 20.8625 78.4906 20.8625C79.2573 20.8625 79.8323 20.7167 80.2156 20.425C80.5989 20.125 80.7906 19.7333 80.7906 19.25C80.7906 18.8917 80.6698 18.5708 80.4281 18.2875C80.1864 18.0042 79.8239 17.7375 79.3406 17.4875C78.8573 17.2292 78.2531 16.9583 77.5281 16.675C76.8031 16.3833 76.1239 16.0292 75.4906 15.6125C74.8656 15.1958 74.3573 14.675 73.9656 14.05C73.5739 13.425 73.3781 12.65 73.3781 11.725C73.3781 10.8 73.6364 10 74.1531 9.325C74.6781 8.64167 75.3656 8.11667 76.2156 7.75C77.0739 7.38333 77.9906 7.2 78.9656 7.2ZM90.0173 10.775H86.0798V7.5H97.6798V10.775H93.7548V24H90.0173V10.775ZM103.205 7.5H106.918L113.43 24H109.443L108.243 20.6875H101.893L100.68 24H96.6804L103.205 7.5ZM103.143 17.4125H107.005L105.093 12H105.055L103.143 17.4125Z" fill="#338E63"/>
</svg>
