<svg width="208" height="57" viewBox="0 0 208 57" fill="none" xmlns="http://www.w3.org/2000/svg">
<path d="M7.4025 23.195H0.315V17.3H21.195V23.195H14.13V47H7.4025V23.195Z" fill="white"/>
<path d="M30.7455 42.5297C30.4655 42.2297 30.1855 41.9197 29.9155 41.5897C28.8647 40.3128 28.0087 38.8873 27.3755 37.3597C29.0255 38.3597 31.6055 37.9297 33.3755 37.6397C33.9055 37.5597 34.4255 37.4497 34.9555 37.3997C35.4655 36.6997 35.9555 35.9797 36.4255 35.2597C36.0113 35.0453 35.665 34.7198 35.4255 34.3197C35.1255 33.5897 35.7955 33.3197 36.2655 32.8297C37.8255 31.3097 35.0955 29.0397 35.0155 27.4297C34.9555 26.2497 35.6955 24.8997 34.9455 23.9797C34.3255 23.2197 33.0455 23.3197 32.4155 22.5697C32.3473 22.4985 32.29 22.4176 32.2455 22.3297C32.0887 21.9765 31.8942 21.6412 31.6655 21.3297C31.1455 20.7797 30.2655 20.8097 29.4555 20.7497C30.2506 19.7206 31.156 18.7817 32.1555 17.9497C33.4768 16.8864 34.9498 16.0269 36.5255 15.3997C36.9555 16.6197 39.0155 17.5997 40.2855 17.4497C41.2355 17.3297 42.2355 16.7597 43.0755 17.2197C43.2174 17.2944 43.3431 17.3963 43.4455 17.5197C43.7754 15.5953 43.9759 13.6509 44.0455 11.6997C44.0316 11.4866 44.0316 11.2728 44.0455 11.0597C40.182 10.841 36.3384 11.7524 32.9844 13.6825C29.6305 15.6126 26.9112 18.4779 25.1591 21.9281C23.4069 25.3784 22.6976 29.2643 23.1178 33.1112C23.5381 36.958 25.0697 40.5991 27.5255 43.5897C27.8655 44.003 28.2155 44.393 28.5755 44.7597C29.3055 44.0397 30.0355 43.2897 30.7455 42.5297Z" fill="white"/>
<path d="M55.5256 18.8797L55.4056 19.1997C54.1238 22.8478 52.4542 26.3478 50.4256 29.6397C50.5131 29.7783 50.621 29.903 50.7456 30.0097C51.1212 30.3087 51.5839 30.4772 52.0638 30.4899C52.5438 30.5025 53.0147 30.3585 53.4056 30.0797C53.7556 29.8197 54.0655 29.4297 54.5056 29.4297C54.7668 29.4568 55.014 29.5613 55.2155 29.7297C56.6188 30.7258 57.8145 31.986 58.7355 33.4397C58.9054 33.7431 59.1065 34.028 59.3356 34.2897C58.8756 36.556 57.9525 38.7029 56.6241 40.5957C55.2956 42.4886 53.5905 44.0866 51.6156 45.2897C51.5256 45.1797 51.4555 45.0597 51.3755 44.9397C51.0265 44.3352 50.8992 43.6279 51.0156 42.9397C51.0956 42.4797 51.2756 41.9397 51.0156 41.5797C50.7556 41.2197 50.1056 41.2697 49.6056 41.2097C49.1376 41.1563 48.7034 40.9395 48.3796 40.5974C48.0558 40.2553 47.8631 39.8099 47.8356 39.3397C47.8356 38.0997 47.7356 36.8397 47.6556 35.5997C47.6832 35.1707 47.5434 34.7477 47.2656 34.4197C45.3063 37.0115 43.1319 39.4334 40.7656 41.6597C40.2056 42.1997 39.6255 42.7097 39.0555 43.2197C39.4468 43.7829 39.9466 44.2622 40.5256 44.6297C41.1486 44.9995 41.8467 45.2248 42.5685 45.2888C43.2902 45.3529 44.0171 45.2541 44.6955 44.9997C45.0405 44.8419 45.4085 44.7406 45.7855 44.6997C45.976 44.6829 46.1669 44.7259 46.3318 44.8227C46.4967 44.9195 46.6273 45.0652 46.7056 45.2397C46.7656 45.4597 46.7056 45.7197 46.8656 45.8897C46.9751 46.0033 47.1193 46.0772 47.2756 46.0997C47.5556 46.1797 48.1556 46.4097 48.8356 46.6497C46.6841 47.4696 44.3871 47.8385 42.0872 47.7336C39.7872 47.6286 37.5334 47.0521 35.4655 46.0397C35.0455 46.3497 34.6155 46.6597 34.1955 46.9497H34.1356C33.6956 47.2497 33.1356 47.6197 32.5656 47.9497C36.5846 50.3706 41.3291 51.2952 45.9631 50.5606C50.5971 49.8259 54.823 47.4792 57.8962 43.9339C60.9693 40.3886 62.6925 35.8723 62.7619 31.1809C62.8313 26.4896 61.2425 21.9243 58.2756 18.2897C57.6849 17.5806 57.0467 16.9124 56.3656 16.2897C56.1338 17.1679 55.8534 18.0326 55.5256 18.8797Z" fill="white"/>
<path d="M43.5255 20.7097C43.3055 20.7797 42.1055 31.8397 31.0455 43.3597C30.0182 44.485 28.9012 45.5251 27.7055 46.4697C26.9255 46.8997 26.0255 46.9497 25.7055 45.1997C25.7055 46.1197 25.5155 47.0197 26.1655 47.8097C28.0755 50.1797 31.9255 47.4997 33.7255 46.2497C36.2953 44.413 38.6442 42.2856 40.7255 39.9097C45.1355 34.7897 46.4556 30.9897 50.0856 22.8297L47.4755 19.6597C47.4755 19.6597 45.7855 20.0397 43.5255 20.7097Z" fill="white"/>
<path d="M54.4055 3.29964C54.1388 2.9211 53.759 2.63684 53.3205 2.48771C52.8821 2.33858 52.4077 2.33225 51.9655 2.46964C51.9655 2.46964 52.7255 0.899644 53.7455 1.23964C54.7655 1.57964 54.4055 3.29964 54.4055 3.29964ZM54.1755 0.0396444C53.1755 -0.290356 51.6755 1.51964 51.3455 2.50964L50.9855 3.58964L42.1655 7.90964C42.0261 7.96722 41.9015 8.0556 41.801 8.16817C41.7006 8.28073 41.6269 8.41457 41.5855 8.55964C41.5281 8.68875 41.5018 8.82957 41.5089 8.9707C41.5161 9.11184 41.5563 9.24931 41.6264 9.372C41.6965 9.49469 41.7945 9.59915 41.9125 9.67692C42.0305 9.75469 42.1651 9.80358 42.3055 9.81964L48.6655 9.68964L47.5255 16.4496L44.9855 17.2096C44.8411 17.2568 44.7093 17.3362 44.6001 17.4419C44.4909 17.5476 44.4073 17.6768 44.3555 17.8196L44.0355 18.8196C44.0169 18.8712 44.0122 18.9267 44.022 18.9806C44.0318 19.0345 44.0556 19.0848 44.0912 19.1265C44.1268 19.1682 44.1728 19.1997 44.2245 19.2178C44.2762 19.2359 44.3317 19.24 44.3855 19.2296L47.9555 18.5496L50.3355 21.2096C50.3709 21.2515 50.4168 21.2832 50.4685 21.3016C50.5202 21.3199 50.5758 21.3242 50.6297 21.314C50.6835 21.3039 50.7337 21.2796 50.7752 21.2437C50.8166 21.2078 50.8478 21.1615 50.8655 21.1096L51.1855 20.1096C51.2351 19.9642 51.2482 19.8089 51.2238 19.6572C51.1994 19.5056 51.1382 19.3622 51.0455 19.2396L49.5955 17.2396L52.4655 11.1796L58.2755 15.7696C58.3965 15.8429 58.5333 15.8862 58.6744 15.8961C58.8155 15.9059 58.9569 15.882 59.0869 15.8263C59.217 15.7706 59.3318 15.6846 59.422 15.5757C59.5122 15.4667 59.5751 15.3378 59.6055 15.1996C59.6548 15.0594 59.674 14.9104 59.662 14.7622C59.6499 14.614 59.6068 14.4701 59.5355 14.3396L54.5955 4.83964L54.9555 3.75964C55.2855 2.76964 55.1655 0.409644 54.1755 0.0396444Z" fill="white"/>
<path d="M83.4749 17.3H90.2024V35.5475C90.2024 37.9925 89.7224 40.115 88.7624 41.915C87.8024 43.7 86.4299 45.0875 84.6449 46.0775C82.8599 47.0525 80.7299 47.54 78.2549 47.54C75.7649 47.54 73.6199 47.0525 71.8199 46.0775C70.0199 45.0875 68.6399 43.7 67.6799 41.915C66.7349 40.115 66.2624 37.9925 66.2624 35.5475V17.3H72.9674V35.1875C72.9674 36.5375 73.1774 37.6775 73.5974 38.6075C74.0324 39.5375 74.6474 40.2425 75.4424 40.7225C76.2374 41.1875 77.1749 41.42 78.2549 41.42C79.3199 41.42 80.2424 41.1875 81.0224 40.7225C81.8024 40.2425 82.4024 39.5375 82.8224 38.6075C83.2574 37.6775 83.4749 36.5375 83.4749 35.1875V17.3ZM94.8248 17.3H106.93C108.655 17.3 110.192 17.66 111.542 18.38C112.892 19.1 113.957 20.1425 114.737 21.5075C115.532 22.8575 115.93 24.47 115.93 26.345C115.93 28.22 115.592 29.7575 114.917 30.9575C114.257 32.1425 113.462 33.035 112.532 33.635C111.602 34.22 110.74 34.5725 109.945 34.6925L117.167 47H109.607L103.172 35.21H101.552V47H94.8248V17.3ZM101.552 30.5525H104.522C105.722 30.5525 106.772 30.26 107.672 29.675C108.572 29.09 109.022 28.055 109.022 26.57C109.022 25.085 108.58 24.0575 107.695 23.4875C106.81 22.9025 105.767 22.61 104.567 22.61H101.552V30.5525ZM121.838 17.3H128.566V47H121.838V17.3ZM144.586 16.76C146.431 16.76 148.043 16.9625 149.423 17.3675C150.803 17.7725 151.913 18.2 152.753 18.65C153.593 19.1 154.103 19.4 154.283 19.55L151.043 24.9725C150.803 24.7925 150.391 24.53 149.806 24.185C149.236 23.84 148.553 23.5325 147.758 23.2625C146.978 22.9925 146.161 22.8575 145.306 22.8575C144.151 22.8575 143.213 23.0675 142.493 23.4875C141.788 23.8925 141.436 24.5 141.436 25.31C141.436 25.865 141.623 26.3675 141.998 26.8175C142.388 27.2525 142.973 27.6725 143.753 28.0775C144.548 28.4675 145.553 28.895 146.768 29.36C147.878 29.765 148.921 30.245 149.896 30.8C150.871 31.355 151.726 32.015 152.461 32.78C153.211 33.53 153.803 34.4 154.238 35.39C154.673 36.38 154.891 37.505 154.891 38.765C154.891 40.265 154.583 41.57 153.968 42.68C153.353 43.775 152.513 44.6825 151.448 45.4025C150.398 46.1225 149.198 46.655 147.848 47C146.513 47.36 145.126 47.54 143.686 47.54C141.646 47.54 139.816 47.3075 138.196 46.8425C136.591 46.3775 135.293 45.875 134.303 45.335C133.313 44.795 132.721 44.435 132.526 44.255L135.878 38.6075C136.058 38.7425 136.403 38.96 136.913 39.26C137.438 39.56 138.076 39.875 138.826 40.205C139.576 40.52 140.371 40.79 141.211 41.015C142.066 41.24 142.906 41.3525 143.731 41.3525C145.111 41.3525 146.146 41.09 146.836 40.565C147.526 40.025 147.871 39.32 147.871 38.45C147.871 37.805 147.653 37.2275 147.218 36.7175C146.783 36.2075 146.131 35.7275 145.261 35.2775C144.391 34.8125 143.303 34.325 141.998 33.815C140.693 33.29 139.471 32.6525 138.331 31.9025C137.206 31.1525 136.291 30.215 135.586 29.09C134.881 27.965 134.528 26.57 134.528 24.905C134.528 23.24 134.993 21.8 135.923 20.585C136.868 19.355 138.106 18.41 139.636 17.75C141.181 17.09 142.831 16.76 144.586 16.76ZM164.479 23.195H157.392V17.3H178.272V23.195H171.207V47H164.479V23.195ZM188.218 17.3H194.9L206.623 47H199.445L197.285 41.0375H185.855L183.673 47H176.473L188.218 17.3ZM188.105 35.1425H195.058L191.615 25.4H191.548L188.105 35.1425Z" fill="white"/>
</svg>
