<svg width="25" height="25" viewBox="0 0 25 25" fill="none" xmlns="http://www.w3.org/2000/svg">
<path d="M11.4584 9.37516H13.5417V7.29183H11.4584M12.5 20.8335C7.90629 20.8335 4.16671 17.0939 4.16671 12.5002C4.16671 7.90641 7.90629 4.16683 12.5 4.16683C17.0938 4.16683 20.8334 7.90641 20.8334 12.5002C20.8334 17.0939 17.0938 20.8335 12.5 20.8335ZM12.5 2.0835C11.1321 2.0835 9.77756 2.35293 8.51375 2.87642C7.24995 3.3999 6.10162 4.16719 5.13435 5.13447C3.18084 7.08797 2.08337 9.73749 2.08337 12.5002C2.08337 15.2628 3.18084 17.9124 5.13435 19.8659C6.10162 20.8331 7.24995 21.6004 8.51375 22.1239C9.77756 22.6474 11.1321 22.9168 12.5 22.9168C15.2627 22.9168 17.9122 21.8194 19.8657 19.8659C21.8192 17.9124 22.9167 15.2628 22.9167 12.5002C22.9167 11.1322 22.6473 9.77768 22.1238 8.51388C21.6003 7.25007 20.833 6.10174 19.8657 5.13447C18.8985 4.16719 17.7501 3.3999 16.4863 2.87642C15.2225 2.35293 13.868 2.0835 12.5 2.0835ZM11.4584 17.7085H13.5417V11.4585H11.4584V17.7085Z" fill="black"/>
</svg>
