<svg width="18" height="20" viewBox="0 0 18 20" fill="none" xmlns="http://www.w3.org/2000/svg">
<path d="M2.75 20L4.1 16.95C3.86667 16.7667 3.64167 16.5875 3.425 16.4125C3.20833 16.2375 3 16.05 2.8 15.85C2.66667 15.9 2.5375 15.9375 2.4125 15.9625C2.2875 15.9875 2.15 16 2 16C1.45 16 0.979167 15.8042 0.5875 15.4125C0.195833 15.0208 0 14.55 0 14C0 13.6667 0.0708333 13.3625 0.2125 13.0875C0.354167 12.8125 0.55 12.5833 0.8 12.4C0.666667 12.0167 0.575 11.6292 0.525 11.2375C0.475 10.8458 0.45 10.4333 0.45 10C0.45 9.56667 0.475 9.15417 0.525 8.7625C0.575 8.37083 0.666667 7.98333 0.8 7.6C0.55 7.41667 0.354167 7.1875 0.2125 6.9125C0.0708333 6.6375 0 6.33333 0 6C0 5.45 0.195833 4.97917 0.5875 4.5875C0.979167 4.19583 1.45 4 2 4C2.15 4 2.2875 4.0125 2.4125 4.0375C2.5375 4.0625 2.66667 4.1 2.8 4.15C3.35 3.55 3.97917 3.05 4.6875 2.65C5.39583 2.25 6.15 1.95 6.95 1.75C7.03333 1.25 7.2625 0.833333 7.6375 0.5C8.0125 0.166667 8.45 0 8.95 0C9.45 0 9.8875 0.170833 10.2625 0.5125C10.6375 0.854167 10.8667 1.26667 10.95 1.75C11.75 1.95 12.5042 2.24583 13.2125 2.6375C13.9208 3.02917 14.55 3.51667 15.1 4.1C15.2333 4.05 15.3583 4.0125 15.475 3.9875C15.5917 3.9625 15.7167 3.95 15.85 3.95C16.4 3.95 16.8708 4.14583 17.2625 4.5375C17.6542 4.92917 17.85 5.4 17.85 5.95C17.85 6.28333 17.7833 6.57917 17.65 6.8375C17.5167 7.09583 17.3333 7.31667 17.1 7.5C17.2333 7.9 17.325 8.30833 17.375 8.725C17.425 9.14167 17.45 9.56667 17.45 10C17.45 10.4333 17.425 10.8542 17.375 11.2625C17.325 11.6708 17.2333 12.0667 17.1 12.45C17.3333 12.6333 17.5167 12.8542 17.65 13.1125C17.7833 13.3708 17.85 13.6667 17.85 14C17.85 14.55 17.6542 15.0208 17.2625 15.4125C16.8708 15.8042 16.4 16 15.85 16C15.7167 16 15.5917 15.9875 15.475 15.9625C15.3583 15.9375 15.2333 15.9 15.1 15.85C14.9 16.05 14.6958 16.2458 14.4875 16.4375C14.2792 16.6292 14.05 16.8167 13.8 17L15.1 20H13.25L12.3 17.8C12.0667 17.9 11.8417 17.9875 11.625 18.0625C11.4083 18.1375 11.1833 18.2 10.95 18.25C10.8667 18.7333 10.6375 19.1458 10.2625 19.4875C9.8875 19.8292 9.45 20 8.95 20C8.45 20 8.0125 19.8333 7.6375 19.5C7.2625 19.1667 7.03333 18.75 6.95 18.25C6.7 18.2 6.4625 18.1375 6.2375 18.0625C6.0125 17.9875 5.78333 17.9 5.55 17.8L4.6 20H2.75ZM4.65 15.65L6.2 12.15C5.96667 11.85 5.78333 11.5167 5.65 11.15C5.51667 10.7833 5.45 10.4 5.45 10C5.45 9.05 5.79583 8.22917 6.4875 7.5375C7.17917 6.84583 8 6.5 8.95 6.5C9.9 6.5 10.7208 6.84583 11.4125 7.5375C12.1042 8.22917 12.45 9.05 12.45 10C12.45 10.4 12.3792 10.7917 12.2375 11.175C12.0958 11.5583 11.9 11.9 11.65 12.2L13.2 15.65C13.35 15.5167 13.4958 15.3958 13.6375 15.2875C13.7792 15.1792 13.9167 15.05 14.05 14.9C13.9667 14.7667 13.9125 14.6208 13.8875 14.4625C13.8625 14.3042 13.85 14.15 13.85 14C13.85 13.4667 14.0333 13.0083 14.4 12.625C14.7667 12.2417 15.2167 12.0333 15.75 12C15.85 11.6667 15.925 11.3375 15.975 11.0125C16.025 10.6875 16.05 10.35 16.05 10C16.05 9.65 16.025 9.30417 15.975 8.9625C15.925 8.62083 15.85 8.28333 15.75 7.95C15.2167 7.91667 14.7667 7.70833 14.4 7.325C14.0333 6.94167 13.85 6.48333 13.85 5.95C13.85 5.8 13.8708 5.65417 13.9125 5.5125C13.9542 5.37083 14 5.23333 14.05 5.1C13.5667 4.61667 13.0333 4.20833 12.45 3.875C11.8667 3.54167 11.25 3.28333 10.6 3.1C10.4167 3.38333 10.1833 3.60417 9.9 3.7625C9.61667 3.92083 9.3 4 8.95 4C8.6 4 8.28333 3.92083 8 3.7625C7.71667 3.60417 7.48333 3.38333 7.3 3.1C6.61667 3.28333 5.98333 3.54583 5.4 3.8875C4.81667 4.22917 4.28333 4.65 3.8 5.15C3.85 5.28333 3.89583 5.42083 3.9375 5.5625C3.97917 5.70417 4 5.85 4 6C4 6.53333 3.825 6.9875 3.475 7.3625C3.125 7.7375 2.68333 7.95 2.15 8C2.05 8.33333 1.975 8.6625 1.925 8.9875C1.875 9.3125 1.85 9.65 1.85 10C1.85 10.35 1.875 10.6875 1.925 11.0125C1.975 11.3375 2.05 11.6667 2.15 12C2.68333 12.0333 3.125 12.2417 3.475 12.625C3.825 13.0083 4 13.4667 4 14C4 14.15 3.9875 14.2958 3.9625 14.4375C3.9375 14.5792 3.88333 14.7167 3.8 14.85C3.93333 15 4.07083 15.1375 4.2125 15.2625C4.35417 15.3875 4.5 15.5167 4.65 15.65ZM6.15 16.5C6.33333 16.5833 6.52083 16.6583 6.7125 16.725C6.90417 16.7917 7.1 16.85 7.3 16.9C7.48333 16.6167 7.71667 16.3958 8 16.2375C8.28333 16.0792 8.6 16 8.95 16C9.3 16 9.61667 16.0792 9.9 16.2375C10.1833 16.3958 10.4167 16.6167 10.6 16.9C10.8 16.85 10.9875 16.7917 11.1625 16.725C11.3375 16.6583 11.5167 16.5833 11.7 16.5L10.25 13.25C10.05 13.3333 9.84167 13.3958 9.625 13.4375C9.40833 13.4792 9.18333 13.5 8.95 13.5C8.7 13.5 8.4625 13.475 8.2375 13.425C8.0125 13.375 7.8 13.3 7.6 13.2L6.15 16.5ZM8.95 11.5C9.35 11.5 9.7 11.3583 10 11.075C10.3 10.7917 10.45 10.4333 10.45 10C10.45 9.6 10.3 9.25 10 8.95C9.7 8.65 9.35 8.5 8.95 8.5C8.51667 8.5 8.15833 8.65 7.875 8.95C7.59167 9.25 7.45 9.6 7.45 10C7.45 10.4333 7.59167 10.7917 7.875 11.075C8.15833 11.3583 8.51667 11.5 8.95 11.5Z" fill="white"/>
</svg>
