<svg width="13" height="13" viewBox="0 0 13 13" fill="none" xmlns="http://www.w3.org/2000/svg">
<path d="M9.04252 3.22611C8.44411 3.22611 7.9122 3.09313 7.38029 2.89367L4.78721 1.63037C3.85637 1.16495 2.32712 1.43091 1.66223 2.16229L0.930847 2.96016L0 2.02931L0.73138 1.23144C1.79521 0.0346367 3.92286 -0.364298 5.38562 0.367082L8.04518 1.63037C8.97603 2.0958 10.5053 1.82984 11.1702 1.09846L11.8351 0.300593L12.8324 1.16495L12.101 1.96282C11.3696 2.76069 10.2393 3.22611 9.04252 3.22611ZM8.24465 13L7.71273 11.2713H5.05317L4.52126 13H2.85903L5.45211 5.61971H7.38029L9.97336 13H8.24465ZM7.38029 9.9415L6.38295 6.75003L5.45211 9.9415H7.38029Z" fill="black"/>
</svg>
