<svg width="18" height="17" viewBox="0 0 18 17" fill="none" xmlns="http://www.w3.org/2000/svg">
<path d="M14.6 1H12.2C11.3163 1 10.6 1.71634 10.6 2.6V5C10.6 5.88366 11.3163 6.59999 12.2 6.59999H14.6C15.4837 6.59999 16.2 5.88366 16.2 5V2.6C16.2 1.71634 15.4837 1 14.6 1Z" stroke="black" stroke-width="2" stroke-linecap="round" stroke-linejoin="round"/>
<path d="M5.8 1H3.4C2.51635 1 1.8 1.71634 1.8 2.6V5C1.8 5.88366 2.51635 6.59999 3.4 6.59999H5.8C6.68366 6.59999 7.4 5.88366 7.4 5V2.6C7.4 1.71634 6.68366 1 5.8 1Z" stroke="black" stroke-width="2" stroke-linecap="round" stroke-linejoin="round"/>
<path d="M14.6 9.7998H12.2C11.3163 9.7998 10.6 10.5161 10.6 11.3998V13.7998C10.6 14.6835 11.3163 15.3998 12.2 15.3998H14.6C15.4837 15.3998 16.2 14.6835 16.2 13.7998V11.3998C16.2 10.5161 15.4837 9.7998 14.6 9.7998Z" stroke="black" stroke-width="2" stroke-linecap="round" stroke-linejoin="round"/>
<path d="M5.8 9.7998H3.4C2.51635 9.7998 1.8 10.5161 1.8 11.3998V13.7998C1.8 14.6835 2.51635 15.3998 3.4 15.3998H5.8C6.68366 15.3998 7.4 14.6835 7.4 13.7998V11.3998C7.4 10.5161 6.68366 9.7998 5.8 9.7998Z" stroke="black" stroke-width="2" stroke-linecap="round" stroke-linejoin="round"/>
</svg>
