<svg width="67" height="60" viewBox="0 0 67 60" fill="none" xmlns="http://www.w3.org/2000/svg">
<path d="M26.6667 0C23.1304 0 19.7391 1.40476 17.2386 3.90524C14.7381 6.40573 13.3333 9.79711 13.3333 13.3333C13.3333 16.8696 14.7381 20.2609 17.2386 22.7614C19.7391 25.2619 23.1304 26.6667 26.6667 26.6667C30.2029 26.6667 33.5943 25.2619 36.0948 22.7614C38.5952 20.2609 40 16.8696 40 13.3333C40 9.79711 38.5952 6.40573 36.0948 3.90524C33.5943 1.40476 30.2029 0 26.6667 0ZM26.6667 6.66667C28.4348 6.66667 30.1305 7.36905 31.3807 8.61929C32.631 9.86953 33.3333 11.5652 33.3333 13.3333C33.3333 15.1014 32.631 16.7971 31.3807 18.0474C30.1305 19.2976 28.4348 20 26.6667 20C24.8986 20 23.2029 19.2976 21.9526 18.0474C20.7024 16.7971 20 15.1014 20 13.3333C20 11.5652 20.7024 9.86953 21.9526 8.61929C23.2029 7.36905 24.8986 6.66667 26.6667 6.66667ZM26.6667 30C17.7667 30 0 34.4333 0 43.3333V53.3333H31.6667C30.8278 51.3134 30.2996 49.1781 30.1 47H6.33333V43.3333C6.33333 41.2 16.7667 36.3333 26.6667 36.3333C28.3333 36.3333 30 36.5 31.6667 36.7667C32.522 34.6618 33.7031 32.7045 35.1667 30.9667C32.0333 30.3333 29.0333 30 26.6667 30ZM51.6667 30C43.3333 30 36.6667 36.6667 36.6667 45C36.6667 53.3333 43.3333 60 51.6667 60C60 60 66.6667 53.3333 66.6667 45C66.6667 36.6667 60 30 51.6667 30ZM51.6667 35C57.2 35 61.6667 39.4667 61.6667 45C61.6667 46.8667 61.1667 48.6 60.2667 50L46.6667 36.4C48.0667 35.5 49.8 35 51.6667 35ZM43.0667 40L56.6667 53.6C55.2667 54.5 53.5333 55 51.6667 55C46.1333 55 41.6667 50.5333 41.6667 45C41.6667 43.1333 42.1667 41.4 43.0667 40Z" fill="black" fill-opacity="0.3"/>
</svg>
