<svg width="16" height="17" viewBox="0 0 16 17" fill="none" xmlns="http://www.w3.org/2000/svg">
<g clip-path="url(#clip0_70_1013)">
<path fill-rule="evenodd" clip-rule="evenodd" d="M4.12161 14.3586L2.99199 13.1742C2.75039 12.9188 2.9312 12.5074 3.2824 12.5074H15.2C15.6416 12.5074 16 12.1399 16 11.698V11.7031C16 11.2604 15.6416 10.9066 15.2 10.9066H3.29441C2.94161 10.9066 2.7616 10.4733 3.0064 10.2195L4.12959 9.05153C4.43359 8.73211 4.42001 8.22362 4.09761 7.92262L4.096 7.9195C3.7776 7.6209 3.27839 7.63606 2.97839 7.95387L0.436792 10.6261C-0.148008 11.245 -0.144793 12.2136 0.442407 12.83L2.9616 15.4543C3.2608 15.7681 3.75601 15.7833 4.07361 15.4879L4.08159 15.48C4.40319 15.1814 4.42081 14.6788 4.12161 14.3586ZM11.9184 1.51989L11.9264 1.51207C12.244 1.21667 12.7392 1.23185 13.0384 1.54567L15.5576 4.16989C16.1456 4.78631 16.148 5.75495 15.564 6.37457L13.0216 9.04684C12.7224 9.36386 12.2232 9.3798 11.9048 9.082L11.9024 9.07965C11.58 8.77864 11.5664 8.27171 11.8712 7.95309L12.9936 6.7859C13.2384 6.53133 13.0584 6.10309 12.7056 6.10309H0.8C0.3584 6.10309 0 5.74931 0 5.30661V5.30504C0 4.86315 0.3584 4.50192 0.8 4.50192H12.7176C13.0688 4.50192 13.2496 4.08581 13.008 3.83043L11.8784 2.63903C11.5792 2.31881 11.5968 1.81849 11.9184 1.51989Z" fill="black"/>
</g>
<defs>
<clipPath id="clip0_70_1013">
<rect width="16" height="16" fill="white" transform="translate(0 0.5)"/>
</clipPath>
</defs>
</svg>
