<svg width="25" height="25" viewBox="0 0 25 25" fill="none" xmlns="http://www.w3.org/2000/svg">
<path d="M12.0481 1.05965L11.3505 0.708048L11.3483 0.712473L12.0481 1.05965ZM12.9523 1.05965L13.6521 0.712467L13.65 0.708054L12.9523 1.05965ZM14.0033 3.17837L13.3035 3.52555L13.3045 3.52783L14.0033 3.17837ZM16.7398 3.79191L16.6281 4.56514L16.6311 4.56555L16.7398 3.79191ZM17.145 4.12836L17.8866 3.88291L17.8855 3.87933L17.145 4.12836ZM17.0189 4.63566L16.4783 4.07159L16.474 4.07576L17.0189 4.63566ZM15.3127 6.29605L15.8552 6.85827L15.8576 6.85594L15.3127 6.29605ZM15.1689 6.7325L14.3985 6.86233L14.3991 6.86544L15.1689 6.7325ZM15.5731 9.0731L16.3437 8.9447L16.343 8.94017L15.5731 9.0731ZM15.371 9.55747L14.9202 8.91946L14.917 8.92163L15.371 9.55747ZM14.8408 9.59393L15.2034 8.90194L15.202 8.90123L14.8408 9.59393ZM12.7356 8.49602L12.3693 9.18608L12.3743 9.18872L12.7356 8.49602ZM12.2648 8.49602L12.6267 9.18836L12.6311 9.18606L12.2648 8.49602ZM9.63462 9.55747L10.0885 8.92163L10.0855 8.91946L9.63462 9.55747ZM9.43254 9.0731L8.66268 8.94017L8.66192 8.9447L9.43254 9.0731ZM9.8367 6.7325L10.6065 6.86544L10.607 6.86233L9.8367 6.7325ZM9.69295 6.29605L9.14895 6.85677L9.1505 6.85827L9.69295 6.29605ZM7.98151 4.63566L8.52552 4.07493L8.52206 4.07161L7.98151 4.63566ZM7.85547 4.12836L7.11498 3.87933L7.11379 3.88291L7.85547 4.12836ZM8.26068 3.79191L8.36936 4.56556L8.37236 4.56512L8.26068 3.79191ZM10.9971 3.17837L11.6958 3.52783L11.6969 3.52555L10.9971 3.17837ZM12.7458 1.41125C12.7229 1.45672 12.6878 1.49494 12.6444 1.52164L11.8251 0.191213C11.622 0.316229 11.4578 0.495149 11.3505 0.708048L12.7458 1.41125ZM12.6444 1.52164C12.6011 1.54834 12.5511 1.56248 12.5002 1.56248V0C12.2618 0 12.0281 0.0661963 11.8251 0.191213L12.6444 1.52164ZM12.5002 1.56248C12.4493 1.56248 12.3993 1.54834 12.356 1.52164L13.1754 0.191213C12.9724 0.0661963 12.7386 0 12.5002 0V1.56248ZM12.356 1.52164C12.3127 1.49494 12.2776 1.45672 12.2546 1.41125L13.65 0.708054C13.5427 0.495155 13.3784 0.316229 13.1754 0.191213L12.356 1.52164ZM12.2525 1.40683L13.3035 3.52555L14.7032 2.8312L13.6521 0.712467L12.2525 1.40683ZM13.3045 3.52783C13.3974 3.71324 13.5335 3.87344 13.7016 3.99476L14.6161 2.72781C14.6525 2.75408 14.6819 2.78877 14.702 2.82893L13.3045 3.52783ZM13.7016 3.99476C13.8698 4.11608 14.0646 4.19492 14.2699 4.22452L14.4931 2.67807C14.5376 2.68448 14.5796 2.70154 14.6161 2.72781L13.7016 3.99476ZM14.2699 4.22452L16.6281 4.56514L16.8514 3.0187L14.4931 2.67807L14.2699 4.22452ZM16.6311 4.56555C16.5795 4.55832 16.5311 4.53689 16.491 4.50366L17.4892 3.30155C17.306 3.14947 17.0841 3.05139 16.8484 3.01826L16.6311 4.56555ZM16.491 4.50366C16.451 4.47043 16.421 4.42671 16.4044 4.3774L17.8855 3.87933C17.8095 3.65369 17.6724 3.45362 17.4892 3.30155L16.491 4.50366ZM16.4033 4.37382C16.386 4.32151 16.3838 4.26535 16.3971 4.21185L17.9135 4.58861C17.9714 4.35556 17.962 4.11088 17.8866 3.88291L16.4033 4.37382ZM16.3971 4.21185C16.4104 4.15836 16.4385 4.10972 16.4783 4.07159L17.5594 5.19969C17.7329 5.03354 17.8556 4.82168 17.9135 4.58861L16.3971 4.21185ZM16.474 4.07576L14.7679 5.73616L15.8576 6.85594L17.5637 5.19554L16.474 4.07576ZM14.7703 5.73383C14.6212 5.87757 14.5095 6.05546 14.4448 6.2521L15.9288 6.74089C15.9141 6.78543 15.8889 6.82571 15.8552 6.85827L14.7703 5.73383ZM14.4448 6.2521C14.3801 6.44874 14.364 6.6582 14.3985 6.86233L15.9393 6.60267C15.9471 6.64891 15.9435 6.69634 15.9288 6.74089L14.4448 6.2521ZM14.3991 6.86544L14.8033 9.20603L16.343 8.94017L15.9388 6.59957L14.3991 6.86544ZM14.8025 9.2015C14.7936 9.14819 14.8 9.09344 14.8207 9.04355L16.2628 9.64517C16.3551 9.42393 16.3831 9.18116 16.3437 8.9447L14.8025 9.2015ZM14.8207 9.04355C14.8415 8.99367 14.876 8.95066 14.9202 8.91946L15.8218 10.1955C16.0177 10.0571 16.1705 9.86641 16.2628 9.64517L14.8207 9.04355ZM14.917 8.92163C14.9583 8.89219 15.0069 8.87476 15.0575 8.87129L15.1646 10.4301C15.4025 10.4137 15.631 10.3318 15.825 10.1933L14.917 8.92163ZM15.0575 8.87129C15.108 8.86781 15.1585 8.87843 15.2034 8.90194L14.4782 10.2859C14.6892 10.3965 14.9269 10.4465 15.1646 10.4301L15.0575 8.87129ZM15.202 8.90123L13.0968 7.80332L12.3743 9.18872L14.4795 10.2866L15.202 8.90123ZM13.1019 7.80598C12.9166 7.70761 12.7101 7.65617 12.5002 7.65617V9.21866C12.4545 9.21866 12.4096 9.20749 12.3693 9.18608L13.1019 7.80598ZM12.5002 7.65617C12.2904 7.65617 12.0838 7.70761 11.8985 7.80598L12.6311 9.18606C12.5908 9.20747 12.5459 9.21866 12.5002 9.21866V7.65617ZM11.9029 7.8037L9.80286 8.90159L10.5268 10.2863L12.6267 9.18836L11.9029 7.8037ZM9.80286 8.90159C9.84773 8.87808 9.89761 8.86781 9.94816 8.87129L9.84097 10.4301C10.0787 10.4465 10.3157 10.3969 10.5268 10.2863L9.80286 8.90159ZM9.94816 8.87129C9.99871 8.87476 10.0473 8.89219 10.0885 8.92163L9.1807 10.1933C9.37466 10.3318 9.60322 10.4137 9.84097 10.4301L9.94816 8.87129ZM10.0855 8.91946C10.1296 8.95066 10.1641 8.99367 10.1849 9.04355L8.74289 9.64517C8.83518 9.8664 8.98798 10.0571 9.18375 10.1955L10.0855 8.91946ZM10.1849 9.04355C10.2057 9.09344 10.212 9.14819 10.2032 9.2015L8.66192 8.9447C8.62252 9.18116 8.65058 9.42393 8.74289 9.64517L10.1849 9.04355ZM10.2024 9.20603L10.6065 6.86544L9.06685 6.59957L8.66268 8.94017L10.2024 9.20603ZM10.607 6.86233C10.6415 6.65819 10.6256 6.44873 10.5609 6.2521L9.07679 6.74089C9.06213 6.69635 9.05853 6.64891 9.06632 6.60267L10.607 6.86233ZM10.5609 6.2521C10.4961 6.05547 10.3844 5.87758 10.2354 5.73383L9.1505 6.85827C9.11676 6.82571 9.09146 6.78542 9.07679 6.74089L10.5609 6.2521ZM10.2369 5.73533L8.52552 4.07493L7.43752 5.19637L9.14895 6.85677L10.2369 5.73533ZM8.52206 4.07161C8.56186 4.10974 8.59002 4.15836 8.60331 4.21185L7.08694 4.58861C7.14484 4.82167 7.26759 5.03354 7.44096 5.19969L8.52206 4.07161ZM8.60331 4.21185C8.61661 4.26534 8.61447 4.3215 8.59715 4.37382L7.11379 3.88291C7.03834 4.11089 7.02903 4.35556 7.08694 4.58861L8.60331 4.21185ZM8.59596 4.3774C8.57938 4.42671 8.5494 4.47043 8.50938 4.50366L7.51123 3.30155C7.32807 3.45362 7.19087 3.65369 7.11498 3.87933L8.59596 4.3774ZM8.50938 4.50366C8.46935 4.53689 8.42088 4.55833 8.36936 4.56556L8.152 3.01826C7.91625 3.05139 7.69438 3.14947 7.51123 3.30155L8.50938 4.50366ZM8.37236 4.56512L10.7307 4.22451L10.5074 2.67806L8.149 3.0187L8.37236 4.56512ZM10.7307 4.22451C10.9358 4.19491 11.1307 4.11608 11.2988 3.99476L10.3844 2.72781C10.4208 2.70154 10.463 2.68447 10.5074 2.67806L10.7307 4.22451ZM11.2988 3.99476C11.4668 3.87344 11.6031 3.71324 11.6958 3.52783L10.2984 2.82893C10.3185 2.78877 10.348 2.75408 10.3844 2.72781L11.2988 3.99476ZM11.6969 3.52555L12.748 1.40683L11.3483 0.712473L10.2972 2.8312L11.6969 3.52555Z" fill="#338E63" fill-opacity="0.4"/>
<path d="M2.58457 11.1107L2.13248 11.7478L2.13446 11.7492L2.58457 11.1107ZM2.38353 10.6252L1.61364 10.4926L1.61333 10.4944L2.38353 10.6252ZM0.806467 5.68472L0.0659663 5.43569L0.0645332 5.44003L0.806467 5.68472ZM1.21167 5.34827L1.32034 6.12192L1.3234 6.12148L1.21167 5.34827ZM3.56894 5.00765L3.45909 4.23417L3.45721 4.23444L3.56894 5.00765ZM3.94809 4.73473L4.64671 5.08444L4.64782 5.08219L3.94809 4.73473ZM5.00017 2.61601L4.30184 2.26574L4.30045 2.26855L5.00017 2.61601ZM5.45003 3.11912C5.8815 3.12034 6.23226 2.77156 6.23349 2.34009C6.23471 1.90864 5.88593 1.55786 5.45446 1.55665L5.45003 3.11912ZM6.19439 11.1983C6.57697 11.3977 7.04882 11.2493 7.24832 10.8667C7.44781 10.4841 7.29939 10.0123 6.91681 9.81277L6.19439 11.1983ZM6.04783 9.35966C5.86349 9.26355 5.65857 9.21333 5.45069 9.21333V10.7759C5.40709 10.7759 5.36415 10.7653 5.32549 10.7451L6.04783 9.35966ZM5.45069 9.21333C5.24279 9.21333 5.03797 9.26351 4.85363 9.35961L5.57577 10.7452C5.53712 10.7654 5.49427 10.7759 5.45069 10.7759V9.21333ZM4.85363 9.35961L2.75479 10.4533L3.47683 11.839L5.57577 10.7452L4.85363 9.35961ZM2.75479 10.4533C2.79872 10.4303 2.84775 10.4201 2.89719 10.4235L2.79325 11.9825C3.0301 11.9983 3.26639 11.9488 3.47683 11.839L2.75479 10.4533ZM2.89719 10.4235C2.94662 10.4268 2.99419 10.4436 3.03468 10.4721L2.13446 11.7492C2.32848 11.886 2.55641 11.9667 2.79325 11.9825L2.89719 10.4235ZM3.03667 10.4736C3.0808 10.5049 3.11521 10.5481 3.13592 10.5981L1.69234 11.1959C1.78418 11.4176 1.93674 11.609 2.13248 11.7478L3.03667 10.4736ZM3.13592 10.5981C3.15663 10.6481 3.16279 10.7028 3.15373 10.7562L1.61333 10.4944C1.57312 10.731 1.6005 10.9742 1.69234 11.1959L3.13592 10.5981ZM3.15343 10.7579L3.55655 8.4184L2.0168 8.1528L1.61364 10.4926L3.15343 10.7579ZM3.55655 8.4184C3.59185 8.21394 3.57655 8.0042 3.51206 7.80699L2.02696 8.29257C2.01222 8.24751 2.00874 8.19952 2.0168 8.1528L3.55655 8.4184ZM3.51206 7.80699C3.44758 7.60977 3.33583 7.43133 3.18655 7.28722L2.10065 8.41068C2.06654 8.37774 2.04169 8.33764 2.02696 8.29257L3.51206 7.80699ZM3.18655 7.28722L1.47476 5.63061L0.388153 6.75339L2.10065 8.41068L3.18655 7.28722ZM1.47476 5.63061C1.51387 5.66847 1.54154 5.71658 1.55456 5.76943L0.0374562 6.14325C0.0946947 6.37554 0.216239 6.58701 0.388153 6.75339L1.47476 5.63061ZM1.55456 5.76943C1.56758 5.82227 1.56545 5.87772 1.5484 5.92941L0.0645332 5.44003C-0.0103982 5.66724 -0.0197825 5.91096 0.0374562 6.14325L1.55456 5.76943ZM1.54696 5.93375C1.53038 5.98306 1.50039 6.02678 1.46037 6.06001L0.46222 4.85791C0.279066 5.00998 0.141851 5.21005 0.0659663 5.43569L1.54696 5.93375ZM1.46037 6.06001C1.42034 6.09324 1.37187 6.11468 1.32034 6.12192L1.103 4.57462C0.867248 4.60774 0.645373 4.70582 0.46222 4.85791L1.46037 6.06001ZM1.3234 6.12148L3.68067 5.78085L3.45721 4.23444L1.09994 4.57505L1.3234 6.12148ZM3.67878 5.78112C3.88443 5.75193 4.07992 5.67328 4.2485 5.55194L3.33572 4.28379C3.37223 4.25752 3.41456 4.24049 3.45909 4.23417L3.67878 5.78112ZM4.2485 5.55194C4.41708 5.43059 4.55373 5.27018 4.64671 5.08444L3.24949 4.38503C3.26963 4.34481 3.29922 4.31007 3.33572 4.28379L4.2485 5.55194ZM4.64782 5.08219L5.6999 2.96346L4.30045 2.26855L3.24838 4.38728L4.64782 5.08219ZM5.69849 2.96627C5.67539 3.01233 5.6399 3.05104 5.596 3.07804L4.77728 1.74723C4.57367 1.8725 4.40903 2.05206 4.30184 2.26574L5.69849 2.96627ZM5.596 3.07804C5.55212 3.10504 5.50156 3.11927 5.45003 3.11912L5.45446 1.55665C5.21541 1.55597 4.9809 1.62197 4.77728 1.74723L5.596 3.07804ZM6.91681 9.81277L6.04783 9.35966L5.32549 10.7451L6.19439 11.1983L6.91681 9.81277Z" fill="#338E63" fill-opacity="0.4"/>
<path d="M22.4154 11.1107L22.8656 11.7492L22.8675 11.7478L22.4154 11.1107ZM22.6165 10.6252L23.3867 10.4944L23.3864 10.4926L22.6165 10.6252ZM22.3561 7.84928L22.8987 8.41134L22.9001 8.40999L22.3561 7.84928ZM24.1936 5.68055L24.9356 5.43586L24.9341 5.43153L24.1936 5.68055ZM23.7884 5.3441L23.6767 6.11731L23.6797 6.11775L23.7884 5.3441ZM21.4311 5.00348L21.5428 4.23027L21.541 4.23L21.4311 5.00348ZM21.0519 4.73056L20.3525 5.07857L20.3534 5.08027L21.0519 4.73056ZM19.9999 2.61601L20.6993 2.268L20.6982 2.26574L19.9999 2.61601ZM19.5456 1.55665C19.1141 1.55786 18.7653 1.90864 18.7666 2.34009C18.7677 2.77156 19.1186 3.12034 19.55 3.11912L19.5456 1.55665ZM18.0726 9.81828C17.6902 10.0181 17.5422 10.4901 17.7421 10.8725C17.9419 11.2549 18.4139 11.4029 18.7963 11.2031L18.0726 9.81828ZM19.6745 10.7441C19.6359 10.7643 19.5929 10.7748 19.5494 10.7748V9.21229C19.3415 9.21229 19.1367 9.26248 18.9523 9.35857L19.6745 10.7441ZM19.5494 10.7748C19.5058 10.7748 19.4628 10.7643 19.4242 10.7441L20.1466 9.35866C19.9623 9.26256 19.7572 9.21229 19.5494 9.21229V10.7748ZM19.4242 10.7441L21.5229 11.8388L22.2456 10.4535L20.1466 9.35866L19.4242 10.7441ZM21.5229 11.8388C21.7335 11.9486 21.9699 11.9983 22.2068 11.9825L22.1028 10.4235C22.1523 10.4201 22.2017 10.4306 22.2456 10.4535L21.5229 11.8388ZM22.2068 11.9825C22.4437 11.9667 22.6716 11.886 22.8656 11.7492L21.9653 10.4721C22.0059 10.4436 22.0535 10.4268 22.1028 10.4235L22.2068 11.9825ZM22.8675 11.7478C23.0633 11.609 23.2159 11.4176 23.3077 11.1959L21.8641 10.5981C21.8848 10.5481 21.9192 10.5049 21.9634 10.4736L22.8675 11.7478ZM23.3077 11.1959C23.3995 10.9742 23.4269 10.731 23.3867 10.4944L21.8463 10.7562C21.8372 10.7028 21.8435 10.6481 21.8641 10.5981L23.3077 11.1959ZM23.3864 10.4926L22.9833 8.15307L21.4435 8.41839L21.8466 10.7579L23.3864 10.4926ZM22.9833 8.15307C22.9913 8.19979 22.9878 8.24751 22.9731 8.29257L21.4879 7.80699C21.4235 8.0042 21.4082 8.21393 21.4435 8.41839L22.9833 8.15307ZM22.9731 8.29257C22.9584 8.33764 22.9328 8.37841 22.8987 8.41134L21.8135 7.28722C21.6642 7.43133 21.5524 7.60978 21.4879 7.80699L22.9731 8.29257ZM22.9001 8.40999L24.6126 6.74855L23.5252 5.62646L21.8121 7.28856L22.9001 8.40999ZM24.6126 6.74855C24.7845 6.58217 24.9053 6.37138 24.9626 6.13908L23.4454 5.76526C23.4585 5.71243 23.4862 5.66431 23.5252 5.62646L24.6126 6.74855ZM24.9626 6.13908C25.0198 5.90679 25.0104 5.66307 24.9356 5.43586L23.4517 5.92524C23.4346 5.87355 23.4324 5.8181 23.4454 5.76526L24.9626 6.13908ZM24.9341 5.43153C24.8582 5.20589 24.721 5.00582 24.5378 4.85374L23.5397 6.05584C23.4996 6.02261 23.4697 5.9789 23.4531 5.92958L24.9341 5.43153ZM24.5378 4.85374C24.3547 4.70166 24.1328 4.60357 23.897 4.57046L23.6797 6.11775C23.6282 6.11051 23.5797 6.08907 23.5397 6.05584L24.5378 4.85374ZM23.9001 4.57089L21.5428 4.23027L21.3194 5.77669L23.6767 6.11731L23.9001 4.57089ZM21.541 4.23C21.5854 4.23632 21.6278 4.25335 21.6643 4.27963L20.7516 5.54777C20.9201 5.66911 21.1157 5.74776 21.3213 5.77696L21.541 4.23ZM21.6643 4.27963C21.7009 4.30591 21.7304 4.34064 21.7506 4.38086L20.3534 5.08027C20.4463 5.26601 20.5829 5.42643 20.7516 5.54777L21.6643 4.27963ZM21.7514 4.38256L20.6993 2.268L19.3004 2.96401L20.3525 5.07857L21.7514 4.38256ZM20.6982 2.26574C20.591 2.05205 20.4264 1.87249 20.2227 1.74723L19.4041 3.07804C19.3601 3.05104 19.3246 3.01233 19.3016 2.96627L20.6982 2.26574ZM20.2227 1.74723C20.0192 1.62197 19.7846 1.55597 19.5456 1.55665L19.55 3.11912C19.4985 3.11927 19.4479 3.10504 19.4041 3.07804L20.2227 1.74723ZM18.7963 11.2031L19.6745 10.7441L18.9523 9.35857L18.0726 9.81828L18.7963 11.2031Z" fill="#338E63" fill-opacity="0.4"/>
<path d="M3.125 13.8022C2.69353 13.8022 2.34375 14.152 2.34375 14.5835C2.34375 15.015 2.69353 15.3647 3.125 15.3647V13.8022ZM21.8748 15.3647C22.3063 15.3647 22.6561 15.015 22.6561 14.5835C22.6561 14.152 22.3063 13.8022 21.8748 13.8022V15.3647ZM3.125 15.3647H21.8748V13.8022H3.125V15.3647Z" fill="#338E63" fill-opacity="0.4"/>
<path d="M3.125 22.1353C2.69353 22.1353 2.34375 22.485 2.34375 22.9165C2.34375 23.348 2.69353 23.6978 3.125 23.6978V22.1353ZM21.8748 23.6978C22.3063 23.6978 22.6561 23.348 22.6561 22.9165C22.6561 22.485 22.3063 22.1353 21.8748 22.1353V23.6978ZM3.125 23.6978H21.8748V22.1353H3.125V23.6978Z" fill="#338E63" fill-opacity="0.4"/>
<path d="M3.125 17.9688C2.69353 17.9688 2.34375 18.3185 2.34375 18.75C2.34375 19.1815 2.69353 19.5312 3.125 19.5312V17.9688ZM17.7082 19.5312C18.1396 19.5312 18.4894 19.1815 18.4894 18.75C18.4894 18.3185 18.1396 17.9688 17.7082 17.9688V19.5312ZM3.125 19.5312H17.7082V17.9688H3.125V19.5312Z" fill="#338E63" fill-opacity="0.4"/>
</svg>
