<svg width="25" height="26" viewBox="0 0 25 26" fill="none" xmlns="http://www.w3.org/2000/svg">
<path d="M7.03129 4.66675H17.9688C19.4923 4.66675 20.738 5.85602 20.8281 7.35683L20.8334 7.53133L20.834 11.0247C21.9759 11.348 22.8278 12.3617 22.9102 13.5863L22.9167 13.7813V21.5938C22.9167 22.0253 22.5669 22.3751 22.1355 22.3751C21.7399 22.3751 21.4131 22.0812 21.3613 21.6998L21.3542 21.5938V19.2501H3.64587V21.5938C3.64587 21.9893 3.35196 22.3162 2.97064 22.3679L2.86462 22.3751C2.46911 22.3751 2.14224 22.0812 2.09051 21.6998L2.08337 21.5938V13.7813C2.08337 12.4699 2.96459 11.3644 4.16717 11.0244L4.16671 7.53133C4.16671 6.00786 5.35598 4.76216 6.85679 4.67198L7.03129 4.66675ZM20.0521 12.4792H4.94796C4.27378 12.4792 3.71928 12.9916 3.6526 13.6482L3.64587 13.7813V17.6876H21.3542V13.7813C21.3542 13.1072 20.8418 12.5526 20.1853 12.486L20.0521 12.4792ZM17.9688 6.22925H7.03129C6.35711 6.22925 5.80261 6.74162 5.73593 7.3982L5.72921 7.53133V10.9167H7.29171C7.29171 10.3415 7.75808 9.87508 8.33337 9.87508H10.4167C10.9509 9.87508 11.3912 10.2772 11.4514 10.7953L11.4584 10.9167H13.5417C13.5417 10.3415 14.0081 9.87508 14.5834 9.87508H16.6667C17.2009 9.87508 17.6412 10.2772 17.7014 10.7953L17.7084 10.9167H19.2709V7.53133C19.2709 6.85716 18.7585 6.30265 18.1019 6.23597L17.9688 6.22925Z" fill="#212121"/>
</svg>
