<svg width="25" height="25" viewBox="0 0 25 25" fill="none" xmlns="http://www.w3.org/2000/svg">
<path d="M2.34375 22.6562H17.9688" stroke="black" stroke-width="1.5" stroke-miterlimit="10" stroke-linecap="round" stroke-linejoin="round"/>
<path d="M3.125 8.59375V13.4375C3.125 17.1875 6.25 20.3125 10.1562 20.3125C14.0625 20.3125 17.1875 17.1875 17.1875 13.4375V8.59375H3.125Z" stroke="black" stroke-width="1.5" stroke-miterlimit="10" stroke-linecap="round" stroke-linejoin="round"/>
<path d="M19.5312 16.4062C18.2031 16.4062 17.1875 15.3906 17.1875 14.0625V11.7188C17.1875 10.4687 18.2031 9.375 19.5312 9.375C20.7813 9.375 21.875 10.3906 21.875 11.7188V14.0625C21.875 15.3906 20.8594 16.4062 19.5312 16.4062Z" stroke="black" stroke-width="1.5" stroke-miterlimit="10" stroke-linecap="round" stroke-linejoin="round"/>
<path d="M10.1562 1.5625C9.21875 2.96875 9.21875 4.84375 10.1562 6.25" stroke="black" stroke-width="1.5" stroke-miterlimit="10" stroke-linecap="round" stroke-linejoin="round"/>
<path d="M7.03125 1.5625C6.09375 2.96875 6.09375 4.84375 7.03125 6.25" stroke="black" stroke-width="1.5" stroke-miterlimit="10" stroke-linecap="round" stroke-linejoin="round"/>
<path d="M13.2812 1.5625C12.3438 2.96875 12.3438 4.84375 13.2812 6.25" stroke="black" stroke-width="1.5" stroke-miterlimit="10" stroke-linecap="round" stroke-linejoin="round"/>
</svg>
