<svg width="30" height="30" viewBox="0 0 30 30" fill="none" xmlns="http://www.w3.org/2000/svg">
<path d="M29.6069 10.9888L10.9888 29.6069C10.979 29.6167 10.9668 29.6265 10.9546 29.6313C10.8325 29.7485 10.6909 29.8364 10.542 29.8975C10.376 29.9658 10.2026 30 10.0269 30C9.85107 30 9.67773 29.9658 9.51172 29.8975C9.35791 29.834 9.21142 29.7388 9.08447 29.6143L6.63086 27.1631C6.54785 27.0801 6.50146 26.9727 6.48926 26.8579C6.47949 26.7505 6.50391 26.6382 6.5625 26.5405L6.56982 26.5283C6.71387 26.311 6.81396 26.0742 6.87256 25.8276C6.93359 25.5786 6.95068 25.3198 6.92627 25.0635V25.061C6.89941 24.8096 6.83105 24.5605 6.72119 24.3262C6.61621 24.104 6.46973 23.8916 6.28418 23.7061C6.09863 23.5205 5.88867 23.374 5.66406 23.269C5.42969 23.1567 5.18066 23.0884 4.9292 23.064C4.68262 23.0395 4.42627 23.0566 4.17969 23.1152C3.93799 23.1738 3.70605 23.2715 3.49365 23.4082C3.39355 23.4839 3.27637 23.5156 3.15918 23.5059C3.04199 23.4985 2.9248 23.4473 2.83691 23.3594L0.393066 20.9131C0.263672 20.7837 0.168457 20.6348 0.102539 20.4785C0.0341797 20.3149 0 20.1392 0 19.9634C0 19.7876 0.0341797 19.6118 0.102539 19.4482C0.166016 19.292 0.26123 19.1479 0.385742 19.021L19.0112 0.393066C19.1406 0.263672 19.2895 0.168457 19.4458 0.102539C19.6118 0.0341797 19.7876 0 19.9634 0C20.1392 0 20.3149 0.0341797 20.4785 0.102539C20.6372 0.168457 20.7861 0.263672 20.9131 0.393066L23.3765 2.85645C23.4546 2.93457 23.5034 3.03955 23.5156 3.14941C23.5278 3.25439 23.5083 3.3667 23.4521 3.46436L23.4473 3.47168C23.3154 3.68408 23.2227 3.91357 23.1689 4.15283C23.1152 4.39697 23.103 4.65088 23.1323 4.89746V4.8999C23.1616 5.14404 23.2324 5.3833 23.3447 5.61035C23.4497 5.82519 23.5937 6.03027 23.7769 6.21338V6.21582C23.9551 6.39893 24.1577 6.54053 24.3726 6.64795C24.5972 6.75781 24.8413 6.82861 25.0879 6.85791C25.3296 6.88721 25.5762 6.87744 25.8179 6.82617C26.0547 6.77734 26.2866 6.68945 26.499 6.5625C26.5991 6.49902 26.7163 6.46973 26.8335 6.47949C26.9458 6.48926 27.0557 6.53564 27.1411 6.62353L29.6045 9.08691C29.7339 9.21631 29.8291 9.36523 29.895 9.52148C29.9634 9.6875 29.9976 9.86328 29.9976 10.0366C29.9976 10.2124 29.9634 10.3882 29.895 10.5518C29.8315 10.7056 29.7363 10.8521 29.6118 10.979L29.6069 10.9888ZM13.8184 18.2642C13.772 18.5718 13.6401 18.8623 13.3569 19.1455C13.335 19.1675 13.3032 19.1821 13.269 19.1821C13.2373 19.1821 13.208 19.1699 13.1836 19.1479L12.5952 18.5693C12.5781 18.5522 12.5659 18.5278 12.561 18.5034C12.5342 18.3325 12.5146 18.186 12.4976 18.0664L12.4805 17.9321C12.4487 17.915 12.4194 17.8955 12.3901 17.876C12.3462 17.8442 12.3022 17.8076 12.2607 17.7686L12.2534 17.7612C12.2168 17.7246 12.1851 17.688 12.1558 17.6465L12.1509 17.6392C12.1338 17.6147 12.1167 17.5903 12.102 17.5635L11.9434 17.5464C11.8335 17.5366 11.7065 17.522 11.5747 17.5073C11.5478 17.5049 11.5234 17.4927 11.5039 17.4707L10.8691 16.8262C10.8228 16.7798 10.8228 16.7017 10.8691 16.6553C11.1865 16.3379 11.4746 16.1963 11.7773 16.1499C12.0557 16.1084 12.3364 16.1475 12.6611 16.2109L13.8623 15.0098L10.3882 13.6597C10.3687 13.6548 10.3516 13.645 10.3369 13.6304C10.2905 13.584 10.2905 13.5059 10.3369 13.4595C10.603 13.1934 10.769 12.9858 10.8936 12.8296C11.2695 12.356 11.3208 12.29 12.2534 12.5049L12.8125 11.9458C12.8589 11.8994 12.937 11.8994 12.9834 11.9458L13.5449 12.5073C13.5913 12.5537 13.5913 12.6318 13.5449 12.6782L13.4424 12.7808L13.833 12.8711L14.4653 12.2388C14.5117 12.1924 14.5898 12.1924 14.6362 12.2388L15.1978 12.8003C15.2441 12.8467 15.2441 12.9248 15.1978 12.9712L15.022 13.147L15.5933 13.2788L16.9751 11.897C17.1045 11.7676 17.2876 11.7212 17.478 11.748C17.6562 11.7725 17.8418 11.8652 17.9932 12.0142L17.9956 12.0166C18.147 12.168 18.2397 12.356 18.2642 12.5366C18.291 12.727 18.2422 12.9102 18.1152 13.0395L16.7334 14.4214L16.8652 14.9854L17.0386 14.812C17.085 14.7656 17.1631 14.7656 17.2095 14.812L17.771 15.3735C17.8174 15.4199 17.8174 15.498 17.771 15.5444L17.1411 16.1743L17.2314 16.5649L17.3315 16.4648C17.3779 16.4185 17.4561 16.4185 17.5024 16.4648L18.064 17.0264C18.1103 17.0728 18.1103 17.1509 18.064 17.1973L17.5073 17.7539C17.7173 18.689 17.6294 18.7549 17.1728 19.0991C17.0117 19.2212 16.7993 19.3823 16.5283 19.6509C16.5161 19.6631 16.5015 19.6704 16.4868 19.6777C16.4258 19.7021 16.355 19.6704 16.3306 19.6094L15.0024 16.1548L13.7915 17.3657C13.833 17.688 13.8599 17.981 13.8184 18.2642ZM4.79492 16.04L13.9697 25.2148L25.21 13.9746L16.0352 4.7998L4.79492 16.04ZM13.269 25.9131L4.09424 16.7407L1.1084 19.7266C1.07666 19.7583 1.05225 19.7949 1.0376 19.8364C1.02051 19.8804 1.01074 19.9268 1.01074 19.9707C1.01074 20.0195 1.01807 20.0635 1.03516 20.105C1.05225 20.144 1.07666 20.1831 1.1084 20.2148L3.28613 22.3926C3.54492 22.2656 3.81836 22.1753 4.09424 22.1216C4.4043 22.063 4.71924 22.0483 5.03174 22.0801C5.39795 22.1143 5.75684 22.2095 6.09131 22.3682C6.4209 22.5244 6.72607 22.7368 6.99707 23.0078C7.26318 23.2739 7.47314 23.5791 7.62695 23.9038C7.78808 24.2432 7.88574 24.6069 7.9248 24.9731C7.95654 25.2856 7.94433 25.603 7.8833 25.9106C7.82959 26.189 7.73926 26.46 7.6123 26.7187L9.79004 28.8965C9.82178 28.9282 9.8584 28.9526 9.8999 28.9673C9.94385 28.9844 9.99023 28.9941 10.0342 28.9941C10.0806 28.9941 10.127 28.9844 10.1685 28.9673C10.2075 28.9502 10.2466 28.9258 10.2783 28.894L13.269 25.9131ZM16.7358 4.09912L25.9106 13.2739L28.9014 10.2832C28.9136 10.271 28.9258 10.2637 28.9404 10.2588C28.9575 10.2344 28.9722 10.21 28.9819 10.1831C28.999 10.1392 29.0088 10.0928 29.0088 10.0488C29.0088 10.0024 29.0015 9.9585 28.9844 9.91943L28.9819 9.91455C28.9673 9.87549 28.9429 9.84131 28.9136 9.80957L26.709 7.60498C26.4502 7.71973 26.1816 7.80029 25.9058 7.84668C25.603 7.89551 25.2954 7.90283 24.9878 7.86621C24.6289 7.82471 24.2822 7.72461 23.9551 7.56592C23.6377 7.41211 23.3423 7.20459 23.0786 6.94092C22.8149 6.67725 22.6074 6.38184 22.4536 6.06445C22.2949 5.73486 22.1924 5.38574 22.1509 5.0293C22.1143 4.72412 22.1216 4.4165 22.1704 4.11377C22.2168 3.83789 22.2974 3.56934 22.4121 3.31055L20.2124 1.11084C20.1831 1.08154 20.1465 1.05713 20.1074 1.04004L20.1025 1.0376C20.0586 1.02051 20.0122 1.01074 19.9683 1.01074C19.9194 1.01074 19.8755 1.01807 19.834 1.03516C19.7949 1.05225 19.7559 1.07666 19.7241 1.1084L16.7358 4.09912Z" fill="black"/>
</svg>
