<svg width="25" height="25" viewBox="0 0 25 25" fill="none" xmlns="http://www.w3.org/2000/svg">
<path d="M14.0625 20.3125H20.3125V21.875H14.0625V20.3125ZM14.0625 17.1875H23.4375V18.75H14.0625V17.1875ZM14.0625 14.0625H23.4375V15.625H14.0625V14.0625Z" fill="black"/>
<path d="M16.0539 8.76328L12.5 1.5625L8.94609 8.76328L1 9.91797L6.75 15.5234L5.39219 23.4375L10.9375 20.5227V18.757L7.46797 20.5812L8.28984 15.7875L8.42891 14.9773L7.84063 14.4047L4.35781 11.0086L9.17109 10.3094L9.98359 10.1914L10.3477 9.45469L12.5 5.09297L14.6523 9.45469L15.0164 10.1914L15.8289 10.3094L21.6523 11.157L21.875 9.60938L16.0539 8.76328Z" fill="black"/>
</svg>
