<svg width="16" height="17" viewBox="0 0 16 17" fill="none" xmlns="http://www.w3.org/2000/svg">
<path fill-rule="evenodd" clip-rule="evenodd" d="M4.25907 1.30005H8.54102C8.74701 1.30004 8.9362 1.30002 9.09435 1.31294C9.26485 1.32687 9.45139 1.35876 9.63564 1.45264C9.89906 1.58686 10.1132 1.80104 10.2475 2.06446C10.3413 2.24871 10.3732 2.43525 10.3872 2.60575C10.4001 2.7639 10.4001 2.95308 10.4001 3.15907L10.4 6.10005L11.741 6.10005C11.947 6.10004 12.1362 6.10002 12.2943 6.11294C12.4649 6.12687 12.6514 6.15876 12.8356 6.25264C13.0991 6.38687 13.3132 6.60104 13.4475 6.86446C13.5413 7.04871 13.5732 7.23525 13.5872 7.40575C13.6001 7.5639 13.6001 7.75308 13.6001 7.95907L13.6 14.5001H14.6C14.9314 14.5001 15.2 14.7687 15.2 15.1001C15.2 15.4314 14.9314 15.7001 14.6 15.7001H1.40005C1.06868 15.7001 0.800049 15.4314 0.800049 15.1001C0.800049 14.7687 1.06868 14.5001 1.40005 14.5001H2.40005V3.18005C2.40005 3.17304 2.40005 3.16605 2.40005 3.15908C2.40003 2.95309 2.40002 2.7639 2.41294 2.60575C2.42687 2.43525 2.45876 2.24871 2.55264 2.06446C2.68686 1.80104 2.90104 1.58686 3.16446 1.45264C3.34871 1.35876 3.53525 1.32687 3.70575 1.31294C3.8639 1.30002 4.05309 1.30004 4.25907 1.30005ZM3.60005 14.5001H9.20005V3.18005C9.20005 2.94613 9.19958 2.80677 9.19114 2.70347C9.18599 2.64042 9.17919 2.61392 9.17699 2.60682C9.15817 2.57111 9.12899 2.54193 9.09328 2.52311C9.08618 2.52091 9.05968 2.51411 8.99663 2.50896C8.89333 2.50052 8.75397 2.50005 8.52005 2.50005H4.28005C4.04613 2.50005 3.90677 2.50052 3.80347 2.50896C3.74042 2.51411 3.71392 2.52091 3.70682 2.52311C3.67111 2.54193 3.64192 2.57111 3.62311 2.60682C3.6209 2.61392 3.61411 2.64042 3.60896 2.70347C3.60052 2.80677 3.60005 2.94613 3.60005 3.18005V14.5001ZM3.62383 2.60475C3.62384 2.60477 3.6237 2.6052 3.62338 2.60596L3.62383 2.60475ZM3.70475 2.52383C3.70473 2.52382 3.70511 2.52367 3.70596 2.52338L3.70475 2.52383ZM9.09535 2.52383C9.09533 2.52384 9.09491 2.5237 9.09416 2.52339L9.09535 2.52383ZM9.17627 2.60475C9.17628 2.60473 9.17643 2.6051 9.17671 2.60594L9.17627 2.60475ZM10.4 7.30005V14.5001H12.4V7.98005C12.4 7.74613 12.3996 7.60677 12.3911 7.50347C12.386 7.44043 12.3792 7.41393 12.377 7.40682C12.3582 7.37111 12.329 7.34193 12.2933 7.32311C12.2862 7.3209 12.2597 7.31411 12.1966 7.30896C12.0933 7.30052 11.954 7.30005 11.72 7.30005H10.4ZM12.2954 7.32383C12.2953 7.32384 12.2949 7.3237 12.2941 7.32338L12.2954 7.32383ZM12.3763 7.40475C12.3763 7.40472 12.3764 7.4051 12.3767 7.40597L12.3763 7.40475ZM4.80005 5.10005C4.80005 4.76868 5.06868 4.50005 5.40005 4.50005H7.40005C7.73142 4.50005 8.00005 4.76868 8.00005 5.10005C8.00005 5.43142 7.73142 5.70005 7.40005 5.70005H5.40005C5.06868 5.70005 4.80005 5.43142 4.80005 5.10005ZM4.80005 8.50005C4.80005 8.16868 5.06868 7.90005 5.40005 7.90005H7.40005C7.73142 7.90005 8.00005 8.16868 8.00005 8.50005C8.00005 8.83142 7.73142 9.10005 7.40005 9.10005H5.40005C5.06868 9.10005 4.80005 8.83142 4.80005 8.50005ZM4.80005 11.9001C4.80005 11.5687 5.06868 11.3001 5.40005 11.3001H7.40005C7.73142 11.3001 8.00005 11.5687 8.00005 11.9001C8.00005 12.2314 7.73142 12.5001 7.40005 12.5001H5.40005C5.06868 12.5001 4.80005 12.2314 4.80005 11.9001Z" fill="black"/>
</svg>
