<svg width="24" height="24" viewBox="0 0 24 24" fill="none" xmlns="http://www.w3.org/2000/svg">
<path d="M22 12C22 13.9778 21.4135 15.9112 20.3147 17.5557C19.2159 19.2002 17.6541 20.4819 15.8268 21.2388C13.9996 21.9957 11.9889 22.1937 10.0491 21.8079C8.10929 21.422 6.32746 20.4696 4.92894 19.0711C3.53041 17.6725 2.578 15.8907 2.19215 13.9509C1.8063 12.0111 2.00433 10.0004 2.76121 8.17317C3.51809 6.3459 4.79981 4.78412 6.4443 3.6853C8.08879 2.58649 10.0222 2 12 2C13.3132 2 14.6136 2.25866 15.8268 2.7612C17.0401 3.26375 18.1425 4.00035 19.0711 4.92893C19.9997 5.85752 20.7363 6.95991 21.2388 8.17317C21.7413 9.38642 22 10.6868 22 12ZM20 12C20 10.4177 19.5308 8.87103 18.6518 7.55544C17.7727 6.23984 16.5233 5.21447 15.0615 4.60896C13.5997 4.00346 11.9911 3.84504 10.4393 4.15372C8.88743 4.4624 7.46197 5.22433 6.34315 6.34315C5.22433 7.46197 4.4624 8.88743 4.15372 10.4393C3.84504 11.9911 4.00347 13.5997 4.60897 15.0615C5.21447 16.5233 6.23985 17.7727 7.55544 18.6518C8.87104 19.5308 10.4178 20 12 20C14.1217 20 16.1566 19.1571 17.6569 17.6569C19.1572 16.1566 20 14.1217 20 12Z" fill="#111111"/>
<path d="M8 9.31308C8 8.8111 8.16267 8.30383 8.488 7.79128C8.81333 7.27345 9.288 6.84544 9.912 6.50727C10.536 6.16909 11.264 6 12.096 6C12.8693 6 13.552 6.14267 14.144 6.42801C14.736 6.70806 15.192 7.09115 15.512 7.57728C15.8373 8.06341 16 8.59181 16 9.16248C16 9.61162 15.9067 10.0053 15.72 10.3435C15.5387 10.6816 15.32 10.9749 15.064 11.2232C14.8133 11.4663 14.36 11.8785 13.704 12.4597C13.5227 12.6235 13.376 12.7688 13.264 12.8956C13.1573 13.0172 13.0773 13.1308 13.024 13.2365C12.9707 13.3369 12.928 13.4399 12.896 13.5456C12.8693 13.646 12.8267 13.8256 12.768 14.0845C12.6667 14.6341 12.3493 14.9089 11.816 14.9089C11.5387 14.9089 11.304 14.819 11.112 14.6394C10.9253 14.4597 10.832 14.1929 10.832 13.8388C10.832 13.395 10.9013 13.0119 11.04 12.6896C11.1787 12.362 11.3627 12.0766 11.592 11.8336C11.8213 11.5852 12.1307 11.2919 12.52 10.9538C12.8613 10.6579 13.1067 10.4359 13.256 10.288C13.4107 10.1347 13.5387 9.96565 13.64 9.78071C13.7467 9.59577 13.8 9.39498 13.8 9.17834C13.8 8.75561 13.64 8.39894 13.32 8.10832C13.0053 7.8177 12.5973 7.67239 12.096 7.67239C11.5093 7.67239 11.0773 7.82034 10.8 8.11625C10.5227 8.40687 10.288 8.83752 10.096 9.40819C9.91467 10.0053 9.57067 10.3038 9.064 10.3038C8.76533 10.3038 8.512 10.2008 8.304 9.99472C8.10133 9.78336 8 9.55614 8 9.31308ZM11.904 18C11.5787 18 11.2933 17.897 11.048 17.6909C10.808 17.4795 10.688 17.1863 10.688 16.8111C10.688 16.4782 10.8053 16.1982 11.04 15.9709C11.2747 15.7437 11.5627 15.6301 11.904 15.6301C12.24 15.6301 12.5227 15.7437 12.752 15.9709C12.9813 16.1982 13.096 16.4782 13.096 16.8111C13.096 17.181 12.976 17.4716 12.736 17.683C12.496 17.8943 12.2187 18 11.904 18Z" fill="#111111"/>
</svg>
