<svg width="11" height="14" viewBox="0 0 11 14" fill="none" xmlns="http://www.w3.org/2000/svg">
<path d="M4.125 0.142212L3.4375 0.827992H0V2.19955H0.6875V12.4862C0.6875 12.8444 0.819039 13.2095 1.07825 13.468C1.33746 13.7266 1.70347 13.8578 2.0625 13.8578H8.9375C9.29653 13.8578 9.66254 13.7266 9.92175 13.468C10.181 13.2095 10.3125 12.8444 10.3125 12.4862V2.19955H11V0.827992H7.5625L6.875 0.142212H4.125ZM2.0625 2.19955H8.9375V12.4862H2.0625V2.19955ZM3.4375 3.57111V11.1147H4.8125V3.57111H3.4375ZM6.1875 3.57111V11.1147H7.5625V3.57111H6.1875Z" fill="black" fill-opacity="0.3"/>
</svg>
