<svg width="22" height="21" viewBox="0 0 22 21" fill="none" xmlns="http://www.w3.org/2000/svg">
<path d="M20.875 5.8125L16.7084 9.97917M16.7084 5.8125L20.875 9.97917M8.89587 8.41667C9.37465 8.41667 9.84874 8.32236 10.2911 8.13914C10.7334 7.95592 11.1353 7.68737 11.4739 7.34883C11.8124 7.01028 12.081 6.60837 12.2642 6.16603C12.4474 5.7237 12.5417 5.24961 12.5417 4.77083C12.5417 4.29206 12.4474 3.81797 12.2642 3.37563C12.081 2.9333 11.8124 2.53139 11.4739 2.19284C11.1353 1.85429 10.7334 1.58574 10.2911 1.40252C9.84874 1.2193 9.37465 1.125 8.89587 1.125C7.92894 1.125 7.00161 1.50911 6.31788 2.19284C5.63415 2.87657 5.25004 3.8039 5.25004 4.77083C5.25004 5.73777 5.63415 6.6651 6.31788 7.34883C7.00161 8.03255 7.92894 8.41667 8.89587 8.41667ZM1.08337 19.25V19.875H16.7084V19.25C16.7084 16.9167 16.7084 15.75 16.2542 14.8583C15.8547 14.0744 15.2173 13.437 14.4334 13.0375C13.5417 12.5833 12.375 12.5833 10.0417 12.5833H7.75004C5.41671 12.5833 4.25004 12.5833 3.35837 13.0375C2.5744 13.437 1.93701 14.0744 1.53754 14.8583C1.08337 15.75 1.08337 16.9167 1.08337 19.25Z" stroke="black" stroke-width="1.66667" stroke-linecap="round" stroke-linejoin="round"/>
</svg>
