<svg width="19" height="19" viewBox="0 0 19 19" fill="none" xmlns="http://www.w3.org/2000/svg">
<path d="M8.29167 18.25V16.5833C6.55556 16.3889 5.06597 15.6701 3.82292 14.4271C2.57986 13.184 1.86111 11.6944 1.66667 9.95833H0V8.29167H1.66667C1.86111 6.55556 2.57986 5.06597 3.82292 3.82292C5.06597 2.57986 6.55556 1.86111 8.29167 1.66667V0H9.95833V1.66667C11.6944 1.86111 13.184 2.57986 14.4271 3.82292C15.6701 5.06597 16.3889 6.55556 16.5833 8.29167H18.25V9.95833H16.5833C16.3889 11.6944 15.6701 13.184 14.4271 14.4271C13.184 15.6701 11.6944 16.3889 9.95833 16.5833V18.25H8.29167ZM9.125 14.9583C10.7361 14.9583 12.1111 14.3889 13.25 13.25C14.3889 12.1111 14.9583 10.7361 14.9583 9.125C14.9583 7.51389 14.3889 6.13889 13.25 5C12.1111 3.86111 10.7361 3.29167 9.125 3.29167C7.51389 3.29167 6.13889 3.86111 5 5C3.86111 6.13889 3.29167 7.51389 3.29167 9.125C3.29167 10.7361 3.86111 12.1111 5 13.25C6.13889 14.3889 7.51389 14.9583 9.125 14.9583Z" fill="black"/>
</svg>
