<svg width="26" height="25" viewBox="0 0 26 25" fill="none" xmlns="http://www.w3.org/2000/svg">
<g clip-path="url(#clip0_99_903)">
<path fill-rule="evenodd" clip-rule="evenodd" d="M24.34 0H2.09997C1.33747 0 0.719971 0.6175 0.719971 1.38V23.62C0.719971 24.3825 1.33747 25 2.09997 25H14.0725V15.3188H10.815V11.5463H14.0725V8.7625C14.0725 5.5325 16.045 3.775 18.9262 3.775C20.3062 3.775 21.4912 3.8775 21.8375 3.92375V7.29875H19.84C18.2725 7.29875 17.97 8.04375 17.97 9.13625V11.545H21.7062L21.2187 15.3175H17.9687V25H24.34C25.1025 25 25.72 24.3825 25.72 23.62V1.38C25.72 0.6175 25.1025 0 24.34 0Z" fill="#4285F4"/>
</g>
<defs>
<clipPath id="clip0_99_903">
<rect width="25" height="25" fill="white" transform="translate(0.719971)"/>
</clipPath>
</defs>
</svg>
