<svg width="19" height="20" viewBox="0 0 19 20" fill="none" xmlns="http://www.w3.org/2000/svg">
<path d="M6.375 5.625V7.5H12.625V5.625C12.625 3.89844 11.2266 2.5 9.5 2.5C7.77344 2.5 6.375 3.89844 6.375 5.625ZM3.875 7.5V5.625C3.875 2.51953 6.39453 0 9.5 0C12.6055 0 15.125 2.51953 15.125 5.625V7.5H15.75C17.1289 7.5 18.25 8.62109 18.25 10V17.5C18.25 18.8789 17.1289 20 15.75 20H3.25C1.87109 20 0.75 18.8789 0.75 17.5V10C0.75 8.62109 1.87109 7.5 3.25 7.5H3.875Z" fill="#338E63" fill-opacity="0.7"/>
</svg>
