<svg width="17" height="17" viewBox="0 0 17 17" fill="none" xmlns="http://www.w3.org/2000/svg">
<g clip-path="url(#clip0_70_1917)">
<path d="M14.1657 6.49992H13.499V3.65325C13.499 3.17056 13.3073 2.70763 12.966 2.36632C12.6246 2.025 12.1617 1.83325 11.679 1.83325H3.31902C2.83633 1.83325 2.37341 2.025 2.03209 2.36632C1.69077 2.70763 1.49902 3.17056 1.49902 3.65325V8.67992C1.49902 9.16261 1.69077 9.62554 2.03209 9.96685C2.37341 10.3082 2.83633 10.4999 3.31902 10.4999H6.83236V11.8333H4.16569C3.98888 11.8333 3.81931 11.9035 3.69429 12.0285C3.56926 12.1535 3.49902 12.3231 3.49902 12.4999C3.49902 12.6767 3.56926 12.8463 3.69429 12.9713C3.81931 13.0963 3.98888 13.1666 4.16569 13.1666H10.1657C10.1657 13.697 10.3764 14.2057 10.7515 14.5808C11.1265 14.9559 11.6353 15.1666 12.1657 15.1666H14.1657C14.6961 15.1666 15.2048 14.9559 15.5799 14.5808C15.955 14.2057 16.1657 13.697 16.1657 13.1666V8.49992C16.1657 7.96949 15.955 7.46078 15.5799 7.0857C15.2048 6.71063 14.6961 6.49992 14.1657 6.49992ZM3.31902 9.16659C3.18995 9.16659 3.06617 9.11531 2.9749 9.02404C2.88363 8.93278 2.83236 8.80899 2.83236 8.67992V3.65325C2.83236 3.52418 2.88363 3.40039 2.9749 3.30913C3.06617 3.21786 3.18995 3.16659 3.31902 3.16659H11.679C11.8081 3.16659 11.9319 3.21786 12.0231 3.30913C12.1144 3.40039 12.1657 3.52418 12.1657 3.65325V6.49992C11.6353 6.49992 11.1265 6.71063 10.7515 7.0857C10.3764 7.46078 10.1657 7.96949 10.1657 8.49992V9.16659H3.31902ZM8.16569 11.8333V10.4999H10.1657V11.8333H8.16569ZM14.8324 13.1666C14.8324 13.3434 14.7621 13.513 14.6371 13.638C14.5121 13.763 14.3425 13.8333 14.1657 13.8333H12.1657C11.9889 13.8333 11.8193 13.763 11.6943 13.638C11.5693 13.513 11.499 13.3434 11.499 13.1666V8.49992C11.499 8.32311 11.5693 8.15354 11.6943 8.02851C11.8193 7.90349 11.9889 7.83325 12.1657 7.83325H14.1657C14.3425 7.83325 14.5121 7.90349 14.6371 8.02851C14.7621 8.15354 14.8324 8.32311 14.8324 8.49992V13.1666ZM14.1657 12.4999C14.1657 12.6767 14.0955 12.8463 13.9704 12.9713C13.8454 13.0963 13.6758 13.1666 13.499 13.1666H12.8324C12.6644 13.1666 12.5033 13.0999 12.3845 12.9811C12.2657 12.8623 12.199 12.7012 12.199 12.5333C12.199 12.3653 12.2657 12.2042 12.3845 12.0854C12.5033 11.9666 12.6644 11.8999 12.8324 11.8999H13.499C13.6649 11.8991 13.8251 11.9601 13.9483 12.071C14.0716 12.182 14.1491 12.3349 14.1657 12.4999Z" fill="black"/>
</g>
<defs>
<clipPath id="clip0_70_1917">
<rect width="16" height="16" fill="white" transform="translate(0.832397 0.5)"/>
</clipPath>
</defs>
</svg>
