<svg width="28" height="18" viewBox="0 0 28 18" fill="none" xmlns="http://www.w3.org/2000/svg">
<path d="M19.0902 11.0663C19.334 10.7922 19.3092 10.3725 19.0351 10.1288C18.761 9.88508 18.3413 9.90979 18.0976 10.1839L19.0902 11.0663ZM13.2814 16.6017L13.751 17.0712L13.7647 17.0574L13.7777 17.0429L13.2814 16.6017ZM11.7965 17.3359V18H11.8248L11.853 17.9975L11.7965 17.3359ZM13.1403 10.9986C13.3466 10.6954 13.2681 10.2823 12.9647 10.0761C12.6615 9.86981 12.2485 9.94844 12.0422 10.2516L13.1403 10.9986ZM24.7108 9.73421L25.6718 11.6563L26.8597 11.0623L25.8987 9.14013L24.7108 9.73421ZM5.17655 11.7149L1.74557 10.3425L1.25231 11.5757L4.68328 12.948L5.17655 11.7149ZM1.32814 9.72584V7.96885H0V9.72584H1.32814ZM1.32814 7.96885V3.32034H0V7.96885H1.32814ZM1.99221 2.65627H3.26213V1.32814H1.99221V2.65627ZM3.875 3.06464L5.68706 7.40784L6.91279 6.89638L5.10074 2.55324L3.875 3.06464ZM7.52565 8.63292H22.9288V7.30478H7.52565V8.63292ZM18.0976 10.1839L12.785 16.1605L13.7777 17.0429L19.0902 11.0663L18.0976 10.1839ZM11.7965 16.6719H10.4756V18H11.7965V16.6719ZM9.86826 15.809L13.1403 10.9986L12.0422 10.2516L8.7701 15.062L9.86826 15.809ZM10.4756 16.6719C10.055 16.6719 9.74681 16.2875 9.82186 15.8888L8.51666 15.6431C8.29036 16.8449 9.2083 18 10.4756 18V16.6719ZM12.8117 16.1321C12.4434 16.5004 12.3668 16.5649 12.3033 16.5963C12.2559 16.6197 12.1988 16.6351 11.7399 16.6743L11.853 17.9975C12.215 17.9667 12.5683 17.9469 12.8921 17.7868C13.1998 17.6346 13.4552 17.367 13.751 17.0712L12.8117 16.1321ZM25.0779 12.6173H15.9376V13.9455H25.0779V12.6173ZM10.7844 12.6173H9.86255V13.9455H10.7844V12.6173ZM18.4669 7.57824L13.5522 0.820444L12.478 1.60161L17.3927 8.35945L18.4669 7.57824ZM11.941 0H10.8702V1.32814H11.941V0ZM9.12124 2.94618L12.0344 8.2868L13.2002 7.65089L10.2872 2.31019L9.12124 2.94618ZM10.8702 0C9.35799 0 8.39712 1.61861 9.12124 2.94618L10.2872 2.31019C10.0458 1.86768 10.3661 1.32814 10.8702 1.32814V0ZM13.5522 0.820444C13.1772 0.304967 12.5784 0 11.941 0V1.32814C12.1534 1.32814 12.3531 1.42979 12.478 1.60161L13.5522 0.820444ZM5.68706 7.40784C5.9966 8.14974 6.72174 8.63292 7.52565 8.63292V7.30478C7.25768 7.30478 7.01598 7.14368 6.91279 6.89638L5.68706 7.40784ZM3.26213 2.65627C3.53011 2.65627 3.77182 2.81732 3.875 3.06464L5.10074 2.55324C4.79119 1.81131 4.06605 1.32814 3.26213 1.32814V2.65627ZM1.74557 10.3425C1.49345 10.2417 1.32814 9.99744 1.32814 9.72584H0C0 10.5405 0.495953 11.2731 1.25231 11.5757L1.74557 10.3425ZM4.68328 12.948C6.33054 13.6069 8.08839 13.9455 9.86255 13.9455V12.6173C8.25736 12.6173 6.66691 12.3111 5.17655 11.7149L4.68328 12.948ZM8.7701 15.062C8.67904 15.1959 8.56365 15.3935 8.51666 15.6431L9.82186 15.8888C9.82064 15.8953 9.82016 15.8924 9.827 15.878C9.83411 15.863 9.84658 15.8408 9.86826 15.809L8.7701 15.062ZM25.6718 11.6563C25.8926 12.0978 25.5715 12.6173 25.0779 12.6173V13.9455C26.5588 13.9455 27.522 12.3869 26.8597 11.0623L25.6718 11.6563ZM1.32814 3.32034C1.32814 2.95358 1.62545 2.65627 1.99221 2.65627V1.32814C0.891937 1.32814 0 2.22007 0 3.32034H1.32814ZM25.8987 9.14013C25.3362 8.01533 24.1866 7.30478 22.9288 7.30478V8.63292C23.6835 8.63292 24.3733 9.05925 24.7108 9.73421L25.8987 9.14013Z" fill="white"/>
</svg>
