<svg width="16" height="17" viewBox="0 0 16 17" fill="none" xmlns="http://www.w3.org/2000/svg">
<path fill-rule="evenodd" clip-rule="evenodd" d="M7.99996 3.08325C5.54441 3.08325 3.16175 3.79027 1.68017 5.11613C1.42617 5.34344 1.04009 5.31712 0.81784 5.05734C0.595588 4.79757 0.621324 4.40272 0.875323 4.17542C2.653 2.58458 5.36293 1.83325 7.99996 1.83325C10.637 1.83325 13.3469 2.58459 15.1246 4.17544C15.3786 4.40274 15.4043 4.7976 15.1821 5.05737C14.9598 5.31714 14.5737 5.34346 14.3197 5.11615C12.8382 3.79028 10.4555 3.08325 7.99996 3.08325ZM7.99996 6.41659C6.3894 6.41659 4.81569 6.95109 3.72771 7.97103C3.47892 8.20427 3.09235 8.18707 2.86429 7.93262C2.63623 7.67817 2.65305 7.28281 2.90184 7.04957C4.25831 5.77793 6.14756 5.16659 7.99996 5.16659C9.85235 5.16658 11.7416 5.77789 13.0981 7.04958C13.3469 7.28282 13.3637 7.67818 13.1356 7.93263C12.9076 8.18708 12.521 8.20427 12.2722 7.97102C11.1842 6.95106 9.61053 6.41658 7.99996 6.41659ZM7.99996 9.74992C7.12382 9.74991 6.24977 10.0633 5.55053 10.689C5.29653 10.9163 4.91045 10.89 4.6882 10.6302C4.46595 10.3704 4.49169 9.97559 4.74569 9.74829C5.67608 8.91571 6.83906 8.49991 7.99996 8.49992C9.16087 8.49992 10.3238 8.91573 11.2542 9.74834C11.5082 9.97564 11.534 10.3705 11.3117 10.6303C11.0895 10.89 10.7034 10.9164 10.4494 10.689C9.75014 10.0633 8.87609 9.74992 7.99996 9.74992ZM7.99996 13.0833C7.77495 13.0833 7.59255 13.2698 7.59255 13.4999C7.59255 13.73 7.77495 13.9166 7.99996 13.9166C8.22496 13.9166 8.40737 13.73 8.40737 13.4999C8.40737 13.2698 8.22496 13.0833 7.99996 13.0833ZM6.37033 13.4999C6.37033 12.5794 7.09994 11.8333 7.99996 11.8333C8.89998 11.8333 9.62959 12.5794 9.62959 13.4999C9.62959 14.4204 8.89998 15.1666 7.99996 15.1666C7.09994 15.1666 6.37033 14.4204 6.37033 13.4999Z" fill="black"/>
</svg>
