<svg width="25" height="25" viewBox="0 0 25 25" fill="none" xmlns="http://www.w3.org/2000/svg">
<g clip-path="url(#clip0_70_1360)">
<path d="M13.8437 15.2781L11.4583 16.7677V3.96871L14.5833 2.40621V8.62288C14.8829 8.19896 15.2327 7.81282 15.625 7.47288V2.40308L18.775 3.96871L18.7719 6.02496C19.109 5.96918 19.45 5.93993 19.7916 5.93746L19.8125 5.9385L19.8177 3.32392L15.1041 0.979126L10.9375 3.06246L6.77081 0.979126L2.08331 3.32392V18.6458L6.77081 15.7177L10.9375 18.3218L14.2187 16.2718C14.0785 15.935 13.9535 15.6045 13.8437 15.2781ZM6.24998 14.8156L3.12394 16.7698L3.09998 3.96767L6.24998 2.40413V14.8156ZM10.4166 16.7687L7.29165 14.8156V2.40517L10.4166 3.96767V16.7687ZM19.7916 7.29163C19.1072 7.29968 18.4313 7.44365 17.803 7.71516C17.1747 7.98667 16.6066 8.38031 16.1317 8.87322C15.6568 9.36613 15.2846 9.94849 15.0367 10.5865C14.7887 11.2244 14.67 11.9053 14.6875 12.5895C14.6875 15.5135 17.4771 19.4708 19.7916 23.9583C22.1062 19.4708 24.8958 15.5135 24.8958 12.5895C24.9132 11.9053 24.7946 11.2244 24.5466 10.5865C24.2987 9.94849 23.9265 9.36613 23.4516 8.87322C22.9767 8.38031 22.4086 7.98667 21.7803 7.71516C21.152 7.44365 20.4761 7.29968 19.7916 7.29163ZM19.7916 21.7468C19.4812 21.1812 19.1687 20.625 18.8646 20.0802C17.2521 17.2031 15.7291 14.4864 15.7291 12.5895C15.7012 12.0387 15.7856 11.488 15.9772 10.9709C16.1688 10.4537 16.4635 9.98087 16.8435 9.58116C17.2235 9.18144 17.6808 8.86317 18.1876 8.64569C18.6944 8.42821 19.2401 8.31606 19.7916 8.31606C20.3432 8.31606 20.8889 8.42821 21.3957 8.64569C21.9025 8.86317 22.3598 9.18144 22.7398 9.58116C23.1198 9.98087 23.4145 10.4537 23.6061 10.9709C23.7976 11.488 23.882 12.0387 23.8541 12.5895C23.8541 14.4854 22.3312 17.2031 20.7187 20.0791C20.4146 20.625 20.1021 21.1812 19.7916 21.7468ZM19.7916 10.2437C19.3439 10.2363 18.904 10.3622 18.5281 10.6056C18.1522 10.8489 17.8571 11.1987 17.6806 11.6102C17.5041 12.0218 17.454 12.4766 17.5368 12.9167C17.6196 13.3568 17.8314 13.7623 18.1454 14.0816C18.4594 14.4009 18.8613 14.6196 19.3 14.7097C19.7387 14.7999 20.1942 14.7574 20.6087 14.5878C21.0232 14.4182 21.3778 14.1291 21.6274 13.7573C21.877 13.3855 22.0103 12.9478 22.0104 12.5C22.013 12.2061 21.9577 11.9146 21.8476 11.6421C21.7374 11.3696 21.5747 11.1215 21.3686 10.912C21.1626 10.7024 20.9172 10.5356 20.6466 10.4209C20.3761 10.3062 20.0855 10.246 19.7916 10.2437ZM19.7916 13.7145C19.5497 13.7222 19.3109 13.6575 19.106 13.5286C18.9011 13.3997 18.7393 13.2126 18.6413 12.9912C18.5434 12.7698 18.5139 12.5242 18.5564 12.2859C18.5989 12.0476 18.7117 11.8274 18.8802 11.6535C19.0486 11.4797 19.2652 11.3601 19.5021 11.3101C19.7389 11.2601 19.9853 11.282 20.2097 11.3729C20.434 11.4638 20.6262 11.6197 20.7614 11.8205C20.8966 12.0213 20.9688 12.2579 20.9687 12.5C20.9732 12.817 20.8518 13.1228 20.6312 13.3505C20.4105 13.5781 20.1086 13.7091 19.7916 13.7145Z" fill="black"/>
</g>
<defs>
<clipPath id="clip0_70_1360">
<rect width="25" height="25" fill="white"/>
</clipPath>
</defs>
</svg>
