<svg width="15" height="15" viewBox="0 0 15 15" fill="none" xmlns="http://www.w3.org/2000/svg">
<path d="M14.8515 2.89604L11.4356 0L10.4703 1.11386L13.8861 4.0099L14.8515 2.89604ZM4.38119 1.18812L3.41584 0.0742574L0 2.89604L0.965346 4.0099L4.38119 1.18812ZM7.79703 4.60396H6.68317V9.05941L10.1733 11.2129L10.7673 10.3218L7.79703 8.5396V4.60396ZM7.42574 1.63366C3.71287 1.63366 0.742574 4.60396 0.742574 8.31683C0.742574 12.0297 3.71287 15 7.42574 15C11.1386 15 14.1089 12.0297 14.1089 8.31683C14.1089 4.60396 11.1386 1.63366 7.42574 1.63366ZM7.42574 13.5149C4.5297 13.5149 2.22772 11.2129 2.22772 8.31683C2.22772 5.42079 4.5297 3.11881 7.42574 3.11881C10.3218 3.11881 12.6238 5.42079 12.6238 8.31683C12.6238 11.2129 10.3218 13.5149 7.42574 13.5149Z" fill="#EA4335"/>
</svg>
