<svg width="26" height="25" viewBox="0 0 26 25" fill="none" xmlns="http://www.w3.org/2000/svg">
<path d="M19.4207 0H6.1394C2.90336 0 0.280029 2.62333 0.280029 5.85938V19.1406C0.280029 22.3767 2.90336 25 6.1394 25H19.4207C22.6567 25 25.28 22.3767 25.28 19.1406V5.85938C25.28 2.62333 22.6567 0 19.4207 0Z" fill="url(#paint0_radial_99_908)"/>
<path d="M19.4207 0H6.1394C2.90336 0 0.280029 2.62333 0.280029 5.85938V19.1406C0.280029 22.3767 2.90336 25 6.1394 25H19.4207C22.6567 25 25.28 22.3767 25.28 19.1406V5.85938C25.28 2.62333 22.6567 0 19.4207 0Z" fill="url(#paint1_radial_99_908)"/>
<path d="M12.7809 2.73438C10.1288 2.73438 9.79585 2.746 8.75425 2.79336C7.7146 2.84102 7.00493 3.00557 6.38403 3.24707C5.74165 3.49648 5.19683 3.83018 4.65405 4.37314C4.11079 4.91602 3.7771 5.46084 3.5269 6.10293C3.28472 6.72402 3.11997 7.43398 3.07319 8.47314C3.02661 9.51484 3.0144 9.84785 3.0144 12.5001C3.0144 15.1523 3.02612 15.4842 3.07339 16.5258C3.12124 17.5654 3.28579 18.2751 3.5271 18.896C3.77671 19.5384 4.1104 20.0832 4.65337 20.626C5.19604 21.1692 5.74087 21.5037 6.38276 21.7531C7.00415 21.9946 7.71392 22.1592 8.75337 22.2068C9.79507 22.2542 10.1277 22.2658 12.7797 22.2658C15.4322 22.2658 15.764 22.2542 16.8056 22.2068C17.8453 22.1592 18.5557 21.9946 19.1771 21.7531C19.8192 21.5037 20.3632 21.1692 20.9058 20.626C21.4491 20.0832 21.7827 19.5384 22.033 18.8963C22.273 18.2751 22.4378 17.5652 22.4867 16.526C22.5334 15.4844 22.5457 15.1523 22.5457 12.5001C22.5457 9.84785 22.5334 9.51504 22.4867 8.47334C22.4378 7.43369 22.273 6.72412 22.033 6.10322C21.7827 5.46084 21.4491 4.91602 20.9058 4.37314C20.3626 3.82998 19.8194 3.49629 19.1765 3.24717C18.554 3.00557 17.8439 2.84092 16.8042 2.79336C15.7625 2.746 15.4309 2.73438 12.7779 2.73438H12.7809ZM11.9048 4.49424C12.1649 4.49385 12.455 4.49424 12.7809 4.49424C15.3884 4.49424 15.6974 4.50361 16.7271 4.55039C17.6792 4.59395 18.196 4.75303 18.5403 4.88672C18.996 5.06367 19.3209 5.27529 19.6625 5.61719C20.0043 5.95898 20.2159 6.28447 20.3933 6.74023C20.527 7.08398 20.6863 7.60078 20.7296 8.55293C20.7764 9.58242 20.7866 9.8916 20.7866 12.4979C20.7866 15.1041 20.7764 15.4134 20.7296 16.4428C20.6861 17.3949 20.527 17.9117 20.3933 18.2556C20.2164 18.7113 20.0043 19.0358 19.6625 19.3774C19.3208 19.7192 18.9962 19.9308 18.5403 20.1078C18.1964 20.2421 17.6792 20.4008 16.7271 20.4443C15.6976 20.4911 15.3884 20.5013 12.7809 20.5013C10.1733 20.5013 9.86421 20.4911 8.83481 20.4443C7.88267 20.4004 7.36587 20.2413 7.02134 20.1076C6.56567 19.9306 6.24009 19.719 5.89829 19.3772C5.55649 19.0354 5.34497 18.7107 5.16753 18.2548C5.03384 17.9109 4.87456 17.3941 4.8312 16.442C4.78442 15.4125 4.77505 15.1033 4.77505 12.4954C4.77505 9.8876 4.78442 9.57998 4.8312 8.55049C4.87476 7.59834 5.03384 7.08154 5.16753 6.7373C5.34458 6.28154 5.55649 5.95605 5.89839 5.61426C6.24019 5.27246 6.56567 5.06084 7.02144 4.8835C7.36567 4.74922 7.88267 4.59053 8.83481 4.54678C9.73569 4.50605 10.0848 4.49385 11.9048 4.4918V4.49424ZM17.9938 6.11572C17.3468 6.11572 16.8219 6.64014 16.8219 7.28721C16.8219 7.93418 17.3468 8.45908 17.9938 8.45908C18.6408 8.45908 19.1657 7.93418 19.1657 7.28721C19.1657 6.64023 18.6408 6.11533 17.9938 6.11533V6.11572ZM12.7809 7.48496C10.0114 7.48496 7.76587 9.73047 7.76587 12.5001C7.76587 15.2697 10.0114 17.5142 12.7809 17.5142C15.5505 17.5142 17.7953 15.2697 17.7953 12.5001C17.7953 9.73057 15.5503 7.48496 12.7807 7.48496H12.7809ZM12.7809 9.24482C14.5787 9.24482 16.0362 10.7021 16.0362 12.5001C16.0362 14.2979 14.5787 15.7554 12.7809 15.7554C10.9831 15.7554 9.52573 14.2979 9.52573 12.5001C9.52573 10.7021 10.9831 9.24482 12.7809 9.24482Z" fill="white"/>
<defs>
<radialGradient id="paint0_radial_99_908" cx="0" cy="0" r="1" gradientUnits="userSpaceOnUse" gradientTransform="translate(6.92065 26.9255) rotate(-90) scale(24.7769 23.0444)">
<stop stop-color="#FFDD55"/>
<stop offset="0.1" stop-color="#FFDD55"/>
<stop offset="0.5" stop-color="#FF543E"/>
<stop offset="1" stop-color="#C837AB"/>
</radialGradient>
<radialGradient id="paint1_radial_99_908" cx="0" cy="0" r="1" gradientUnits="userSpaceOnUse" gradientTransform="translate(-3.90757 1.80088) rotate(78.681) scale(11.0754 45.6531)">
<stop stop-color="#3771C8"/>
<stop offset="0.128" stop-color="#3771C8"/>
<stop offset="1" stop-color="#6600FF" stop-opacity="0"/>
</radialGradient>
</defs>
</svg>
