<svg width="16" height="17" viewBox="0 0 16 17" fill="none" xmlns="http://www.w3.org/2000/svg">
<path d="M8.00004 1.87988C6.6815 1.87988 5.39257 2.27088 4.29624 3.00342C3.19991 3.73596 2.34543 4.77715 1.84085 5.99533C1.33626 7.2135 1.20424 8.55395 1.46148 9.84715C1.71871 11.1404 2.35365 12.3282 3.286 13.2606C4.21835 14.1929 5.40624 14.8279 6.69944 15.0851C7.99265 15.3424 9.33309 15.2103 10.5513 14.7057C11.7694 14.2012 12.8106 13.3467 13.5432 12.2503C14.2757 11.154 14.6667 9.86509 14.6667 8.54655C14.6667 6.77844 13.9643 5.08275 12.7141 3.8325C11.4638 2.58226 9.76815 1.87988 8.00004 1.87988ZM13.2667 9.35988C13.1376 9.27659 13.019 9.17811 12.9134 9.06655C12.8427 8.99022 12.7822 8.90507 12.7334 8.81322C12.7013 8.75601 12.683 8.69208 12.68 8.62655V8.53988C12.7081 8.45101 12.7673 8.37525 12.8467 8.32655C12.9961 8.2401 13.1618 8.18562 13.3334 8.16655C13.3334 8.29322 13.3334 8.42655 13.3334 8.55322C13.3313 8.82339 13.309 9.09303 13.2667 9.35988ZM8.38004 3.23322C8.4559 3.31813 8.52085 3.41219 8.57338 3.51322C8.66677 3.723 8.71449 3.95025 8.71338 4.17988C8.71603 4.31679 8.69109 4.45282 8.64004 4.57988C8.60073 4.67716 8.53632 4.76228 8.45338 4.82655C8.32642 4.90943 8.18986 4.97659 8.04671 5.02655C7.6895 5.1575 7.34386 5.31806 7.01338 5.50655C6.81442 5.62841 6.64026 5.78674 6.50004 5.97322C6.34225 6.18483 6.24749 6.43674 6.22671 6.69988V6.79988C6.2188 7.09261 6.31047 7.37936 6.48671 7.61322C6.71334 7.88628 7.02595 8.07432 7.37338 8.14655C7.62292 8.20526 7.87732 8.24097 8.13338 8.25322C8.21221 8.25617 8.28854 8.28161 8.35338 8.32655C8.35338 8.32655 8.38671 8.32655 8.40004 8.45322V8.55988C8.39233 8.74484 8.36325 8.92828 8.31338 9.10655C8.26004 9.31988 8.18671 9.56655 8.13338 9.83988C8.08747 10.104 8.06516 10.3718 8.06671 10.6399C8.06617 10.9266 8.09521 11.2125 8.15338 11.4932C8.16276 11.5819 8.16276 11.6712 8.15338 11.7599V11.8665L8.09338 11.8332C7.97109 11.7567 7.86285 11.6597 7.77338 11.5465C7.64883 11.3979 7.53308 11.2421 7.42671 11.0799C7.34671 10.9799 7.26004 10.8265 7.14671 10.6532C7.02464 10.4487 6.87173 10.2644 6.69338 10.1065C6.42789 9.89635 6.12786 9.73393 5.80671 9.62655C5.5797 9.55014 5.35713 9.46111 5.14004 9.35988C5.03516 9.31048 4.93848 9.24528 4.85338 9.16655C4.79338 9.11322 4.77338 9.08655 4.76671 9.06655V8.97322C4.76925 8.8569 4.7918 8.74188 4.83338 8.63322C4.86478 8.54119 4.91217 8.45544 4.97338 8.37988C5.08671 8.24655 5.22004 8.13988 5.38671 7.94655C5.57748 7.7221 5.71025 7.45427 5.77338 7.16655C5.82364 6.95923 5.84827 6.74653 5.84671 6.53322C5.84416 5.88732 5.60727 5.2643 5.18004 4.77988C5.02837 4.62145 4.85565 4.48461 4.66671 4.37322C5.61107 3.61419 6.7885 3.20445 8.00004 3.21322L8.38004 3.23322ZM11.7734 12.3199C10.8119 13.2506 9.53576 13.786 8.19804 13.8197C6.86031 13.8534 5.55879 13.3829 4.55173 12.5018C3.54466 11.6206 2.90565 10.393 2.76146 9.06267C2.61728 7.73231 2.97848 6.39635 3.77338 5.31988C3.95865 5.37164 4.12375 5.47861 4.24671 5.62655C4.46966 5.87548 4.591 6.19907 4.58671 6.53322C4.58585 6.64987 4.57244 6.7661 4.54671 6.87988C4.5293 6.98056 4.4856 7.07485 4.42004 7.15322C4.35338 7.23322 4.21338 7.35322 4.03338 7.55322C3.86149 7.74755 3.73005 7.97419 3.64671 8.21988C3.5508 8.4688 3.50109 8.73313 3.50004 8.99988C3.49914 9.16929 3.52386 9.33787 3.57338 9.49988C3.66692 9.75963 3.82801 9.98975 4.04004 10.1665C4.20113 10.3009 4.37799 10.415 4.56671 10.5065C4.86671 10.6532 5.14671 10.7399 5.37338 10.8265C5.55526 10.8851 5.72639 10.973 5.88004 11.0865C5.96394 11.1669 6.0358 11.259 6.09338 11.3599C6.18004 11.4865 6.27338 11.6532 6.40004 11.8265C6.57706 12.099 6.78024 12.3536 7.00671 12.5865C7.15053 12.7333 7.31437 12.859 7.49338 12.9599C7.69732 13.0749 7.92603 13.1389 8.16004 13.1465C8.35836 13.1491 8.55458 13.1057 8.73338 13.0199C8.98547 12.8929 9.18402 12.6801 9.29338 12.4199C9.3838 12.2096 9.42703 11.982 9.42004 11.7532C9.41803 11.5717 9.39793 11.3908 9.36004 11.2132C9.31927 11.0226 9.29915 10.8281 9.30004 10.6332C9.29874 10.4411 9.31436 10.2493 9.34671 10.0599C9.38004 9.87322 9.44671 9.65988 9.50671 9.39322C9.58678 9.11569 9.62938 8.8287 9.63338 8.53988C9.64 8.45779 9.64 8.3753 9.63338 8.29322C9.60242 7.92392 9.42765 7.58157 9.14671 7.33988C8.88402 7.12333 8.55979 6.99503 8.22004 6.97322C7.99366 6.96631 7.76932 6.92817 7.55338 6.85988L7.49338 6.82655V6.75988C7.49338 6.69322 7.49338 6.69322 7.56004 6.62655C7.75837 6.46991 7.98458 6.35228 8.22671 6.27988C8.56983 6.17011 8.89878 6.02018 9.20671 5.83322C9.4724 5.63386 9.67962 5.36677 9.80671 5.05988C9.93256 4.77174 9.99834 4.46097 10 4.14655C9.99802 3.95363 9.97567 3.76146 9.93338 3.57322C10.6764 3.85748 11.3464 4.30436 11.8943 4.88113C12.4423 5.4579 12.8542 6.14994 13.1 6.90655C12.7825 6.96659 12.4794 7.0865 12.2067 7.25988C11.8799 7.47512 11.6428 7.80226 11.54 8.17988C11.4946 8.3198 11.4721 8.46613 11.4734 8.61322C11.4762 8.87038 11.5377 9.1235 11.6534 9.35322C11.8063 9.65549 12.0196 9.92321 12.28 10.1399C12.4849 10.3227 12.7084 10.4836 12.9467 10.6199C12.6682 11.2565 12.2699 11.8337 11.7734 12.3199Z" fill="#71717A"/>
</svg>
