<svg width="23" height="23" viewBox="0 0 23 23" fill="none" xmlns="http://www.w3.org/2000/svg">
<path d="M1.08337 11.5002C1.08337 17.2533 5.74692 21.9168 11.5 21.9168C17.2532 21.9168 21.9167 17.2533 21.9167 11.5002C21.9167 5.74704 17.2532 1.0835 11.5 1.0835C5.74692 1.0835 1.08337 5.74704 1.08337 11.5002Z" stroke="black" stroke-width="1.5625" stroke-linecap="round" stroke-linejoin="round"/>
<path d="M12.5417 1.13574C12.5417 1.13574 15.6667 5.25033 15.6667 11.5003C15.6667 17.7503 12.5417 21.8649 12.5417 21.8649M10.4584 21.8649C10.4584 21.8649 7.33337 17.7503 7.33337 11.5003C7.33337 5.25033 10.4584 1.13574 10.4584 1.13574M1.73962 15.1462H21.2605M1.73962 7.85449H21.2605" stroke="black" stroke-width="1.5625" stroke-linecap="round" stroke-linejoin="round"/>
</svg>
