<svg width="19" height="22" viewBox="0 0 19 22" fill="none" xmlns="http://www.w3.org/2000/svg">
<path fill-rule="evenodd" clip-rule="evenodd" d="M9.88942 0C12.1384 0 13.9615 1.81442 13.9615 4.05263L13.9615 5.7893L15.125 5.78947C17.0527 5.78947 18.6154 7.3447 18.6154 9.26316V18.5263C18.6154 20.4448 17.0527 22 15.125 22H3.49039C1.5627 22 0 20.4448 0 18.5263V9.26316C0 7.3447 1.5627 5.78947 3.49039 5.78947L4.65382 5.7893L4.65385 4.05263C4.65385 1.81442 6.47699 0 8.72596 0H9.88942ZM15.125 8.10526H3.49038C2.84782 8.10526 2.32692 8.62367 2.32692 9.26316V18.5263C2.32692 19.1658 2.84782 19.6842 3.49038 19.6842H15.125C15.7676 19.6842 16.2885 19.1658 16.2885 18.5263V9.26316C16.2885 8.62367 15.7676 8.10526 15.125 8.10526ZM9.30769 10.4211C10.5928 10.4211 11.6346 11.4579 11.6346 12.7368C11.6346 13.594 11.1667 14.3423 10.4712 14.7428L10.4712 16.2105C10.4712 16.85 9.95025 17.3684 9.30769 17.3684C8.66513 17.3684 8.14423 16.85 8.14423 16.2105L8.14414 14.7428C7.44867 14.3423 6.98077 13.594 6.98077 12.7368C6.98077 11.4579 8.02257 10.4211 9.30769 10.4211ZM9.88942 2.31579H8.72596C7.76212 2.31579 6.98077 3.0934 6.98077 4.05263V5.78947H11.6346V4.05263C11.6346 3.0934 10.8533 2.31579 9.88942 2.31579Z" fill="black"/>
</svg>
