<svg width="22" height="22" viewBox="0 0 22 22" fill="none" xmlns="http://www.w3.org/2000/svg">
<path d="M18.955 19.328L18.4439 6.2189C18.3833 4.64685 17.1014 3.41693 15.5294 3.41693H14.4034C14.1565 1.48543 12.7447 0 11.0428 0C9.34079 0 7.93331 1.48543 7.68213 3.4126H6.4219C4.84985 3.4126 3.56796 4.64252 3.50733 6.21457L3.00064 19.328C2.97898 19.839 3.50733 21.2638 4.86284 21.2638H5.38253V21.3894C5.38253 21.7272 5.65536 22 5.99316 22C6.33095 22 6.60379 21.7272 6.60379 21.3894V21.2638H15.3518V21.3894C15.3518 21.7272 15.6247 22 15.9624 22C16.3002 22 16.5731 21.7272 16.5731 21.3894V21.2638H17.0928C18.7341 21.2638 18.9766 19.839 18.955 19.328ZM11.0428 1.22126C12.0821 1.22126 12.9526 2.16102 13.1735 3.4126H8.91639C9.13292 2.16102 10.0034 1.22126 11.0428 1.22126ZM4.73292 6.26221C4.76757 5.34843 5.51245 4.63386 6.42623 4.63386H15.5337C16.4475 4.63386 17.188 5.34843 17.227 6.26221L17.3829 10.2205C13.2124 11.7016 8.90772 11.7016 4.58135 10.2161L4.73292 6.26221ZM17.0928 20.0382H4.86284C4.39946 20.0382 4.21324 19.5488 4.2219 19.3713L4.52938 11.485C5.52544 11.8098 6.51717 12.061 7.50457 12.2386V12.9618C7.50457 13.2996 7.77741 13.5724 8.1152 13.5724C8.453 13.5724 8.72583 13.2996 8.72583 12.9618V12.4161C9.50103 12.5071 10.2719 12.5547 11.0428 12.5547C11.7747 12.5547 12.5022 12.5071 13.2298 12.4291V12.9618C13.2298 13.2996 13.5026 13.5724 13.8404 13.5724C14.1782 13.5724 14.451 13.2996 14.451 12.9618V12.2559C15.4514 12.0783 16.4432 11.8272 17.4306 11.4937L17.738 19.3713C17.7424 19.5488 17.6601 20.0382 17.0928 20.0382Z" fill="black"/>
<path d="M15.2048 6.05005H6.74647C6.40935 6.05005 6.13705 6.32288 6.13705 6.66068C6.13705 6.99847 6.40935 7.27131 6.74647 7.27131H13.6489V8.18509C13.6489 8.52288 13.9211 8.79572 14.2583 8.79572C14.5954 8.79572 14.8677 8.52288 14.8677 8.18509V7.27131H15.2048C15.5419 7.27131 15.8142 6.99847 15.8142 6.66068C15.8142 6.32288 15.5419 6.05005 15.2048 6.05005Z" fill="black"/>
</svg>
