<svg width="31" height="30" viewBox="0 0 31 30" fill="none" xmlns="http://www.w3.org/2000/svg">
<path fill-rule="evenodd" clip-rule="evenodd" d="M19.1449 11.9213H12.0201C9.89416 11.9799 8.21611 13.7933 8.27 15.9738V20.895C8.21611 23.0755 9.89416 24.8889 12.0201 24.9475H19.1449C21.2709 24.8889 22.9489 23.0755 22.895 20.895V15.9738C22.9489 13.7933 21.2709 11.9799 19.1449 11.9213Z" stroke="black" stroke-linecap="round" stroke-linejoin="round"/>
<path d="M10.9888 11.9213C10.9888 12.439 11.4085 12.8588 11.9263 12.8588C12.444 12.8588 12.8638 12.439 12.8638 11.9213H10.9888ZM11.9263 6.07626H12.8638L12.8637 6.0728L11.9263 6.07626ZM14.1761 3.75001V2.8125L14.1719 2.81253L14.1761 3.75001ZM16.989 3.75001L16.9931 2.81251H16.989V3.75001ZM19.2387 6.07626L18.3012 6.0728V6.07626H19.2387ZM18.3012 11.9225C18.3012 12.4403 18.721 12.86 19.2387 12.86C19.7565 12.86 20.1762 12.4403 20.1762 11.9225H18.3012ZM18.3012 26.25C18.3012 26.7678 18.721 27.1875 19.2387 27.1875C19.7565 27.1875 20.1762 26.7678 20.1762 26.25H18.3012ZM20.1762 24.9475C20.1762 24.4298 19.7565 24.01 19.2387 24.01C18.721 24.01 18.3012 24.4298 18.3012 24.9475H20.1762ZM10.9888 26.25C10.9888 26.7678 11.4085 27.1875 11.9263 27.1875C12.444 27.1875 12.8638 26.7678 12.8638 26.25H10.9888ZM12.8638 24.9475C12.8638 24.4298 12.444 24.01 11.9263 24.01C11.4085 24.01 10.9888 24.4298 10.9888 24.9475H12.8638ZM13.145 15.5425C12.6272 15.5425 12.2075 15.9623 12.2075 16.48C12.2075 16.9978 12.6272 17.4175 13.145 17.4175V15.5425ZM18.02 17.4175C18.5377 17.4175 18.9575 16.9978 18.9575 16.48C18.9575 15.9623 18.5377 15.5425 18.02 15.5425V17.4175ZM13.145 19.4513C12.6272 19.4513 12.2075 19.871 12.2075 20.3888C12.2075 20.9065 12.6272 21.3263 13.145 21.3263V19.4513ZM18.02 21.3263C18.5377 21.3263 18.9575 20.9065 18.9575 20.3888C18.9575 19.871 18.5377 19.4513 18.02 19.4513V21.3263ZM12.8638 11.9213V6.07626H10.9888V11.9213H12.8638ZM12.8637 6.0728C12.8609 5.28838 13.4725 4.69062 14.1802 4.6875L14.1719 2.81253C12.3848 2.82041 10.9822 4.30528 10.9888 6.07973L12.8637 6.0728ZM14.1761 4.68751H16.989V2.81251L14.1761 2.8125V4.68751ZM16.9847 4.6875C17.6925 4.69062 18.3041 5.28838 18.3012 6.0728L20.1762 6.07973C20.1827 4.30528 18.7802 2.8204 16.9931 2.81251L16.9847 4.6875ZM18.3012 6.07626V11.9225H20.1762V6.07626H18.3012ZM20.1762 26.25V24.9475H18.3012V26.25H20.1762ZM12.8638 26.25V24.9475H10.9888V26.25H12.8638ZM13.145 17.4175H18.02V15.5425H13.145V17.4175ZM13.145 21.3263H18.02V19.4513H13.145V21.3263Z" fill="black"/>
</svg>
