<svg width="25" height="25" viewBox="0 0 25 25" fill="none" xmlns="http://www.w3.org/2000/svg">
<path fill-rule="evenodd" clip-rule="evenodd" d="M12.5542 1.30225H12.4458C11.5099 1.30222 10.7295 1.3022 10.1099 1.38549C9.45597 1.47341 8.86555 1.66682 8.3911 2.14127C7.91665 2.61572 7.72325 3.20613 7.63532 3.86008C7.55203 4.47964 7.55205 5.26007 7.55208 6.19599V6.27696C5.44669 6.34584 4.1824 6.59186 3.30372 7.47055C2.58059 8.19367 2.28595 9.17794 2.16589 10.6772H22.8341C22.7141 9.17794 22.4194 8.19367 21.6962 7.47055C20.8176 6.59186 19.5533 6.34584 17.4479 6.27696V6.19601C17.4479 5.2601 17.448 4.47964 17.3647 3.86008C17.2768 3.20613 17.0833 2.61572 16.6089 2.14127C16.1345 1.66682 15.5441 1.47341 14.8901 1.38549C14.2705 1.3022 13.4901 1.30222 12.5542 1.30225ZM15.8854 6.25213V6.25016C15.8854 5.24599 15.8837 4.57145 15.8161 4.06829C15.7515 3.58759 15.6398 3.38187 15.5041 3.24612C15.3683 3.11037 15.1626 2.99868 14.6819 2.93406C14.1787 2.86641 13.5042 2.86475 12.5 2.86475C11.4958 2.86475 10.8212 2.86641 10.3181 2.93406C9.83742 2.99868 9.63171 3.11037 9.49596 3.24612C9.36021 3.38187 9.24852 3.58759 9.18389 4.06829C9.11625 4.57145 9.11458 5.24599 9.11458 6.25016V6.25213C9.52295 6.25016 9.95632 6.25016 10.4167 6.25016H14.5833C15.0436 6.25016 15.4771 6.25016 15.8854 6.25213Z" fill="#338E63" fill-opacity="0.4"/>
<path d="M2.08337 14.5835C2.08337 13.7095 2.08337 12.9328 2.09681 12.2397H22.9033C22.9167 12.9328 22.9167 13.7095 22.9167 14.5835C22.9167 15.4575 22.9167 16.2342 22.9033 16.9272H2.09681C2.08337 16.2342 2.08337 15.4575 2.08337 14.5835Z" fill="#338E63" fill-opacity="0.4"/>
<path d="M2.16589 18.4897C2.28595 19.989 2.58059 20.9733 3.30372 21.6964C4.52411 22.9168 6.48829 22.9168 10.4167 22.9168H14.5833C18.5117 22.9168 20.4759 22.9168 21.6962 21.6964C22.4194 20.9733 22.7141 19.989 22.8341 18.4897H2.16589Z" fill="#338E63" fill-opacity="0.4"/>
</svg>
