<svg width="16" height="17" viewBox="0 0 16 17" fill="none" xmlns="http://www.w3.org/2000/svg">
<path d="M8.66671 4.32659C8.65519 4.28298 8.63956 4.24057 8.62004 4.19992C8.62004 4.19992 8.62004 4.19992 8.62004 4.15992C8.62004 4.11992 8.58004 4.11992 8.56671 4.09992C8.54092 4.06199 8.50943 4.02826 8.47337 3.99992L8.37337 3.92659C8.33523 3.9049 8.29503 3.88704 8.25337 3.87325H8.12004L8.00004 3.83325H7.95337H7.82671L7.70004 3.87992H7.66004L4.48004 5.83325H3.33337C2.80294 5.83325 2.29423 6.04397 1.91916 6.41904C1.54409 6.79411 1.33337 7.30282 1.33337 7.83325V9.16659C1.33337 9.69702 1.54409 10.2057 1.91916 10.5808C2.29423 10.9559 2.80294 11.1666 3.33337 11.1666H4.48004L7.66004 13.0733H7.70004L7.82671 13.1199H7.95337H8.00004H8.07337H8.20671C8.24836 13.1061 8.28856 13.0883 8.32671 13.0666L8.42671 12.9933C8.46277 12.9649 8.49425 12.9312 8.52004 12.8933C8.52004 12.8933 8.56004 12.8599 8.57337 12.8333C8.58671 12.8066 8.57337 12.8333 8.57337 12.7933C8.5929 12.7526 8.60852 12.7102 8.62004 12.6666C8.62315 12.6244 8.62315 12.5821 8.62004 12.5399L8.66671 12.4999V4.49992C8.66671 4.49992 8.66671 4.49992 8.66671 4.45325C8.66982 4.41109 8.66982 4.36875 8.66671 4.32659ZM2.66671 9.16659V7.83325C2.66671 7.65644 2.73695 7.48687 2.86197 7.36185C2.98699 7.23682 3.15656 7.16659 3.33337 7.16659H4.71337H4.84004L4.96671 7.11992H5.00671L7.33337 5.67992V11.3199L5.00671 9.92659H4.96671L4.84004 9.87992H4.71337H3.33337C3.24176 9.88014 3.15108 9.86148 3.06699 9.8251C2.98291 9.78872 2.90723 9.73539 2.84467 9.66846C2.78211 9.60152 2.73403 9.52241 2.70341 9.43606C2.67279 9.34971 2.66029 9.25798 2.66671 9.16659Z" fill="black"/>
<path d="M12.94 8.49992L14 7.47326C14.1291 7.34419 14.2016 7.16913 14.2016 6.98659C14.2016 6.80405 14.1291 6.629 14 6.49992C13.871 6.37085 13.6959 6.29834 13.5134 6.29834C13.3308 6.29834 13.1558 6.37085 13.0267 6.49992L12 7.55992L10.9734 6.49992C10.8443 6.37085 10.6692 6.29834 10.4867 6.29834C10.3042 6.29834 10.1291 6.37085 10 6.49992C9.87097 6.629 9.79846 6.80405 9.79846 6.98659C9.79846 7.16913 9.87097 7.34419 10 7.47326L11.06 8.49992L10 9.52659C9.87097 9.65566 9.79846 9.83072 9.79846 10.0133C9.79846 10.1958 9.87097 10.3709 10 10.4999C10.1291 10.629 10.3042 10.7015 10.4867 10.7015C10.6692 10.7015 10.8443 10.629 10.9734 10.4999L12 9.43992L13.0267 10.4999C13.1558 10.629 13.3308 10.7015 13.5134 10.7015C13.6959 10.7015 13.871 10.629 14 10.4999C14.1291 10.3709 14.2016 10.1958 14.2016 10.0133C14.2016 9.83072 14.1291 9.65566 14 9.52659L12.94 8.49992Z" fill="black"/>
</svg>
