<svg width="19" height="22" viewBox="0 0 19 22" fill="none" xmlns="http://www.w3.org/2000/svg">
<path fill-rule="evenodd" clip-rule="evenodd" d="M10.0817 0C12.3307 0 14.1538 1.81443 14.1538 4.05263L14.1537 5.7893L15.3173 5.78947C17.2449 5.78947 18.8076 7.3447 18.8076 9.26316V18.5263C18.8076 20.4448 17.2449 22 15.3173 22H3.68265C1.75496 22 0.192261 20.4448 0.192261 18.5263V9.26316C0.192261 7.3447 1.75496 5.78947 3.68265 5.78947L4.84608 5.7893L4.84611 4.05263C4.84611 1.81443 6.66926 0 8.91822 0H10.0817ZM15.3173 8.10526H3.68265C3.04008 8.10526 2.51918 8.62367 2.51918 9.26316V18.5263C2.51918 19.1658 3.04008 19.6842 3.68265 19.6842H15.3173C15.9598 19.6842 16.4807 19.1658 16.4807 18.5263V9.26316C16.4807 8.62367 15.9598 8.10526 15.3173 8.10526ZM9.49995 10.4211C10.7851 10.4211 11.8269 11.4579 11.8269 12.7368C11.8269 13.594 11.359 14.3423 10.6635 14.7428L10.6634 16.2105C10.6634 16.85 10.1425 17.3684 9.49995 17.3684C8.85739 17.3684 8.33649 16.85 8.33649 16.2105L8.3364 14.7428C7.64093 14.3423 7.17303 13.594 7.17303 12.7368C7.17303 11.4579 8.21483 10.4211 9.49995 10.4211ZM10.0817 2.31579H8.91822C7.95438 2.31579 7.17303 3.0934 7.17303 4.05263V5.78947H11.8269V4.05263C11.8269 3.0934 11.0455 2.31579 10.0817 2.31579Z" fill="#338E63" fill-opacity="0.7"/>
</svg>
