<svg width="26" height="25" viewBox="0 0 26 25" fill="none" xmlns="http://www.w3.org/2000/svg">
<path d="M22.2813 11.5832C22.2813 16.677 18.5834 21.4478 13.5313 22.8437C13.1875 22.9374 12.8125 22.9374 12.4688 22.8437C7.41666 21.4478 3.71875 16.677 3.71875 11.5832V7.01029C3.71875 6.15613 4.36459 5.18739 5.16668 4.86447L10.9688 2.4895C12.2709 1.95825 13.7396 1.95825 15.0417 2.4895L20.8438 4.86447C21.6354 5.18739 22.2917 6.15613 22.2917 7.01029L22.2813 11.5832Z" stroke="black" stroke-width="1.5" stroke-linecap="round" stroke-linejoin="round"/>
<path d="M13 13.0207C14.1506 13.0207 15.0833 12.088 15.0833 10.9373C15.0833 9.78674 14.1506 8.854 13 8.854C11.8493 8.854 10.9166 9.78674 10.9166 10.9373C10.9166 12.088 11.8493 13.0207 13 13.0207Z" stroke="black" stroke-width="1.5" stroke-miterlimit="10" stroke-linecap="round" stroke-linejoin="round"/>
<path d="M13 13.021V16.146" stroke="black" stroke-width="1.5" stroke-miterlimit="10" stroke-linecap="round" stroke-linejoin="round"/>
</svg>
