<svg width="25" height="25" viewBox="0 0 25 25" fill="none" xmlns="http://www.w3.org/2000/svg">
<path d="M11.4584 4.16672H7.50002C6.33325 4.16672 5.74985 4.16672 5.30421 4.39379C4.9122 4.59353 4.59349 4.91224 4.39376 5.30424C4.16669 5.74989 4.16669 6.33328 4.16669 7.50005V17.5C4.16669 18.6668 4.16669 19.2503 4.39376 19.6959C4.59349 20.0879 4.9122 20.4066 5.30421 20.6063C5.74985 20.8334 6.33325 20.8334 7.50002 20.8334H17.5C18.6668 20.8334 19.2502 20.8334 19.6959 20.6063C20.0878 20.4066 20.4066 20.0879 20.6063 19.6959C20.8334 19.2503 20.8334 18.6668 20.8334 17.5V13.0209M16.1459 5.72922L19.0921 8.6755M11.2112 10.6639L18.1365 3.73861C18.95 2.92502 20.2692 2.92502 21.0827 3.73861C21.8964 4.55221 21.8964 5.8713 21.0827 6.68489L13.9348 13.8328C13.1415 14.6262 12.7448 15.0229 12.2929 15.3383C11.8919 15.6184 11.4593 15.8503 11.0042 16.0294C10.4914 16.2313 9.94146 16.3422 8.84161 16.5642L8.33335 16.6667L8.38278 16.3207C8.55769 15.0964 8.64514 14.4842 8.84407 13.9127C9.02059 13.4055 9.26174 12.9233 9.56154 12.4778C9.89941 11.9757 10.3367 11.5384 11.2112 10.6639Z" stroke="black" stroke-linecap="round" stroke-linejoin="round"/>
</svg>
