<svg width="33" height="32" viewBox="0 0 33 32" fill="none" xmlns="http://www.w3.org/2000/svg">
<path d="M16.5 16C15.0334 16 13.7778 15.4778 12.7334 14.4333C11.6889 13.3889 11.1667 12.1333 11.1667 10.6666C11.1667 9.19998 11.6889 7.94442 12.7334 6.89998C13.7778 5.85554 15.0334 5.33331 16.5 5.33331C17.9667 5.33331 19.2223 5.85554 20.2667 6.89998C21.3112 7.94442 21.8334 9.19998 21.8334 10.6666C21.8334 12.1333 21.3112 13.3889 20.2667 14.4333C19.2223 15.4778 17.9667 16 16.5 16ZM5.83337 26.6666V22.9333C5.83337 22.1778 6.02782 21.4833 6.41671 20.85C6.8056 20.2166 7.32226 19.7333 7.96671 19.4C9.34449 18.7111 10.7445 18.1944 12.1667 17.85C13.5889 17.5055 15.0334 17.3333 16.5 17.3333C17.9667 17.3333 19.4112 17.5055 20.8334 17.85C22.2556 18.1944 23.6556 18.7111 25.0334 19.4C25.6778 19.7333 26.1945 20.2166 26.5834 20.85C26.9723 21.4833 27.1667 22.1778 27.1667 22.9333V26.6666H5.83337ZM8.50004 24H24.5V22.9333C24.5 22.6889 24.4389 22.4666 24.3167 22.2666C24.1945 22.0666 24.0334 21.9111 23.8334 21.8C22.6334 21.2 21.4223 20.75 20.2 20.45C18.9778 20.15 17.7445 20 16.5 20C15.2556 20 14.0223 20.15 12.8 20.45C11.5778 20.75 10.3667 21.2 9.16671 21.8C8.96671 21.9111 8.8056 22.0666 8.68337 22.2666C8.56115 22.4666 8.50004 22.6889 8.50004 22.9333V24ZM16.5 13.3333C17.2334 13.3333 17.8612 13.0722 18.3834 12.55C18.9056 12.0278 19.1667 11.4 19.1667 10.6666C19.1667 9.93331 18.9056 9.30554 18.3834 8.78331C17.8612 8.26109 17.2334 7.99998 16.5 7.99998C15.7667 7.99998 15.1389 8.26109 14.6167 8.78331C14.0945 9.30554 13.8334 9.93331 13.8334 10.6666C13.8334 11.4 14.0945 12.0278 14.6167 12.55C15.1389 13.0722 15.7667 13.3333 16.5 13.3333Z" fill="#338E63" fill-opacity="0.7"/>
</svg>
