<svg width="25" height="25" viewBox="0 0 25 25" fill="none" xmlns="http://www.w3.org/2000/svg">
<path fill-rule="evenodd" clip-rule="evenodd" d="M2.09581 5.83574C1.90956 3.64608 3.76645 2.08334 5.74132 2.08334H8.21458C9.39501 2.08334 10.4595 2.79357 10.9128 3.88354L12.1312 6.81409C12.5484 7.81727 12.3745 8.96904 11.6799 9.80437L10.3753 11.3731C11.217 12.6519 12.2774 13.8049 13.485 14.7594L15.1904 13.3353C16.0271 12.6366 17.1833 12.4617 18.1892 12.8817L21.1082 14.1004C22.196 14.5547 22.9043 15.618 22.9043 16.7969C22.9043 17.2036 22.9075 17.6104 22.9106 18.0218V18.0234C22.9136 18.4329 22.9167 18.8469 22.9167 19.2618C22.9167 21.2365 21.3541 23.0937 19.1641 22.9067C10.2685 22.1472 2.85428 14.7529 2.09581 5.83574ZM5.74132 4.16668C4.75845 4.16668 4.10721 4.90174 4.17164 5.65917C4.84397 13.5637 11.4548 20.1576 19.3413 20.8309C20.0984 20.8955 20.8334 20.2447 20.8334 19.2618C20.8334 18.8555 20.8304 18.4489 20.8272 18.0375V18.0349C20.8241 17.6256 20.821 17.2119 20.821 16.7969C20.821 16.4586 20.6177 16.1533 20.3055 16.0229L17.3865 14.8042C17.0978 14.6837 16.7659 14.7338 16.5257 14.9344L13.5757 17.3978L12.922 16.9378C11.0112 15.5931 9.3737 13.8233 8.19528 11.8108L7.82606 11.1802L10.078 8.47229C10.2774 8.23252 10.3273 7.90192 10.2076 7.61396L8.98905 4.68341C8.85896 4.37054 8.55341 4.16668 8.21458 4.16668H5.74132Z" fill="#338E63" fill-opacity="0.7"/>
</svg>
