<svg width="40" height="40" viewBox="0 0 23 23" fill="none" xmlns="http://www.w3.org/2000/svg">
<path d="M19.4968 17.3105C19.9282 16.5368 20.2517 15.6526 20.2517 14.6578C20.2517 11.8947 18.0951 9.68415 15.3993 9.68415C12.7035 9.68415 10.5469 11.8947 10.5469 14.6578C10.5469 17.421 12.7035 19.6315 15.3993 19.6315C16.3698 19.6315 17.2324 19.2999 17.9872 18.8578L21.4378 22.3947L22.9474 20.8473L19.4968 17.3105ZM15.3993 17.421C13.8897 17.421 12.7035 16.2052 12.7035 14.6578C12.7035 13.1105 13.8897 11.8947 15.3993 11.8947C16.9089 11.8947 18.0951 13.1105 18.0951 14.6578C18.0951 16.2052 16.9089 17.421 15.3993 17.421ZM11.6252 20.7368V22.9473C5.67297 22.9473 0.842163 17.9957 0.842163 11.8947C0.842163 5.79362 5.67297 0.842041 11.6252 0.842041C16.8442 0.842041 21.1898 4.64415 22.1926 9.68415H19.9605C19.2704 6.9652 17.3726 4.74362 14.8601 3.70467V4.15783C14.8601 5.37362 13.8897 6.36836 12.7035 6.36836H10.5469V8.57888C10.5469 9.18678 10.0617 9.68415 9.46861 9.68415H7.312V11.8947H9.46861V15.2105H8.3903L3.22522 9.91625C3.08504 10.5573 2.99877 11.2094 2.99877 11.8947C2.99877 16.7689 6.86989 20.7368 11.6252 20.7368Z" fill="#338E63"/>
</svg>
