<svg width="20" height="20" viewBox="0 0 20 20" fill="none" xmlns="http://www.w3.org/2000/svg">
<path d="M9.08676 20V18.1735C7.18417 17.9604 5.55175 17.1728 4.1895 15.8105C2.82725 14.4482 2.03957 12.8158 1.82648 10.9132H0V9.08676H1.82648C2.03957 7.18417 2.82725 5.55175 4.1895 4.1895C5.55175 2.82725 7.18417 2.03957 9.08676 1.82648V0H10.9132V1.82648C12.8158 2.03957 14.4482 2.82725 15.8105 4.1895C17.1728 5.55175 17.9604 7.18417 18.1735 9.08676H20V10.9132H18.1735C17.9604 12.8158 17.1728 14.4482 15.8105 15.8105C14.4482 17.1728 12.8158 17.9604 10.9132 18.1735V20H9.08676ZM10 16.3927C11.7656 16.3927 13.2725 15.7686 14.5205 14.5205C15.7686 13.2725 16.3927 11.7656 16.3927 10C16.3927 8.2344 15.7686 6.72755 14.5205 5.47945C13.2725 4.23135 11.7656 3.60731 10 3.60731C8.2344 3.60731 6.72755 4.23135 5.47945 5.47945C4.23135 6.72755 3.60731 8.2344 3.60731 10C3.60731 11.7656 4.23135 13.2725 5.47945 14.5205C6.72755 15.7686 8.2344 16.3927 10 16.3927ZM10 13.653C8.99543 13.653 8.13546 13.2953 7.42009 12.5799C6.70472 11.8645 6.34703 11.0046 6.34703 10C6.34703 8.99543 6.70472 8.13546 7.42009 7.42009C8.13546 6.70472 8.99543 6.34703 10 6.34703C11.0046 6.34703 11.8645 6.70472 12.5799 7.42009C13.2953 8.13546 13.653 8.99543 13.653 10C13.653 11.0046 13.2953 11.8645 12.5799 12.5799C11.8645 13.2953 11.0046 13.653 10 13.653ZM10 11.8265C10.5023 11.8265 10.9323 11.6476 11.29 11.29C11.6476 10.9323 11.8265 10.5023 11.8265 10C11.8265 9.49772 11.6476 9.06773 11.29 8.71005C10.9323 8.35236 10.5023 8.17352 10 8.17352C9.49772 8.17352 9.06773 8.35236 8.71005 8.71005C8.35236 9.06773 8.17352 9.49772 8.17352 10C8.17352 10.5023 8.35236 10.9323 8.71005 11.29C9.06773 11.6476 9.49772 11.8265 10 11.8265Z" fill="black"/>
</svg>
