<svg width="25" height="25" viewBox="0 0 25 25" fill="none" xmlns="http://www.w3.org/2000/svg">
<mask id="path-1-inside-1_106_864" fill="white">
<path d="M2.7217 12.5L2.35608 12.2075L2.1217 12.5L2.35608 12.7925L2.7217 12.5ZM11.1592 12.9688C11.2835 12.9688 11.4028 12.9194 11.4907 12.8315C11.5786 12.7436 11.628 12.6243 11.628 12.5C11.628 12.3757 11.5786 12.2565 11.4907 12.1686C11.4028 12.0807 11.2835 12.0313 11.1592 12.0313V12.9688ZM6.10608 7.52002L2.35608 12.2075L3.08733 12.7925L6.83733 8.10502L6.10608 7.52002ZM2.35608 12.7925L6.10608 17.48L6.83733 16.895L3.08733 12.2075L2.35608 12.7925ZM2.7217 12.9688H11.1592V12.0313H2.7217V12.9688Z"/>
</mask>
<path d="M10.4092 12.0313V12.9688H11.9092V12.0313H10.4092ZM2.7217 12.5L3.65875 13.6713L5.12287 12.5L3.65875 11.3287L2.7217 12.5ZM2.1217 12.5L0.951133 11.5621L0.199566 12.5L0.951133 13.438L2.1217 12.5ZM6.10608 7.52002L7.04312 6.34872L5.87182 5.41167L4.93478 6.58298L6.10608 7.52002ZM3.08733 12.7925L2.15029 13.9638L3.32159 14.9009L4.25863 13.7296L3.08733 12.7925ZM6.83733 8.10502L8.00863 9.04206L8.94567 7.87076L7.77437 6.93372L6.83733 8.10502ZM6.10608 17.48L4.93478 18.4171L5.87182 19.5884L7.04312 18.6513L6.10608 17.48ZM6.83733 16.895L7.77437 18.0663L8.94567 17.1293L8.00863 15.958L6.83733 16.895ZM3.08733 12.2075L4.25863 11.2705L3.32159 10.0992L2.15029 11.0362L3.08733 12.2075ZM2.7217 12.9688H1.2217V14.4688H2.7217V12.9688ZM2.7217 12.0313V10.5313H1.2217V12.0313H2.7217ZM3.65875 11.3287L3.29312 11.0362L1.41904 13.3788L1.78466 13.6713L3.65875 11.3287ZM1.18551 11.2696L0.951133 11.5621L3.29228 13.438L3.52665 13.1455L1.18551 11.2696ZM0.951133 13.438L1.18551 13.7305L3.52665 11.8546L3.29228 11.5621L0.951133 13.438ZM3.29312 13.9638L3.65875 13.6713L1.78466 11.3287L1.41904 11.6212L3.29312 13.9638ZM11.1592 14.4688C11.6813 14.4688 12.1821 14.2614 12.5513 13.8921L10.43 11.7708C10.6234 11.5774 10.8857 11.4688 11.1592 11.4688V14.4688ZM12.5513 13.8921C12.9205 13.5229 13.128 13.0222 13.128 12.5H10.128C10.128 12.2265 10.2366 11.9642 10.43 11.7708L12.5513 13.8921ZM13.128 12.5C13.128 11.9779 12.9205 11.4771 12.5513 11.1079L10.43 13.2292C10.2366 13.0358 10.128 12.7735 10.128 12.5H13.128ZM12.5513 11.1079C12.1821 10.7387 11.6813 10.5313 11.1592 10.5313V13.5313C10.8857 13.5313 10.6234 13.4226 10.43 13.2292L12.5513 11.1079ZM4.93478 6.58298L1.18478 11.2705L3.52738 13.1446L7.27738 8.45706L4.93478 6.58298ZM1.41904 13.3788L2.15029 13.9638L4.02437 11.6212L3.29312 11.0362L1.41904 13.3788ZM4.25863 13.7296L8.00863 9.04206L5.66603 7.16798L1.91603 11.8555L4.25863 13.7296ZM7.77437 6.93372L7.04312 6.34872L5.16904 8.69132L5.90029 9.27632L7.77437 6.93372ZM1.18478 13.7296L4.93478 18.4171L7.27738 16.543L3.52738 11.8555L1.18478 13.7296ZM7.04312 18.6513L7.77437 18.0663L5.90029 15.7237L5.16904 16.3087L7.04312 18.6513ZM8.00863 15.958L4.25863 11.2705L1.91603 13.1446L5.66603 17.8321L8.00863 15.958ZM2.15029 11.0362L1.41904 11.6212L3.29312 13.9638L4.02437 13.3788L2.15029 11.0362ZM2.7217 14.4688H11.1592V11.4688H2.7217V14.4688ZM11.1592 10.5313H2.7217V13.5313H11.1592V10.5313ZM1.2217 12.0313V12.9688H4.2217V12.0313H1.2217Z" fill="#EA4335" mask="url(#path-1-inside-1_106_864)"/>
<path d="M11.6279 18.995C12.7681 19.6533 14.0614 19.9999 15.378 20C16.6945 20.0001 17.9879 19.6535 19.1281 18.9953C20.2683 18.337 21.2151 17.3902 21.8734 16.2501C22.5317 15.1099 22.8783 13.8166 22.8783 12.5C22.8783 11.1834 22.5317 9.89008 21.8734 8.74992C21.2151 7.60975 20.2683 6.66296 19.1281 6.00471C17.9879 5.34646 16.6945 4.99995 15.378 5C14.0614 5.00005 12.7681 5.34666 11.6279 6.005" stroke="#EA4335" stroke-width="1.5"/>
</svg>
