<svg width="20" height="21" viewBox="0 0 20 21" fill="none" xmlns="http://www.w3.org/2000/svg">
<path d="M9.78091 0.734375C7.12876 0.734375 6.79585 0.745996 5.75425 0.793359C4.7146 0.841016 4.00493 1.00557 3.38403 1.24707C2.74165 1.49648 2.19683 1.83018 1.65405 2.37314C1.11079 2.91602 0.7771 3.46084 0.526904 4.10293C0.284717 4.72402 0.119971 5.43398 0.0731933 6.47314C0.0266113 7.51484 0.0144043 7.84785 0.0144043 10.5001C0.0144043 13.1523 0.0261231 13.4842 0.0733887 14.5258C0.12124 15.5654 0.285791 16.2751 0.5271 16.896C0.776709 17.5384 1.1104 18.0832 1.65337 18.626C2.19604 19.1692 2.74087 19.5037 3.38276 19.7531C4.00415 19.9946 4.71392 20.1592 5.75337 20.2068C6.79507 20.2542 7.12769 20.2658 9.77974 20.2658C12.4322 20.2658 12.764 20.2542 13.8056 20.2068C14.8453 20.1592 15.5557 19.9946 16.1771 19.7531C16.8192 19.5037 17.3632 19.1692 17.9058 18.626C18.4491 18.0832 18.7827 17.5384 19.033 16.8963C19.273 16.2751 19.4378 15.5652 19.4867 14.526C19.5334 13.4844 19.5457 13.1523 19.5457 10.5001C19.5457 7.84785 19.5334 7.51504 19.4867 6.47334C19.4378 5.43369 19.273 4.72412 19.033 4.10322C18.7827 3.46084 18.4491 2.91602 17.9058 2.37314C17.3626 1.82998 16.8194 1.49629 16.1765 1.24717C15.554 1.00557 14.8439 0.840918 13.8042 0.793359C12.7625 0.745996 12.4309 0.734375 9.77788 0.734375H9.78091ZM8.90483 2.49424C9.16489 2.49385 9.45503 2.49424 9.78091 2.49424C12.3884 2.49424 12.6974 2.50361 13.7271 2.55039C14.6792 2.59395 15.196 2.75303 15.5403 2.88672C15.996 3.06367 16.3209 3.27529 16.6625 3.61719C17.0043 3.95898 17.2159 4.28447 17.3933 4.74023C17.527 5.08398 17.6863 5.60078 17.7296 6.55293C17.7764 7.58242 17.7866 7.8916 17.7866 10.4979C17.7866 13.1041 17.7764 13.4134 17.7296 14.4428C17.6861 15.3949 17.527 15.9117 17.3933 16.2556C17.2164 16.7113 17.0043 17.0358 16.6625 17.3774C16.3208 17.7192 15.9962 17.9308 15.5403 18.1078C15.1964 18.2421 14.6792 18.4008 13.7271 18.4443C12.6976 18.4911 12.3884 18.5013 9.78091 18.5013C7.17329 18.5013 6.86421 18.4911 5.83481 18.4443C4.88267 18.4004 4.36587 18.2413 4.02134 18.1076C3.56567 17.9306 3.24009 17.719 2.89829 17.3772C2.55649 17.0354 2.34497 16.7107 2.16753 16.2548C2.03384 15.9109 1.87456 15.3941 1.8312 14.442C1.78442 13.4125 1.77505 13.1033 1.77505 10.4954C1.77505 7.8876 1.78442 7.57998 1.8312 6.55049C1.87476 5.59834 2.03384 5.08154 2.16753 4.7373C2.34458 4.28154 2.55649 3.95605 2.89839 3.61426C3.24019 3.27246 3.56567 3.06084 4.02144 2.8835C4.36567 2.74922 4.88267 2.59053 5.83481 2.54678C6.73569 2.50605 7.08481 2.49385 8.90483 2.4918V2.49424ZM14.9938 4.11572C14.3468 4.11572 13.8219 4.64014 13.8219 5.28721C13.8219 5.93418 14.3468 6.45908 14.9938 6.45908C15.6408 6.45908 16.1657 5.93418 16.1657 5.28721C16.1657 4.64023 15.6408 4.11533 14.9938 4.11533V4.11572ZM9.78091 5.48496C7.01138 5.48496 4.76587 7.73047 4.76587 10.5001C4.76587 13.2697 7.01138 15.5142 9.78091 15.5142C12.5505 15.5142 14.7953 13.2697 14.7953 10.5001C14.7953 7.73057 12.5503 5.48496 9.78071 5.48496H9.78091ZM9.78091 7.24482C11.5787 7.24482 13.0362 8.70215 13.0362 10.5001C13.0362 12.2979 11.5787 13.7554 9.78091 13.7554C7.98306 13.7554 6.52573 12.2979 6.52573 10.5001C6.52573 8.70215 7.98306 7.24482 9.78091 7.24482Z" fill="white"/>
</svg>
