<svg width="31" height="31" viewBox="0 0 31 31" fill="none" xmlns="http://www.w3.org/2000/svg">
<g clip-path="url(#clip0_70_887)">
<path d="M28.7136 12.2C28.6401 11.8048 28.3813 11.4694 28.0184 11.2982C27.6434 11.1213 24.276 9.60073 21.5186 10.5936C20.8449 10.8363 19.5798 11.3886 17.6595 12.2782L8.18773 7.81487C7.88801 7.67363 7.54462 7.65748 7.23308 7.76982L6.05812 8.19311C5.63115 8.34691 5.32077 8.72067 5.24791 9.16945C5.17514 9.6178 5.35133 10.0708 5.70796 10.3519L11.7144 15.0849C10.45 15.6711 9.22114 16.2265 8.47627 16.561L5.81151 14.2686C5.47066 13.9751 4.99816 13.8883 4.57483 14.0406L3.63487 14.3792C3.24954 14.5181 2.95661 14.8374 2.85092 15.2333C2.74521 15.6296 2.84055 16.052 3.10553 16.3647L6.55798 20.4341C6.76189 20.6745 7.04909 20.8288 7.36202 20.8661L10.1346 21.1957C10.3269 21.2185 10.5223 21.1962 10.7047 21.1308L23.6305 16.4748C26.2281 15.5391 28.3025 13.3837 28.3892 13.2923C28.6665 13.0014 28.7872 12.5951 28.7136 12.2ZM23.208 15.2983C20.8577 16.1448 10.2822 19.9542 10.2822 19.9542L7.50962 19.6247L4.05717 15.5553L4.99713 15.2166L8.2619 18.0253C8.2619 18.0253 11.5543 16.5628 14.0754 15.3542L6.48081 9.3692L7.65577 8.94591L17.6554 13.6586C19.5058 12.7956 21.1581 12.0519 21.9409 11.7701C24.2912 10.9236 27.486 12.4291 27.486 12.4291C27.486 12.4291 25.5583 14.4518 23.208 15.2983Z" fill="black"/>
</g>
<defs>
<clipPath id="clip0_70_887">
<rect width="25" height="25" fill="white" transform="translate(5.41553 0.980957) rotate(10.2175)"/>
</clipPath>
</defs>
</svg>
