<svg width="37" height="37" viewBox="0 0 37 37" fill="none" xmlns="http://www.w3.org/2000/svg">
<g clip-path="url(#clip0_70_867)">
<path d="M31.0924 23.6012C31.2681 23.2397 31.2593 22.8162 31.0692 22.4628C30.8728 22.0977 29.0683 18.8735 26.2607 18.0332C25.5746 17.828 24.229 17.5203 22.1558 17.0945L17.191 7.87566C17.0339 7.58394 16.7674 7.36687 16.4501 7.27206L15.2536 6.91418C14.8188 6.78411 14.347 6.90024 14.0217 7.21787C13.6967 7.53519 13.5692 8.00425 13.6889 8.44223L15.7066 15.8184C14.3413 15.5384 13.0229 15.2547 12.2251 15.081L11.4445 11.6537C11.3447 11.2151 11.0163 10.8645 10.5854 10.7354L9.62817 10.4491C9.23577 10.3317 8.81038 10.4145 8.4901 10.67C8.16958 10.9259 7.99522 11.3222 8.02245 11.7313L8.38049 17.0559C8.40161 17.3703 8.5409 17.6651 8.77037 17.8811L10.8043 19.7939C10.9454 19.9266 11.1158 20.0248 11.3013 20.0806L24.4638 24.0182C27.109 24.8095 30.0582 24.3089 30.1824 24.2869C30.5782 24.2178 30.9168 23.9627 31.0924 23.6012ZM24.8233 22.8209C22.4299 22.1048 11.6608 18.8833 11.6608 18.8833L9.6269 16.9704L9.26886 11.6458L10.2261 11.9321L11.1824 16.1313C11.1824 16.1313 14.6995 16.9118 17.4453 17.4381L14.8945 8.11124L16.091 8.46912L21.3322 18.2022C23.3332 18.6079 25.104 18.9917 25.9011 19.2303C28.2944 19.9464 29.969 23.056 29.969 23.056C29.969 23.056 27.2165 23.5369 24.8233 22.8209Z" fill="black"/>
</g>
<defs>
<clipPath id="clip0_70_867">
<rect width="25" height="25" fill="white" transform="translate(19.0231 0.732056) rotate(46.6816)"/>
</clipPath>
</defs>
</svg>
