<svg width="19" height="19" viewBox="0 0 19 19" fill="none" xmlns="http://www.w3.org/2000/svg">
<path d="M14.5471 18.5C14.3235 18.5 14.1011 18.4314 13.9096 18.2947L9.40776 15.0662L4.90594 18.2947C4.71942 18.4289 4.49528 18.5007 4.26551 18.4999C4.03574 18.4991 3.81209 18.4257 3.62651 18.2903C3.44075 18.1556 3.3022 17.9657 3.23056 17.7478C3.15893 17.5298 3.15786 17.2948 3.22751 17.0761L4.9065 11.6573L0.445072 8.51354C0.260174 8.37708 0.122859 8.18595 0.052548 7.96717C-0.0177626 7.74839 -0.0175092 7.51305 0.0532726 7.29442C0.124613 7.07633 0.262689 6.88617 0.447988 6.75082C0.633287 6.61547 0.856436 6.54178 1.0859 6.54015L6.61149 6.53185L8.37071 1.24754C8.44331 1.02985 8.58256 0.840519 8.76873 0.706356C8.9549 0.572193 9.17856 0.5 9.40804 0.5C9.63752 0.5 9.86118 0.572193 10.0473 0.706356C10.2335 0.840519 10.3728 1.02985 10.4454 1.24754L12.1747 6.53185L17.7285 6.54015C17.9583 6.54145 18.1817 6.61511 18.3672 6.75066C18.5527 6.88621 18.6908 7.07677 18.7618 7.29525C18.8328 7.51374 18.8331 7.74905 18.7628 7.96775C18.6924 8.18645 18.555 8.37742 18.3699 8.51354L13.9085 11.6573L15.5875 17.0761C15.6573 17.2947 15.6563 17.5297 15.5848 17.7477C15.5132 17.9657 15.3747 18.1556 15.189 18.2903C15.0029 18.4268 14.778 18.5003 14.5471 18.5Z" fill="#FFAC33"/>
</svg>
