<svg width="28" height="28" viewBox="0 0 28 28" fill="none" xmlns="http://www.w3.org/2000/svg">
<path fill-rule="evenodd" clip-rule="evenodd" d="M0.199951 3.3C0.199951 1.47746 1.67741 0 3.49995 0H14.3C14.797 0 15.2 0.402944 15.2 0.9C15.2 1.39706 14.797 1.8 14.3 1.8H3.49995C2.67152 1.8 1.99995 2.47157 1.99995 3.3V3.6H18.5C20.3225 3.6 21.7999 5.07746 21.7999 6.9V18.3C21.7999 20.1225 20.3225 21.6 18.5 21.6H3.49995C1.67741 21.6 0.199951 20.1225 0.199951 18.3V3.3ZM1.99995 5.4V18.3C1.99995 19.1284 2.67152 19.8 3.49995 19.8H18.5C19.3284 19.8 20 19.1284 20 18.3V6.9C20 6.07157 19.3284 5.4 18.5 5.4H1.99995ZM16.0999 12C15.7686 12 15.5 12.2686 15.5 12.6C15.5 12.9314 15.7686 13.2 16.0999 13.2C16.4313 13.2 16.6999 12.9314 16.6999 12.6C16.6999 12.2686 16.4313 12 16.0999 12ZM13.7 12.6C13.7 11.2745 14.7745 10.2 16.0999 10.2C17.4254 10.2 18.5 11.2745 18.5 12.6C18.5 13.9255 17.4254 15 16.0999 15C14.7745 15 13.7 13.9255 13.7 12.6Z" fill="#111111"/>
</svg>
