<svg width="37" height="25" viewBox="0 0 37 25" fill="none" xmlns="http://www.w3.org/2000/svg">
<g clip-path="url(#clip0_99_905)">
<path d="M35.4925 3.89931C35.2885 3.14563 34.8907 2.45853 34.3386 1.90643C33.7866 1.35432 33.0995 0.956474 32.3458 0.7525C29.5866 0 18.4819 0 18.4819 0C18.4819 0 7.37664 0.0227777 4.61747 0.775278C3.86379 0.979264 3.1767 1.37713 2.62462 1.92926C2.07253 2.4814 1.67473 3.16852 1.47081 3.92222C0.636222 8.82472 0.312472 16.295 1.49372 21.0014C1.69766 21.7551 2.09548 22.4422 2.64756 22.9943C3.19964 23.5464 3.88673 23.9442 4.64039 24.1482C7.39956 24.9007 18.5046 24.9007 18.5046 24.9007C18.5046 24.9007 29.6094 24.9007 32.3684 24.1482C33.1221 23.9442 33.8092 23.5464 34.3614 22.9943C34.9135 22.4422 35.3113 21.7551 35.5153 21.0014C36.3955 16.0919 36.6668 8.62625 35.4925 3.89931Z" fill="#FF0000"/>
<path d="M14.9474 17.7859L24.1596 12.4501L14.9474 7.11426V17.7859Z" fill="white"/>
</g>
<defs>
<clipPath id="clip0_99_905">
<rect width="35.56" height="25" fill="white" transform="translate(0.719971)"/>
</clipPath>
</defs>
</svg>
